<mxfile host="65bd71144e">
    <diagram id="sXXNzelH082hA9-jU87P" name="Page-1">
        <mxGraphModel dx="2062" dy="1248" grid="1" gridSize="10" guides="1" tooltips="1" connect="1" arrows="1" fold="1" page="1" pageScale="1" pageWidth="1100" pageHeight="850" math="0" shadow="0">
            <root>
                <mxCell id="0"/>
                <mxCell id="1" parent="0"/>
                <mxCell id="21" value="" style="group" vertex="1" connectable="0" parent="1">
                    <mxGeometry x="150" y="30" width="160" height="120" as="geometry"/>
                </mxCell>
                <mxCell id="2" value="20" style="text;html=1;align=center;verticalAlign=middle;resizable=0;points=[];autosize=1;strokeColor=none;fillColor=none;" vertex="1" parent="21">
                    <mxGeometry x="50" width="40" height="30" as="geometry"/>
                </mxCell>
                <mxCell id="3" value="20" style="text;html=1;align=center;verticalAlign=middle;resizable=0;points=[];autosize=1;strokeColor=none;fillColor=none;" vertex="1" parent="21">
                    <mxGeometry x="80" y="20" width="40" height="30" as="geometry"/>
                </mxCell>
                <mxCell id="4" value="20" style="text;html=1;align=center;verticalAlign=middle;resizable=0;points=[];autosize=1;strokeColor=none;fillColor=none;" vertex="1" parent="21">
                    <mxGeometry x="20" y="20" width="40" height="30" as="geometry"/>
                </mxCell>
                <mxCell id="5" value="20" style="text;html=1;align=center;verticalAlign=middle;resizable=0;points=[];autosize=1;strokeColor=none;fillColor=none;" vertex="1" parent="21">
                    <mxGeometry x="30" y="50" width="40" height="30" as="geometry"/>
                </mxCell>
                <mxCell id="6" value="20" style="text;html=1;align=center;verticalAlign=middle;resizable=0;points=[];autosize=1;strokeColor=none;fillColor=none;" vertex="1" parent="21">
                    <mxGeometry y="50" width="40" height="30" as="geometry"/>
                </mxCell>
                <mxCell id="7" value="20" style="text;html=1;align=center;verticalAlign=middle;resizable=0;points=[];autosize=1;strokeColor=none;fillColor=none;" vertex="1" parent="21">
                    <mxGeometry x="60" y="90" width="40" height="30" as="geometry"/>
                </mxCell>
                <mxCell id="8" value="20" style="text;html=1;align=center;verticalAlign=middle;resizable=0;points=[];autosize=1;strokeColor=none;fillColor=none;" vertex="1" parent="21">
                    <mxGeometry x="20" y="90" width="40" height="30" as="geometry"/>
                </mxCell>
                <mxCell id="9" value="20" style="text;html=1;align=center;verticalAlign=middle;resizable=0;points=[];autosize=1;strokeColor=none;fillColor=none;" vertex="1" parent="21">
                    <mxGeometry x="120" y="40" width="40" height="30" as="geometry"/>
                </mxCell>
                <mxCell id="14" value="" style="shape=stencil(lVjZbttADPwavRLc5Z7PafofAeLURt04cJwef18KwspaSpogb7I81PIYkiMN8vB+fHo7DJ7fb9fLz8Of0/PtOMi3wfvT6/FwPd30apDHQR5eLtfDj+vl4/V5+v32NCLHq1+X3+MT/k52tVLIo5Xnf9MdIT/d+D7hz6fXJT5RSB0+UnAA7yhxh68kYR9fAoXQ4V0kBwxyoWgMKlXgUXbEfQQ+Ecu+QfJUfJ8iTxUYxECuPyFwu7NpEKJNUsgwS5Ipxr4KAZZNmELpDBJT5H0DHyj1MaRIBaTVcytTM8hMAk5wibL0BoEYBO00rX0MOZNHBp5if0LhVvttA0e+r3TxzcltdjemzfhIUgC7Vw4VcqBsiWofsbYTR8A828xVqKIatN6d8ZUyxDux+Ar8YSprfEV4Q2vFF5D/mWELfAD5VI6aeAtVQAilywqP+nKNz5RgvI4tnqH/3vAhtYzt5dNbPOIbtxaf8RHWy63811HqEV5W/nvgvy4PZ/EJNTDlbPPpoT8lWHyB/tj8FDhFXav+gp8M8xlW+AjqpfNq1V8F8q32eMdKWRAAUwr2ADRQtCGzxSewNbjRcYFH257bhlgWADYArxoMiQO22mAkEG7IFUEzfH4Qi/dgYXwVH1aEYDjQI+W+IUuGBFJZYhZkhAOl2IbUhQobhq10Glc26khtsX5lqCgIyEAo9iXLAc8UHZl9zNnBJa/6MxqtpXINJFWrZqRTEhj0qDv6tMYMdYrqRTZ6cR41e4rUTPYQmnbZJpJYvahnCohBVbX0VJV5G25Tj9sonHW7QO7pm4EJ2mW4nYqKJfMq4Vt/773cmCylNv+28fM2nUNo/bSNLxavzQCYNw7PbPEgpYqXaPHIn2r1KzdBuIdP1n/B+GKfj7bHuIwsHsm5u/qcCwzl3GI73g0yIHVdNaYn9wmeDT7iAmRLoAICGAvQM1pgj335a8CneL24f3p4OZ3P05eL5f/2U4Xemj5zyON/);lineShape=1;" vertex="1" parent="21">
                    <mxGeometry x="47.14001140740129" y="18.6355871967082" width="15.321573877729975" height="7.011024764995781" as="geometry"/>
                </mxCell>
                <mxCell id="15" value="" style="shape=stencil(lZfJctswDIafxlcMwJ3nNH2PzMSpPXXtjONub1+oHkoiZP2a3GSaHxZiIbjzTx+Hl/f9zvHH7Xr5vv99fL0ddv7Lzrnj+bC/Hm/6tfPPO//0drnuv10vP8+v99/vL8PO4evH5dcg4c+dEwplgBz/vS8w+fh/4et9++l4nm0P5Gq3PZAP69sLBddtr23h4XYRqr014ikKABKF3h4plOo6oP5W3wHqQSoAKMTSAV6gD17l5R7QU0BHKlR6DSG2lcdAJQ4dED0JAGIi34chMQVeB5In1/uQMjE41lSp9kBWk9I6kBNJH4dcKAINRU+pd7p4mKlFLe416EoCJlVNjdQnq1ACyV0rxdgDmTzwQYGcLLChofapUTUdQeAGoFog+E8CJWOAe6C2nrDqdLDA1rE6CxSswWSrMG8dkynqOibwY6BQLgubkAbN5gUQMRCiBQT0mQEwgSiwk02ZMAMcCoT6YCKXWxGunpK3QMQ+2JLLrVWthlos4EAXUCDkhQZcEJkXPmANZaFhq4LKIg4gcLNsnhF5o6oXNYfa8ZTN83TFRZoWQMGR88kCFaWrWtxr2Kxq7VyLEoKR+DQgLVAjEEjQ/JNaso0Ak6BbS+y9WHQYAKHO0bYBFcHAJL2qXd9eVURCw4CzI6KKQENZjK3TjYCjDBp4KNakScRjgO24oSIEaPC+JecIMDxWl1vzHac4366AtcHSDGUqgkHJibrY+zCIAMmnwzH32aoiKii5bIdvlYBKVCc2E2d4n7BNbQ0yMJ+tdAdDzO0spu0CpZsLXeAIvWioOtODmmEbWxwpbj1helOhbs12fOENY8ygwO1OXNme7HaUlmxvM9xz9SDs85GBq2Kfj7gbfvJxurldP6Z38NvxdLo/o+f/23ezLt3f3P75Hw==);lineShape=1;" vertex="1" parent="21">
                    <mxGeometry x="78.42619803330786" y="19.035315794238073" width="12.999815115975178" height="7.566244821039969" as="geometry"/>
                </mxCell>
                <mxCell id="16" value="" style="shape=stencil(lVdJchsxDHyNriiA4Hp2nH+4ynKkiiO5ZDnL74PJ1IyHYNSJb7N0g9gB7vTu9fDwst8Ffr1ezl/3P46P18NOP+1COJ4O+8vxak87vd/p3dP5sv9yOb+dHuf3l4cJOT19O3+fJPycea1RCxMr8K/5i5DEPx8+z/jn42mLz9RSh09UK8AHUu7l25d2m1ArsfaEQiUAgsnrNQqRUrpNKIk4dgQNlPJtQs4Ueh9Focy3CSlTqr2ThEK5TYgDIQsxOEEz5d5LhWHcQqHU21AqKVBJGqXSEWqCNogs8haCxV4UqETF4RtlQfg44CvwUSAe8A24SJbT18RjhkGQxbztAaAWmHIbDIB4HeSjSjBtB/kJ6L9at8EHUAeGzx7PIGC85MuKr1RA6bMPgOFRQojvFIZH9gqlQX4E9soSza18mKDaBv1xAQz6VCi/yeB/VPO+VU/xBf4PVKPHJ6i/a1pTfkJ9wqB/g/EqQ741oL8s1v1vATPVsYCBwUxxcFCBBSyDAQnieXCQAocaPng8wwKTIUErLPiP4e2vK3ibCaBh2WR3FVwjReAgm+wupUuBk1gjcU/I5lJwQlRqfcwyw7GXdEmZddYzXD+yLr/XbcLyEEStWF/p00IFE5o/Ieiy5f09bomkr2SLjIBOVNe8XAmmEjihqU+NRAoyydbM0pvAMM7TWhocPgIDmtlXHD6AoBk+NocXZG+h6vVHrdoKKwx4ZK9NlgGP7G2+0gyP1va1Sjb2gpSbVrfs8KhzTZuPxyfkz+ZnMcNVaNP53wmotX/4HvRPvD28X7qejs/P851t+99f0uzTfMHT+98=);lineShape=1;" vertex="1" parent="21">
                    <mxGeometry x="26.989098505834136" y="42.035366839093285" width="7.0722992688250015" height="13.55274204121462" as="geometry"/>
                </mxCell>
                <mxCell id="17" value="" style="shape=stencil(lZfbbtswDIafxrcEdbKo6657jwJNl2BZUqTptr596RlKLMr+h94lMj9JPFNDeHjbP73uBs9v18v55+7P4fm6H8K3wfvDab+7HK76awiPQ3h4OV92Py7n99Pz/P/1aZKcfv06/552+DtznthPkOePeYEp5H8L32fx4+G0EI80ukY8kE/b4plKu3smBuKOSaSR1xVfABCplBbQG/ptQNWL3AKFSgDASLk9QVcCOCFE4vaEECghkzqS2AC6ktw2kNQm7QlRdQBmTULSAroy8jYwZvKt33SFgdI5kRtbR0doVvHk20ASR0UAUIhzCwiVcRsoibi9UonVDOtAodz6oQhloLQCJroVKABwzDY2dA+HlCjVKAsggtjQzzJaYIwQGJMFBGsdsgVQ9Oln44iFHdYJ6TyhR4AUUiD2SiC7ig3wyQ6g0CjAvSPwlThYwIOMWDlBYEZMOvTxipWO2QKoDNz3WwAJp1CvA7SSBlPpTkBWUjf1OuAMkg4QHK59yjHww3pWB6xEcRZALWIqTV0wZQxYVxdYmu51aAnghJA+RzGQegCVMqmtf6k08tyXgVD77A1IEJBcw//WhDS8gNLCtfjeAA/9kPVKrQ7aWgV4eky2fmurRn0x5VqGbsNAqZ5Zn080wQzAUOnIdSa8zSe+1uf1kUk/t9VYh6iEprhkJyAdLD3KUY3W1tM6CKLgc4FC6ziXcIqSM4Oog+V+JNdWmQw7nO9mxNrAVsW7CdFRADHBdrZy9XZb4u3uDBvVijiqXWzHBYaGZ2tIfcDAywS7OzZksrs70AA1MYIRZxAErm62EAe7Ozt5MRzKXX0JLcTRW8qGGNcRfSMiv/Rw/K+4/ri/UV8Ox+P8xF1+t29aXZrfw+HxEw==);lineShape=1;" vertex="1" parent="21">
                    <mxGeometry x="44.02655592652604" y="42.43521681762641" width="10.552008871051157" height="13.623085970905725" as="geometry"/>
                </mxCell>
                <mxCell id="18" value="" style="shape=stencil(lVnJctRADP2auarU6v0c4D9SRSBThIQKYft7ZKbasdT2C3ObTCRby9PTMqd48/3+9tvdSfj7y/PTl7tf548v96f47iRyfry/ez6/6KdTfH+KN5+enu8+Pz/9ePx4+fvb7SK5fPr69HN5wu+LXu/U06Il/OfyDVON/774cJF/OD9u5RtFMfJCjYF8IS5GvlAuQF4odyMfApVwrNA6lWwVMlbI1KL1gKFJLVCyIVIfGPhcCxUbo6g+JKCwurgqVOJ2rFAKVfuGJBSAD0WIq1UoMM+5UrdRyjwys6+QKNjE5UgNmKTPa9aHrHEDYU2N2EYpN2rApJSHASv2eMRtXyER20xr3GIGChp1tgqROnoDU7BhLXmga1chtkmhQvDFMixeFRol4ENM1JpV6CMz+wqRsnVa8RtAHhT93Wa6apUDeEeFmlNQLNVjBemUnEmZGJgkSmO2HrRoBaBVqi/RWimCPChHFFsPVfMAeEkUCDYPtY8w7CtMFdcwkUmkYOGt1JYBCSi3B5uHJiP3+wphUlCwAHgr9XqFRAVkOvSR11UhQ5oJyhq2HlodPLKvUEksNJrWICigoMhxJnVY09qg2NZ0Vy5EJkUqFhraJgOKktKWRWuPlJAC+zGgJzwHTC/I1EEa0qD2Vb5DYCSPC5Wv4Pmrext5RMRC1dofmCGvThy2vABwmFZC8/INyPNgxK3DwB4eANjII5pfvdvIB2gPO3tws+VBbht5NPPwgMtGPgHABT/mqbwghh9P28qjNkgi1zxf+/zkL7I/UZr8LVC+9mviP3XxJb+g4pMvgDfwk6aC76PBHcSnTnhD+BfqcwFDeVdfbxdwmgsYMAQPvtkWJAgok0wJQAzHUxPoo/H8p3yjDgvS29Pg8HutfBpw3HQANAXqXOqen+CIVv2Koz2vgXjqYODkA1xYtOWJYxSGI6AuonEaDGALEB9SHT0Qp2ufDxZzrcCiDMlXgU5DEU0SmcSWsc5bAZlUJh8Elo2OTy7POmSivOmAlp1JjBW0Du2sUvHCoqXv1jodxRsIq5KLawY67Hc0907dQ9cJ5MM8u+vCUpFJeVpYEtyhlv3DrRMRLyxt8kFGSR0tXc2FlXFLCB4apUO06qbpj0c4D7rLdveGAufe5c5iw1rSaOz7Cn3sApuNH/b9QOJOBAGfCKKHRmEYpZT98pvbWCWPDinOpFwgdecwOtnmtoPCmrPn1swDXfsK3UMjrf1iv5skP89qoBEJlDYuCOuNrcCNYjk5WB8W/IJMK6m4EVWLtqJLZPQHrdcmvK9Q/FCofB4BzSzHUTclBXjQ0jXR1wP0WXt+tGmQweZH52B3fGVYPSrvxkKGJNarhzbDLUfls5dHQ4nKO1CsY9nRuVy8v2hIXZYCuUa++zLg0euO5KM/9weUrz7bI9ieKb8RVOUygxcnDwcenvZYfJa++veNN+X1w+uPKZ/ODw+X32K2//c/vuhXlx9u4vu/);lineShape=1;" vertex="1" parent="21">
                    <mxGeometry x="42.75982184779218" y="74.2357555204988" width="7.301821586149799" height="20.3161322219745" as="geometry"/>
                </mxCell>
                <mxCell id="19" value="" style="shape=stencil(lVnbbhw3DP2afSUoURSl5zT9jwBx6kVdO3DcNvn7crrQeEXNnCBva1lnJN4PqYt8+Pb46evDJfO3t9eXPx/+vX5+e7zIb5ecr8+PD6/XN/91kY8X+fDl5fXhj9eXv58/3/7++mnbuf366+Wf7Qvfb7hELBso84/bAlNJ/y/8ftv+dH2etuu8PVPS8+3+3zRtFxJB2ztP28tYONxeiOftlRrYrlTKtL1R7+fbjdL89ZRIgGr8a23eL9QyUCVTrzOgklYAEOJZgNSpIIBSmk9wDReg/2QkOgOUsgFAJ80zoA2jHFs4Ue2zR/BYOQa4EmehxX0ICO037uEEpQZk8Bvn2dDiK+Uc4DcucxAUXwEySKY6u0bJZEBL4n4/C10KtQYARnm2dDFioCVxw4UTOjE4oaQRWwOgPBz+GCDUZ1/STA04X9EYQFpIgVpdxOAaWmGEuoh19la1oejjjJEoBxk84oAvuYg226GmEbTHgEJ5zpB1d5ZjgFKdr1QLjGkXMeTgWofDHwMaaTgBx7TrJCSy2snAlVwnMgMswZh2nZjNABl16xhQRlnaAa4loNaqsbCZkiFApT77klXoS67EHAANhqgrUeeIsw4BxjEeGkMtWY71oSVoade6tgjooP67Enm2QxN8QqU6e2sr45LHgCV7N6/zoOy6EoPhWiVDdT3FmG5uOHCCixhCtPVRV48BGtXavSiCNNMsUpnudgCW9gvk2b27QLX6BdosQy/jE8eATHkuu13xCa6lWa29QrX6BVqPgIZOWApKt+Fdx4AlpnvDMrRYp33FgKV7j8nYARUJ3UdFuwMocI2+MLINAKqoA2y9Esh8Dmg1AhrIfH2pD76CimJijszeEYiHbkdYBCjIM5sQLQJQFuh7SbsDIFrZF4b1fslTUwd6/66HU29a7oTS8eavugiBTNdGC3MHqDgibJG64CvZckJGEdEiF+i4j9tk6BGA+sTNOzUCoNB99Av3MYdDqCwn/CSq63olnGii4RrkM5vnLDIgdz0O0oQzTejMNj2gmuKAFAEVZxpbohr14L8O8A5jcVc00vAiJEu2hM5UlhNs1OKzQpqWQgoTTVp8o0Ji6WRA1toOIsgJUqBMLhWkTHXJ3xnGaNM4nXGpFLiGk7IUTmCYZ5z25YX2oWmUE8sSmKjBymsWGZCrQTA55lkGVwNq2r3p0cCmZdTiM4IfRkwtw67GGzedXWPrCHCTkkMLwdBbvW+KjVaHJ1RXa2jl9gpw1spJ6C4NsjjvLkMZdcsoAshBd5kB26jL4NQtY8BbK0cW580dimlv2iV0l3jyqxYZk1sGNSlaY5FzRaMhlpbI170rT+hKSzvqihZgac1xLFDTYBPHgL0P2wEMZ4Nl4Q7aoOGKDWJ7N5NiNPXSOH1ULzF4EBfykuutokHckvk0Qe4gy+i7YG4sdRmIGpwNSomDaVcDYgKShxJ3gMBZee7jAjsgQUtnG4ztbmyMElnWyO9dDYj05aVkuRpQ37Q95oTnljRS2zGHa3FilHHvl2osWdu4HbVyJU4qXCpGV8qR/mSGSSBxHG0kg5OKFme6aa+Sx6l1acsy7MrKcMydaMA06UYO5Q32S/ucZ49NePkUaZJADsPLcw78Og9SN7YzzKZLw8AwD3H0ZvzKwpG6MBy6caywDL2G45iRR+99sl3i1xlepsRXWIZ61xq3Q6uGbMuQjHN86WFIMjk+2vJIW2fb42Uyyji/+j79k+3+4/0p/Mv16en2kn7///h07ku3Z3f5+B8=);lineShape=1;" vertex="1" parent="21">
                    <mxGeometry x="55.02122655357971" y="72.0305194011342" width="23.19375996982501" height="20.73920913424329" as="geometry"/>
                </mxCell>
                <mxCell id="20" value="" style="shape=stencil(lVjbUhsxDP2avGpsy5blZ9r+BzOEkiklTKC3v6+2GW+wzJ6Ut7Do2NbRXTu+eXm4fd7vUnh5PR2/7X8d7l4fdvxpl9Lh6WF/Orzarx1/3vHN/fG0/3o6/ni6O//9fLtILr++H38uJ/w+4wLVuIBS+NM/BP734ctZ/PHw9EY8UcpOXHVbnCmVQTxSbtvi2Ysn4rQtXohlEGdicLqQjKdnanFbXCnoIG74sC3eqI7iShWIx0gaRmoicQWATGHU1r4gdaNQaSOgUskA0LpxVvoDNaCDmUdGnY3SggCFmrvBWAZPMlbzeAPH7rDvO1yi5gCFEmCJhXIaAUoC7MBm6Dq6kZkS6JC5q7gCsONloeBuqCQCAEpt9OwSKAFAsRfzCEik4Ekl+9gpFnwgTxRztVGHohQBSxKojInIviCWhHs4rgCGOoiQjpa2Lw2kl2okjjdUTGudnmRfSgEAe8BoB/uCnE8DxTGAqrkj0EEtA7u0lCiDJ6n4G7RQQADt3r8CKmXAUrM8N7KkjQTo0IzEUQc7AuXWVnwutiMUJIFmJI52aJaX0A2NtHhABIXQAC17QAbxsACaB1RAawyhP3lFNIpYCZc27EtGhjCtqwfIFV7FA64YQpIHNAzI05OuADhPTwIhZ/9OPCmN/NtYn2hl7BsxegAKuQUwuSuqigtAPSBj10gTIOInZed8tVfiLUDJEwA7n2s2FgC2g8ZJB8xSSx7AWOk2sSQA8F6M6jWa2uTfqCdeAFMWEKy1TgDUzyznzSGHI6iMvL7hYTNIdboCa/1BQOnZdwUU2D1YBUkulTG0dQtTAo+9jm0VUkeTNhikVphdOrbKi2i10u+cSTO8wZoLHZXWCHPf0r6MMVcVTk11orWWntHf7+KmJ9UEK681eW6EEO3Fe6uxTCNLYv0EAgSfXSXBG6w5diXFjghAaWu/2fXrFU411uA7X7IjKrjBRggZ48EmggQCKK+crEMK7uJy8psGm3NQ4bVBy4WoTVIKfInnuSmQgCHFhkXXbXDt+42tcdRVauZelbYGXhcPbJYGLC0LFjdSC1yZ2NDulLYjGlA6im8e7AgUotHab7d4uPKk2H1zBXBfRWysTlzA2QkRkFSn1gFaTfzipMIZK/t5RvpWamPFVUdlC2yUUu9/L0so9PboiwjDBUvos91lgYYGpdBbiYs4stM0D9soCUpm8MFiiRrUjuDXJBGmh6mTit1N/1c8gShZt6CXPSfahJl4c+Ko55oKRuibzC0zBSceITPZvx1NE8FvanBv9sGF8VVx+3HZTd8fHh/Pq+23//e7bPt03oPz578=);lineShape=1;" vertex="1" parent="21">
                    <mxGeometry x="107.40797807108947" y="36.81665038659668" width="23.486492053376082" height="9.99018993997493" as="geometry"/>
                </mxCell>
                <mxCell id="22" value="" style="group" vertex="1" connectable="0" parent="1">
                    <mxGeometry x="-10" y="30" width="160" height="120" as="geometry"/>
                </mxCell>
                <mxCell id="23" value="20" style="text;html=1;align=center;verticalAlign=middle;resizable=0;points=[];autosize=1;strokeColor=none;fillColor=none;" vertex="1" parent="22">
                    <mxGeometry x="50" width="40" height="30" as="geometry"/>
                </mxCell>
                <mxCell id="24" value="20" style="text;html=1;align=center;verticalAlign=middle;resizable=0;points=[];autosize=1;strokeColor=none;fillColor=none;" vertex="1" parent="22">
                    <mxGeometry x="80" y="20" width="40" height="30" as="geometry"/>
                </mxCell>
                <mxCell id="25" value="20" style="text;html=1;align=center;verticalAlign=middle;resizable=0;points=[];autosize=1;strokeColor=none;fillColor=none;" vertex="1" parent="22">
                    <mxGeometry x="20" y="20" width="40" height="30" as="geometry"/>
                </mxCell>
                <mxCell id="26" value="20" style="text;html=1;align=center;verticalAlign=middle;resizable=0;points=[];autosize=1;strokeColor=none;fillColor=none;" vertex="1" parent="22">
                    <mxGeometry x="30" y="50" width="40" height="30" as="geometry"/>
                </mxCell>
                <mxCell id="27" value="20" style="text;html=1;align=center;verticalAlign=middle;resizable=0;points=[];autosize=1;strokeColor=none;fillColor=none;" vertex="1" parent="22">
                    <mxGeometry y="50" width="40" height="30" as="geometry"/>
                </mxCell>
                <mxCell id="28" value="20" style="text;html=1;align=center;verticalAlign=middle;resizable=0;points=[];autosize=1;strokeColor=none;fillColor=none;" vertex="1" parent="22">
                    <mxGeometry x="60" y="90" width="40" height="30" as="geometry"/>
                </mxCell>
                <mxCell id="29" value="20" style="text;html=1;align=center;verticalAlign=middle;resizable=0;points=[];autosize=1;strokeColor=none;fillColor=none;" vertex="1" parent="22">
                    <mxGeometry x="20" y="90" width="40" height="30" as="geometry"/>
                </mxCell>
                <mxCell id="30" value="20" style="text;html=1;align=center;verticalAlign=middle;resizable=0;points=[];autosize=1;strokeColor=none;fillColor=none;" vertex="1" parent="22">
                    <mxGeometry x="120" y="40" width="40" height="30" as="geometry"/>
                </mxCell>
                <mxCell id="31" value="" style="shape=stencil(lVjZbttADPwavRLc5Z7PafofAeLURt04cJwef18KwspaSpogb7I81PIYkiMN8vB+fHo7DJ7fb9fLz8Of0/PtOMi3wfvT6/FwPd30apDHQR5eLtfDj+vl4/V5+v32NCLHq1+X3+MT/k52tVLIo5Xnf9MdIT/d+D7hz6fXJT5RSB0+UnAA7yhxh68kYR9fAoXQ4V0kBwxyoWgMKlXgUXbEfQQ+Ecu+QfJUfJ8iTxUYxECuPyFwu7NpEKJNUsgwS5Ipxr4KAZZNmELpDBJT5H0DHyj1MaRIBaTVcytTM8hMAk5wibL0BoEYBO00rX0MOZNHBp5if0LhVvttA0e+r3TxzcltdjemzfhIUgC7Vw4VcqBsiWofsbYTR8A828xVqKIatN6d8ZUyxDux+Ar8YSprfEV4Q2vFF5D/mWELfAD5VI6aeAtVQAilywqP+nKNz5RgvI4tnqH/3vAhtYzt5dNbPOIbtxaf8RHWy63811HqEV5W/nvgvy4PZ/EJNTDlbPPpoT8lWHyB/tj8FDhFXav+gp8M8xlW+AjqpfNq1V8F8q32eMdKWRAAUwr2ADRQtCGzxSewNbjRcYFH257bhlgWADYArxoMiQO22mAkEG7IFUEzfH4Qi/dgYXwVH1aEYDjQI+W+IUuGBFJZYhZkhAOl2IbUhQobhq10Glc26khtsX5lqCgIyEAo9iXLAc8UHZl9zNnBJa/6MxqtpXINJFWrZqRTEhj0qDv6tMYMdYrqRTZ6cR41e4rUTPYQmnbZJpJYvahnCohBVbX0VJV5G25Tj9sonHW7QO7pm4EJ2mW4nYqKJfMq4Vt/773cmCylNv+28fM2nUNo/bSNLxavzQCYNw7PbPEgpYqXaPHIn2r1KzdBuIdP1n/B+GKfj7bHuIwsHsm5u/qcCwzl3GI73g0yIHVdNaYn9wmeDT7iAmRLoAICGAvQM1pgj335a8CneL24f3p4OZ3P05eL5f/2U4Xemj5zyON/);lineShape=1;" vertex="1" parent="22">
                    <mxGeometry x="47.14001140740129" y="18.6355871967082" width="15.321573877729975" height="7.011024764995781" as="geometry"/>
                </mxCell>
                <mxCell id="32" value="" style="shape=stencil(lZfJctswDIafxlcMwJ3nNH2PzMSpPXXtjONub1+oHkoiZP2a3GSaHxZiIbjzTx+Hl/f9zvHH7Xr5vv99fL0ddv7Lzrnj+bC/Hm/6tfPPO//0drnuv10vP8+v99/vL8PO4evH5dcg4c+dEwplgBz/vS8w+fh/4et9++l4nm0P5Gq3PZAP69sLBddtr23h4XYRqr014ikKABKF3h4plOo6oP5W3wHqQSoAKMTSAV6gD17l5R7QU0BHKlR6DSG2lcdAJQ4dED0JAGIi34chMQVeB5In1/uQMjE41lSp9kBWk9I6kBNJH4dcKAINRU+pd7p4mKlFLe416EoCJlVNjdQnq1ACyV0rxdgDmTzwQYGcLLChofapUTUdQeAGoFog+E8CJWOAe6C2nrDqdLDA1rE6CxSswWSrMG8dkynqOibwY6BQLgubkAbN5gUQMRCiBQT0mQEwgSiwk02ZMAMcCoT6YCKXWxGunpK3QMQ+2JLLrVWthlos4EAXUCDkhQZcEJkXPmANZaFhq4LKIg4gcLNsnhF5o6oXNYfa8ZTN83TFRZoWQMGR88kCFaWrWtxr2Kxq7VyLEoKR+DQgLVAjEEjQ/JNaso0Ak6BbS+y9WHQYAKHO0bYBFcHAJL2qXd9eVURCw4CzI6KKQENZjK3TjYCjDBp4KNakScRjgO24oSIEaPC+JecIMDxWl1vzHac4366AtcHSDGUqgkHJibrY+zCIAMmnwzH32aoiKii5bIdvlYBKVCc2E2d4n7BNbQ0yMJ+tdAdDzO0spu0CpZsLXeAIvWioOtODmmEbWxwpbj1helOhbs12fOENY8ygwO1OXNme7HaUlmxvM9xz9SDs85GBq2Kfj7gbfvJxurldP6Z38NvxdLo/o+f/23ezLt3f3P75Hw==);lineShape=1;" vertex="1" parent="22">
                    <mxGeometry x="78.42619803330786" y="19.035315794238073" width="12.999815115975178" height="7.566244821039969" as="geometry"/>
                </mxCell>
                <mxCell id="33" value="" style="shape=stencil(lVdJchsxDHyNriiA4Hp2nH+4ynKkiiO5ZDnL74PJ1IyHYNSJb7N0g9gB7vTu9fDwst8Ffr1ezl/3P46P18NOP+1COJ4O+8vxak87vd/p3dP5sv9yOb+dHuf3l4cJOT19O3+fJPycea1RCxMr8K/5i5DEPx8+z/jn42mLz9RSh09UK8AHUu7l25d2m1ArsfaEQiUAgsnrNQqRUrpNKIk4dgQNlPJtQs4Ueh9Focy3CSlTqr2ThEK5TYgDIQsxOEEz5d5LhWHcQqHU21AqKVBJGqXSEWqCNogs8haCxV4UqETF4RtlQfg44CvwUSAe8A24SJbT18RjhkGQxbztAaAWmHIbDIB4HeSjSjBtB/kJ6L9at8EHUAeGzx7PIGC85MuKr1RA6bMPgOFRQojvFIZH9gqlQX4E9soSza18mKDaBv1xAQz6VCi/yeB/VPO+VU/xBf4PVKPHJ6i/a1pTfkJ9wqB/g/EqQ741oL8s1v1vATPVsYCBwUxxcFCBBSyDAQnieXCQAocaPng8wwKTIUErLPiP4e2vK3ibCaBh2WR3FVwjReAgm+wupUuBk1gjcU/I5lJwQlRqfcwyw7GXdEmZddYzXD+yLr/XbcLyEEStWF/p00IFE5o/Ieiy5f09bomkr2SLjIBOVNe8XAmmEjihqU+NRAoyydbM0pvAMM7TWhocPgIDmtlXHD6AoBk+NocXZG+h6vVHrdoKKwx4ZK9NlgGP7G2+0gyP1va1Sjb2gpSbVrfs8KhzTZuPxyfkz+ZnMcNVaNP53wmotX/4HvRPvD28X7qejs/P851t+99f0uzTfMHT+98=);lineShape=1;" vertex="1" parent="22">
                    <mxGeometry x="26.989098505834136" y="42.035366839093285" width="7.0722992688250015" height="13.55274204121462" as="geometry"/>
                </mxCell>
                <mxCell id="34" value="" style="shape=stencil(lZfbbtswDIafxrcEdbKo6657jwJNl2BZUqTptr596RlKLMr+h94lMj9JPFNDeHjbP73uBs9v18v55+7P4fm6H8K3wfvDab+7HK76awiPQ3h4OV92Py7n99Pz/P/1aZKcfv06/552+DtznthPkOePeYEp5H8L32fx4+G0EI80ukY8kE/b4plKu3smBuKOSaSR1xVfABCplBbQG/ptQNWL3AKFSgDASLk9QVcCOCFE4vaEECghkzqS2AC6ktw2kNQm7QlRdQBmTULSAroy8jYwZvKt33SFgdI5kRtbR0doVvHk20ASR0UAUIhzCwiVcRsoibi9UonVDOtAodz6oQhloLQCJroVKABwzDY2dA+HlCjVKAsggtjQzzJaYIwQGJMFBGsdsgVQ9Oln44iFHdYJ6TyhR4AUUiD2SiC7ig3wyQ6g0CjAvSPwlThYwIOMWDlBYEZMOvTxipWO2QKoDNz3WwAJp1CvA7SSBlPpTkBWUjf1OuAMkg4QHK59yjHww3pWB6xEcRZALWIqTV0wZQxYVxdYmu51aAnghJA+RzGQegCVMqmtf6k08tyXgVD77A1IEJBcw//WhDS8gNLCtfjeAA/9kPVKrQ7aWgV4eky2fmurRn0x5VqGbsNAqZ5Zn080wQzAUOnIdSa8zSe+1uf1kUk/t9VYh6iEprhkJyAdLD3KUY3W1tM6CKLgc4FC6ziXcIqSM4Oog+V+JNdWmQw7nO9mxNrAVsW7CdFRADHBdrZy9XZb4u3uDBvVijiqXWzHBYaGZ2tIfcDAywS7OzZksrs70AA1MYIRZxAErm62EAe7Ozt5MRzKXX0JLcTRW8qGGNcRfSMiv/Rw/K+4/ri/UV8Ox+P8xF1+t29aXZrfw+HxEw==);lineShape=1;" vertex="1" parent="22">
                    <mxGeometry x="44.02655592652604" y="42.43521681762641" width="10.552008871051157" height="13.623085970905725" as="geometry"/>
                </mxCell>
                <mxCell id="35" value="" style="shape=stencil(lVnJctRADP2auarU6v0c4D9SRSBThIQKYft7ZKbasdT2C3ObTCRby9PTMqd48/3+9tvdSfj7y/PTl7tf548v96f47iRyfry/ez6/6KdTfH+KN5+enu8+Pz/9ePx4+fvb7SK5fPr69HN5wu+LXu/U06Il/OfyDVON/774cJF/OD9u5RtFMfJCjYF8IS5GvlAuQF4odyMfApVwrNA6lWwVMlbI1KL1gKFJLVCyIVIfGPhcCxUbo6g+JKCwurgqVOJ2rFAKVfuGJBSAD0WIq1UoMM+5UrdRyjwys6+QKNjE5UgNmKTPa9aHrHEDYU2N2EYpN2rApJSHASv2eMRtXyER20xr3GIGChp1tgqROnoDU7BhLXmga1chtkmhQvDFMixeFRol4ENM1JpV6CMz+wqRsnVa8RtAHhT93Wa6apUDeEeFmlNQLNVjBemUnEmZGJgkSmO2HrRoBaBVqi/RWimCPChHFFsPVfMAeEkUCDYPtY8w7CtMFdcwkUmkYOGt1JYBCSi3B5uHJiP3+wphUlCwAHgr9XqFRAVkOvSR11UhQ5oJyhq2HlodPLKvUEksNJrWICigoMhxJnVY09qg2NZ0Vy5EJkUqFhraJgOKktKWRWuPlJAC+zGgJzwHTC/I1EEa0qD2Vb5DYCSPC5Wv4Pmrext5RMRC1dofmCGvThy2vABwmFZC8/INyPNgxK3DwB4eANjII5pfvdvIB2gPO3tws+VBbht5NPPwgMtGPgHABT/mqbwghh9P28qjNkgi1zxf+/zkL7I/UZr8LVC+9mviP3XxJb+g4pMvgDfwk6aC76PBHcSnTnhD+BfqcwFDeVdfbxdwmgsYMAQPvtkWJAgok0wJQAzHUxPoo/H8p3yjDgvS29Pg8HutfBpw3HQANAXqXOqen+CIVv2Koz2vgXjqYODkA1xYtOWJYxSGI6AuonEaDGALEB9SHT0Qp2ufDxZzrcCiDMlXgU5DEU0SmcSWsc5bAZlUJh8Elo2OTy7POmSivOmAlp1JjBW0Du2sUvHCoqXv1jodxRsIq5KLawY67Hc0907dQ9cJ5MM8u+vCUpFJeVpYEtyhlv3DrRMRLyxt8kFGSR0tXc2FlXFLCB4apUO06qbpj0c4D7rLdveGAufe5c5iw1rSaOz7Cn3sApuNH/b9QOJOBAGfCKKHRmEYpZT98pvbWCWPDinOpFwgdecwOtnmtoPCmrPn1swDXfsK3UMjrf1iv5skP89qoBEJlDYuCOuNrcCNYjk5WB8W/IJMK6m4EVWLtqJLZPQHrdcmvK9Q/FCofB4BzSzHUTclBXjQ0jXR1wP0WXt+tGmQweZH52B3fGVYPSrvxkKGJNarhzbDLUfls5dHQ4nKO1CsY9nRuVy8v2hIXZYCuUa++zLg0euO5KM/9weUrz7bI9ieKb8RVOUygxcnDwcenvZYfJa++veNN+X1w+uPKZ/ODw+X32K2//c/vuhXlx9u4vu/);lineShape=1;" vertex="1" parent="22">
                    <mxGeometry x="42.75982184779218" y="74.2357555204988" width="7.301821586149799" height="20.3161322219745" as="geometry"/>
                </mxCell>
                <mxCell id="36" value="" style="shape=stencil(lVnbbhw3DP2afSUoURSl5zT9jwBx6kVdO3DcNvn7crrQeEXNnCBva1lnJN4PqYt8+Pb46evDJfO3t9eXPx/+vX5+e7zIb5ecr8+PD6/XN/91kY8X+fDl5fXhj9eXv58/3/7++mnbuf366+Wf7Qvfb7hELBso84/bAlNJ/y/8ftv+dH2etuu8PVPS8+3+3zRtFxJB2ztP28tYONxeiOftlRrYrlTKtL1R7+fbjdL89ZRIgGr8a23eL9QyUCVTrzOgklYAEOJZgNSpIIBSmk9wDReg/2QkOgOUsgFAJ80zoA2jHFs4Ue2zR/BYOQa4EmehxX0ICO037uEEpQZk8Bvn2dDiK+Uc4DcucxAUXwEySKY6u0bJZEBL4n4/C10KtQYARnm2dDFioCVxw4UTOjE4oaQRWwOgPBz+GCDUZ1/STA04X9EYQFpIgVpdxOAaWmGEuoh19la1oejjjJEoBxk84oAvuYg226GmEbTHgEJ5zpB1d5ZjgFKdr1QLjGkXMeTgWofDHwMaaTgBx7TrJCSy2snAlVwnMgMswZh2nZjNABl16xhQRlnaAa4loNaqsbCZkiFApT77klXoS67EHAANhqgrUeeIsw4BxjEeGkMtWY71oSVoade6tgjooP67Enm2QxN8QqU6e2sr45LHgCV7N6/zoOy6EoPhWiVDdT3FmG5uOHCCixhCtPVRV48BGtXavSiCNNMsUpnudgCW9gvk2b27QLX6BdosQy/jE8eATHkuu13xCa6lWa29QrX6BVqPgIZOWApKt+Fdx4AlpnvDMrRYp33FgKV7j8nYARUJ3UdFuwMocI2+MLINAKqoA2y9Esh8Dmg1AhrIfH2pD76CimJijszeEYiHbkdYBCjIM5sQLQJQFuh7SbsDIFrZF4b1fslTUwd6/66HU29a7oTS8eavugiBTNdGC3MHqDgibJG64CvZckJGEdEiF+i4j9tk6BGA+sTNOzUCoNB99Av3MYdDqCwn/CSq63olnGii4RrkM5vnLDIgdz0O0oQzTejMNj2gmuKAFAEVZxpbohr14L8O8A5jcVc00vAiJEu2hM5UlhNs1OKzQpqWQgoTTVp8o0Ji6WRA1toOIsgJUqBMLhWkTHXJ3xnGaNM4nXGpFLiGk7IUTmCYZ5z25YX2oWmUE8sSmKjBymsWGZCrQTA55lkGVwNq2r3p0cCmZdTiM4IfRkwtw67GGzedXWPrCHCTkkMLwdBbvW+KjVaHJ1RXa2jl9gpw1spJ6C4NsjjvLkMZdcsoAshBd5kB26jL4NQtY8BbK0cW580dimlv2iV0l3jyqxYZk1sGNSlaY5FzRaMhlpbI170rT+hKSzvqihZgac1xLFDTYBPHgL0P2wEMZ4Nl4Q7aoOGKDWJ7N5NiNPXSOH1ULzF4EBfykuutokHckvk0Qe4gy+i7YG4sdRmIGpwNSomDaVcDYgKShxJ3gMBZee7jAjsgQUtnG4ztbmyMElnWyO9dDYj05aVkuRpQ37Q95oTnljRS2zGHa3FilHHvl2osWdu4HbVyJU4qXCpGV8qR/mSGSSBxHG0kg5OKFme6aa+Sx6l1acsy7MrKcMydaMA06UYO5Q32S/ucZ49NePkUaZJADsPLcw78Og9SN7YzzKZLw8AwD3H0ZvzKwpG6MBy6caywDL2G45iRR+99sl3i1xlepsRXWIZ61xq3Q6uGbMuQjHN86WFIMjk+2vJIW2fb42Uyyji/+j79k+3+4/0p/Mv16en2kn7///h07ku3Z3f5+B8=);lineShape=1;" vertex="1" parent="22">
                    <mxGeometry x="55.02122655357971" y="72.0305194011342" width="23.19375996982501" height="20.73920913424329" as="geometry"/>
                </mxCell>
                <mxCell id="37" value="" style="shape=stencil(lVjbUhsxDP2avGpsy5blZ9r+BzOEkiklTKC3v6+2GW+wzJ6Ut7Do2NbRXTu+eXm4fd7vUnh5PR2/7X8d7l4fdvxpl9Lh6WF/Orzarx1/3vHN/fG0/3o6/ni6O//9fLtILr++H38uJ/w+4wLVuIBS+NM/BP734ctZ/PHw9EY8UcpOXHVbnCmVQTxSbtvi2Ysn4rQtXohlEGdicLqQjKdnanFbXCnoIG74sC3eqI7iShWIx0gaRmoicQWATGHU1r4gdaNQaSOgUskA0LpxVvoDNaCDmUdGnY3SggCFmrvBWAZPMlbzeAPH7rDvO1yi5gCFEmCJhXIaAUoC7MBm6Dq6kZkS6JC5q7gCsONloeBuqCQCAEpt9OwSKAFAsRfzCEik4Ekl+9gpFnwgTxRztVGHohQBSxKojInIviCWhHs4rgCGOoiQjpa2Lw2kl2okjjdUTGudnmRfSgEAe8BoB/uCnE8DxTGAqrkj0EEtA7u0lCiDJ6n4G7RQQADt3r8CKmXAUrM8N7KkjQTo0IzEUQc7AuXWVnwutiMUJIFmJI52aJaX0A2NtHhABIXQAC17QAbxsACaB1RAawyhP3lFNIpYCZc27EtGhjCtqwfIFV7FA64YQpIHNAzI05OuADhPTwIhZ/9OPCmN/NtYn2hl7BsxegAKuQUwuSuqigtAPSBj10gTIOInZed8tVfiLUDJEwA7n2s2FgC2g8ZJB8xSSx7AWOk2sSQA8F6M6jWa2uTfqCdeAFMWEKy1TgDUzyznzSGHI6iMvL7hYTNIdboCa/1BQOnZdwUU2D1YBUkulTG0dQtTAo+9jm0VUkeTNhikVphdOrbKi2i10u+cSTO8wZoLHZXWCHPf0r6MMVcVTk11orWWntHf7+KmJ9UEK681eW6EEO3Fe6uxTCNLYv0EAgSfXSXBG6w5diXFjghAaWu/2fXrFU411uA7X7IjKrjBRggZ48EmggQCKK+crEMK7uJy8psGm3NQ4bVBy4WoTVIKfInnuSmQgCHFhkXXbXDt+42tcdRVauZelbYGXhcPbJYGLC0LFjdSC1yZ2NDulLYjGlA6im8e7AgUotHab7d4uPKk2H1zBXBfRWysTlzA2QkRkFSn1gFaTfzipMIZK/t5RvpWamPFVUdlC2yUUu9/L0so9PboiwjDBUvos91lgYYGpdBbiYs4stM0D9soCUpm8MFiiRrUjuDXJBGmh6mTit1N/1c8gShZt6CXPSfahJl4c+Ko55oKRuibzC0zBSceITPZvx1NE8FvanBv9sGF8VVx+3HZTd8fHh/Pq+23//e7bPt03oPz578=);lineShape=1;" vertex="1" parent="22">
                    <mxGeometry x="107.40797807108947" y="36.81665038659668" width="23.486492053376082" height="9.99018993997493" as="geometry"/>
                </mxCell>
                <mxCell id="38" value="" style="group" vertex="1" connectable="0" parent="1">
                    <mxGeometry x="320" y="30" width="160" height="120" as="geometry"/>
                </mxCell>
                <mxCell id="39" value="20" style="text;html=1;align=center;verticalAlign=middle;resizable=0;points=[];autosize=1;strokeColor=none;fillColor=none;" vertex="1" parent="38">
                    <mxGeometry x="50" width="40" height="30" as="geometry"/>
                </mxCell>
                <mxCell id="40" value="20" style="text;html=1;align=center;verticalAlign=middle;resizable=0;points=[];autosize=1;strokeColor=none;fillColor=none;" vertex="1" parent="38">
                    <mxGeometry x="80" y="20" width="40" height="30" as="geometry"/>
                </mxCell>
                <mxCell id="41" value="20" style="text;html=1;align=center;verticalAlign=middle;resizable=0;points=[];autosize=1;strokeColor=none;fillColor=none;" vertex="1" parent="38">
                    <mxGeometry x="20" y="20" width="40" height="30" as="geometry"/>
                </mxCell>
                <mxCell id="42" value="20" style="text;html=1;align=center;verticalAlign=middle;resizable=0;points=[];autosize=1;strokeColor=none;fillColor=none;" vertex="1" parent="38">
                    <mxGeometry x="30" y="50" width="40" height="30" as="geometry"/>
                </mxCell>
                <mxCell id="43" value="20" style="text;html=1;align=center;verticalAlign=middle;resizable=0;points=[];autosize=1;strokeColor=none;fillColor=none;" vertex="1" parent="38">
                    <mxGeometry y="50" width="40" height="30" as="geometry"/>
                </mxCell>
                <mxCell id="44" value="20" style="text;html=1;align=center;verticalAlign=middle;resizable=0;points=[];autosize=1;strokeColor=none;fillColor=none;" vertex="1" parent="38">
                    <mxGeometry x="60" y="90" width="40" height="30" as="geometry"/>
                </mxCell>
                <mxCell id="45" value="20" style="text;html=1;align=center;verticalAlign=middle;resizable=0;points=[];autosize=1;strokeColor=none;fillColor=none;" vertex="1" parent="38">
                    <mxGeometry x="20" y="90" width="40" height="30" as="geometry"/>
                </mxCell>
                <mxCell id="46" value="20" style="text;html=1;align=center;verticalAlign=middle;resizable=0;points=[];autosize=1;strokeColor=none;fillColor=none;" vertex="1" parent="38">
                    <mxGeometry x="120" y="40" width="40" height="30" as="geometry"/>
                </mxCell>
                <mxCell id="47" value="" style="shape=stencil(lVjZbttADPwavRLc5Z7PafofAeLURt04cJwef18KwspaSpogb7I81PIYkiMN8vB+fHo7DJ7fb9fLz8Of0/PtOMi3wfvT6/FwPd30apDHQR5eLtfDj+vl4/V5+v32NCLHq1+X3+MT/k52tVLIo5Xnf9MdIT/d+D7hz6fXJT5RSB0+UnAA7yhxh68kYR9fAoXQ4V0kBwxyoWgMKlXgUXbEfQQ+Ecu+QfJUfJ8iTxUYxECuPyFwu7NpEKJNUsgwS5Ipxr4KAZZNmELpDBJT5H0DHyj1MaRIBaTVcytTM8hMAk5wibL0BoEYBO00rX0MOZNHBp5if0LhVvttA0e+r3TxzcltdjemzfhIUgC7Vw4VcqBsiWofsbYTR8A828xVqKIatN6d8ZUyxDux+Ar8YSprfEV4Q2vFF5D/mWELfAD5VI6aeAtVQAilywqP+nKNz5RgvI4tnqH/3vAhtYzt5dNbPOIbtxaf8RHWy63811HqEV5W/nvgvy4PZ/EJNTDlbPPpoT8lWHyB/tj8FDhFXav+gp8M8xlW+AjqpfNq1V8F8q32eMdKWRAAUwr2ADRQtCGzxSewNbjRcYFH257bhlgWADYArxoMiQO22mAkEG7IFUEzfH4Qi/dgYXwVH1aEYDjQI+W+IUuGBFJZYhZkhAOl2IbUhQobhq10Glc26khtsX5lqCgIyEAo9iXLAc8UHZl9zNnBJa/6MxqtpXINJFWrZqRTEhj0qDv6tMYMdYrqRTZ6cR41e4rUTPYQmnbZJpJYvahnCohBVbX0VJV5G25Tj9sonHW7QO7pm4EJ2mW4nYqKJfMq4Vt/773cmCylNv+28fM2nUNo/bSNLxavzQCYNw7PbPEgpYqXaPHIn2r1KzdBuIdP1n/B+GKfj7bHuIwsHsm5u/qcCwzl3GI73g0yIHVdNaYn9wmeDT7iAmRLoAICGAvQM1pgj335a8CneL24f3p4OZ3P05eL5f/2U4Xemj5zyON/);lineShape=1;" vertex="1" parent="38">
                    <mxGeometry x="47.14001140740129" y="18.6355871967082" width="15.321573877729975" height="7.011024764995781" as="geometry"/>
                </mxCell>
                <mxCell id="48" value="" style="shape=stencil(lZfJctswDIafxlcMwJ3nNH2PzMSpPXXtjONub1+oHkoiZP2a3GSaHxZiIbjzTx+Hl/f9zvHH7Xr5vv99fL0ddv7Lzrnj+bC/Hm/6tfPPO//0drnuv10vP8+v99/vL8PO4evH5dcg4c+dEwplgBz/vS8w+fh/4et9++l4nm0P5Gq3PZAP69sLBddtr23h4XYRqr014ikKABKF3h4plOo6oP5W3wHqQSoAKMTSAV6gD17l5R7QU0BHKlR6DSG2lcdAJQ4dED0JAGIi34chMQVeB5In1/uQMjE41lSp9kBWk9I6kBNJH4dcKAINRU+pd7p4mKlFLe416EoCJlVNjdQnq1ACyV0rxdgDmTzwQYGcLLChofapUTUdQeAGoFog+E8CJWOAe6C2nrDqdLDA1rE6CxSswWSrMG8dkynqOibwY6BQLgubkAbN5gUQMRCiBQT0mQEwgSiwk02ZMAMcCoT6YCKXWxGunpK3QMQ+2JLLrVWthlos4EAXUCDkhQZcEJkXPmANZaFhq4LKIg4gcLNsnhF5o6oXNYfa8ZTN83TFRZoWQMGR88kCFaWrWtxr2Kxq7VyLEoKR+DQgLVAjEEjQ/JNaso0Ak6BbS+y9WHQYAKHO0bYBFcHAJL2qXd9eVURCw4CzI6KKQENZjK3TjYCjDBp4KNakScRjgO24oSIEaPC+JecIMDxWl1vzHac4366AtcHSDGUqgkHJibrY+zCIAMmnwzH32aoiKii5bIdvlYBKVCc2E2d4n7BNbQ0yMJ+tdAdDzO0spu0CpZsLXeAIvWioOtODmmEbWxwpbj1helOhbs12fOENY8ygwO1OXNme7HaUlmxvM9xz9SDs85GBq2Kfj7gbfvJxurldP6Z38NvxdLo/o+f/23ezLt3f3P75Hw==);lineShape=1;" vertex="1" parent="38">
                    <mxGeometry x="78.42619803330786" y="19.035315794238073" width="12.999815115975178" height="7.566244821039969" as="geometry"/>
                </mxCell>
                <mxCell id="49" value="" style="shape=stencil(lVdJchsxDHyNriiA4Hp2nH+4ynKkiiO5ZDnL74PJ1IyHYNSJb7N0g9gB7vTu9fDwst8Ffr1ezl/3P46P18NOP+1COJ4O+8vxak87vd/p3dP5sv9yOb+dHuf3l4cJOT19O3+fJPycea1RCxMr8K/5i5DEPx8+z/jn42mLz9RSh09UK8AHUu7l25d2m1ArsfaEQiUAgsnrNQqRUrpNKIk4dgQNlPJtQs4Ueh9Focy3CSlTqr2ThEK5TYgDIQsxOEEz5d5LhWHcQqHU21AqKVBJGqXSEWqCNogs8haCxV4UqETF4RtlQfg44CvwUSAe8A24SJbT18RjhkGQxbztAaAWmHIbDIB4HeSjSjBtB/kJ6L9at8EHUAeGzx7PIGC85MuKr1RA6bMPgOFRQojvFIZH9gqlQX4E9soSza18mKDaBv1xAQz6VCi/yeB/VPO+VU/xBf4PVKPHJ6i/a1pTfkJ9wqB/g/EqQ741oL8s1v1vATPVsYCBwUxxcFCBBSyDAQnieXCQAocaPng8wwKTIUErLPiP4e2vK3ibCaBh2WR3FVwjReAgm+wupUuBk1gjcU/I5lJwQlRqfcwyw7GXdEmZddYzXD+yLr/XbcLyEEStWF/p00IFE5o/Ieiy5f09bomkr2SLjIBOVNe8XAmmEjihqU+NRAoyydbM0pvAMM7TWhocPgIDmtlXHD6AoBk+NocXZG+h6vVHrdoKKwx4ZK9NlgGP7G2+0gyP1va1Sjb2gpSbVrfs8KhzTZuPxyfkz+ZnMcNVaNP53wmotX/4HvRPvD28X7qejs/P851t+99f0uzTfMHT+98=);lineShape=1;" vertex="1" parent="38">
                    <mxGeometry x="26.989098505834136" y="42.035366839093285" width="7.0722992688250015" height="13.55274204121462" as="geometry"/>
                </mxCell>
                <mxCell id="50" value="" style="shape=stencil(lZfbbtswDIafxrcEdbKo6657jwJNl2BZUqTptr596RlKLMr+h94lMj9JPFNDeHjbP73uBs9v18v55+7P4fm6H8K3wfvDab+7HK76awiPQ3h4OV92Py7n99Pz/P/1aZKcfv06/552+DtznthPkOePeYEp5H8L32fx4+G0EI80ukY8kE/b4plKu3smBuKOSaSR1xVfABCplBbQG/ptQNWL3AKFSgDASLk9QVcCOCFE4vaEECghkzqS2AC6ktw2kNQm7QlRdQBmTULSAroy8jYwZvKt33SFgdI5kRtbR0doVvHk20ASR0UAUIhzCwiVcRsoibi9UonVDOtAodz6oQhloLQCJroVKABwzDY2dA+HlCjVKAsggtjQzzJaYIwQGJMFBGsdsgVQ9Oln44iFHdYJ6TyhR4AUUiD2SiC7ig3wyQ6g0CjAvSPwlThYwIOMWDlBYEZMOvTxipWO2QKoDNz3WwAJp1CvA7SSBlPpTkBWUjf1OuAMkg4QHK59yjHww3pWB6xEcRZALWIqTV0wZQxYVxdYmu51aAnghJA+RzGQegCVMqmtf6k08tyXgVD77A1IEJBcw//WhDS8gNLCtfjeAA/9kPVKrQ7aWgV4eky2fmurRn0x5VqGbsNAqZ5Zn080wQzAUOnIdSa8zSe+1uf1kUk/t9VYh6iEprhkJyAdLD3KUY3W1tM6CKLgc4FC6ziXcIqSM4Oog+V+JNdWmQw7nO9mxNrAVsW7CdFRADHBdrZy9XZb4u3uDBvVijiqXWzHBYaGZ2tIfcDAywS7OzZksrs70AA1MYIRZxAErm62EAe7Ozt5MRzKXX0JLcTRW8qGGNcRfSMiv/Rw/K+4/ri/UV8Ox+P8xF1+t29aXZrfw+HxEw==);lineShape=1;" vertex="1" parent="38">
                    <mxGeometry x="44.02655592652604" y="42.43521681762641" width="10.552008871051157" height="13.623085970905725" as="geometry"/>
                </mxCell>
                <mxCell id="51" value="" style="shape=stencil(lVnJctRADP2auarU6v0c4D9SRSBThIQKYft7ZKbasdT2C3ObTCRby9PTMqd48/3+9tvdSfj7y/PTl7tf548v96f47iRyfry/ez6/6KdTfH+KN5+enu8+Pz/9ePx4+fvb7SK5fPr69HN5wu+LXu/U06Il/OfyDVON/774cJF/OD9u5RtFMfJCjYF8IS5GvlAuQF4odyMfApVwrNA6lWwVMlbI1KL1gKFJLVCyIVIfGPhcCxUbo6g+JKCwurgqVOJ2rFAKVfuGJBSAD0WIq1UoMM+5UrdRyjwys6+QKNjE5UgNmKTPa9aHrHEDYU2N2EYpN2rApJSHASv2eMRtXyER20xr3GIGChp1tgqROnoDU7BhLXmga1chtkmhQvDFMixeFRol4ENM1JpV6CMz+wqRsnVa8RtAHhT93Wa6apUDeEeFmlNQLNVjBemUnEmZGJgkSmO2HrRoBaBVqi/RWimCPChHFFsPVfMAeEkUCDYPtY8w7CtMFdcwkUmkYOGt1JYBCSi3B5uHJiP3+wphUlCwAHgr9XqFRAVkOvSR11UhQ5oJyhq2HlodPLKvUEksNJrWICigoMhxJnVY09qg2NZ0Vy5EJkUqFhraJgOKktKWRWuPlJAC+zGgJzwHTC/I1EEa0qD2Vb5DYCSPC5Wv4Pmrext5RMRC1dofmCGvThy2vABwmFZC8/INyPNgxK3DwB4eANjII5pfvdvIB2gPO3tws+VBbht5NPPwgMtGPgHABT/mqbwghh9P28qjNkgi1zxf+/zkL7I/UZr8LVC+9mviP3XxJb+g4pMvgDfwk6aC76PBHcSnTnhD+BfqcwFDeVdfbxdwmgsYMAQPvtkWJAgok0wJQAzHUxPoo/H8p3yjDgvS29Pg8HutfBpw3HQANAXqXOqen+CIVv2Koz2vgXjqYODkA1xYtOWJYxSGI6AuonEaDGALEB9SHT0Qp2ufDxZzrcCiDMlXgU5DEU0SmcSWsc5bAZlUJh8Elo2OTy7POmSivOmAlp1JjBW0Du2sUvHCoqXv1jodxRsIq5KLawY67Hc0907dQ9cJ5MM8u+vCUpFJeVpYEtyhlv3DrRMRLyxt8kFGSR0tXc2FlXFLCB4apUO06qbpj0c4D7rLdveGAufe5c5iw1rSaOz7Cn3sApuNH/b9QOJOBAGfCKKHRmEYpZT98pvbWCWPDinOpFwgdecwOtnmtoPCmrPn1swDXfsK3UMjrf1iv5skP89qoBEJlDYuCOuNrcCNYjk5WB8W/IJMK6m4EVWLtqJLZPQHrdcmvK9Q/FCofB4BzSzHUTclBXjQ0jXR1wP0WXt+tGmQweZH52B3fGVYPSrvxkKGJNarhzbDLUfls5dHQ4nKO1CsY9nRuVy8v2hIXZYCuUa++zLg0euO5KM/9weUrz7bI9ieKb8RVOUygxcnDwcenvZYfJa++veNN+X1w+uPKZ/ODw+X32K2//c/vuhXlx9u4vu/);lineShape=1;" vertex="1" parent="38">
                    <mxGeometry x="42.75982184779218" y="74.2357555204988" width="7.301821586149799" height="20.3161322219745" as="geometry"/>
                </mxCell>
                <mxCell id="52" value="" style="shape=stencil(lVnbbhw3DP2afSUoURSl5zT9jwBx6kVdO3DcNvn7crrQeEXNnCBva1lnJN4PqYt8+Pb46evDJfO3t9eXPx/+vX5+e7zIb5ecr8+PD6/XN/91kY8X+fDl5fXhj9eXv58/3/7++mnbuf366+Wf7Qvfb7hELBso84/bAlNJ/y/8ftv+dH2etuu8PVPS8+3+3zRtFxJB2ztP28tYONxeiOftlRrYrlTKtL1R7+fbjdL89ZRIgGr8a23eL9QyUCVTrzOgklYAEOJZgNSpIIBSmk9wDReg/2QkOgOUsgFAJ80zoA2jHFs4Ue2zR/BYOQa4EmehxX0ICO037uEEpQZk8Bvn2dDiK+Uc4DcucxAUXwEySKY6u0bJZEBL4n4/C10KtQYARnm2dDFioCVxw4UTOjE4oaQRWwOgPBz+GCDUZ1/STA04X9EYQFpIgVpdxOAaWmGEuoh19la1oejjjJEoBxk84oAvuYg226GmEbTHgEJ5zpB1d5ZjgFKdr1QLjGkXMeTgWofDHwMaaTgBx7TrJCSy2snAlVwnMgMswZh2nZjNABl16xhQRlnaAa4loNaqsbCZkiFApT77klXoS67EHAANhqgrUeeIsw4BxjEeGkMtWY71oSVoade6tgjooP67Enm2QxN8QqU6e2sr45LHgCV7N6/zoOy6EoPhWiVDdT3FmG5uOHCCixhCtPVRV48BGtXavSiCNNMsUpnudgCW9gvk2b27QLX6BdosQy/jE8eATHkuu13xCa6lWa29QrX6BVqPgIZOWApKt+Fdx4AlpnvDMrRYp33FgKV7j8nYARUJ3UdFuwMocI2+MLINAKqoA2y9Esh8Dmg1AhrIfH2pD76CimJijszeEYiHbkdYBCjIM5sQLQJQFuh7SbsDIFrZF4b1fslTUwd6/66HU29a7oTS8eavugiBTNdGC3MHqDgibJG64CvZckJGEdEiF+i4j9tk6BGA+sTNOzUCoNB99Av3MYdDqCwn/CSq63olnGii4RrkM5vnLDIgdz0O0oQzTejMNj2gmuKAFAEVZxpbohr14L8O8A5jcVc00vAiJEu2hM5UlhNs1OKzQpqWQgoTTVp8o0Ji6WRA1toOIsgJUqBMLhWkTHXJ3xnGaNM4nXGpFLiGk7IUTmCYZ5z25YX2oWmUE8sSmKjBymsWGZCrQTA55lkGVwNq2r3p0cCmZdTiM4IfRkwtw67GGzedXWPrCHCTkkMLwdBbvW+KjVaHJ1RXa2jl9gpw1spJ6C4NsjjvLkMZdcsoAshBd5kB26jL4NQtY8BbK0cW580dimlv2iV0l3jyqxYZk1sGNSlaY5FzRaMhlpbI170rT+hKSzvqihZgac1xLFDTYBPHgL0P2wEMZ4Nl4Q7aoOGKDWJ7N5NiNPXSOH1ULzF4EBfykuutokHckvk0Qe4gy+i7YG4sdRmIGpwNSomDaVcDYgKShxJ3gMBZee7jAjsgQUtnG4ztbmyMElnWyO9dDYj05aVkuRpQ37Q95oTnljRS2zGHa3FilHHvl2osWdu4HbVyJU4qXCpGV8qR/mSGSSBxHG0kg5OKFme6aa+Sx6l1acsy7MrKcMydaMA06UYO5Q32S/ucZ49NePkUaZJADsPLcw78Og9SN7YzzKZLw8AwD3H0ZvzKwpG6MBy6caywDL2G45iRR+99sl3i1xlepsRXWIZ61xq3Q6uGbMuQjHN86WFIMjk+2vJIW2fb42Uyyji/+j79k+3+4/0p/Mv16en2kn7///h07ku3Z3f5+B8=);lineShape=1;" vertex="1" parent="38">
                    <mxGeometry x="55.02122655357971" y="72.0305194011342" width="23.19375996982501" height="20.73920913424329" as="geometry"/>
                </mxCell>
                <mxCell id="53" value="" style="shape=stencil(lVjbUhsxDP2avGpsy5blZ9r+BzOEkiklTKC3v6+2GW+wzJ6Ut7Do2NbRXTu+eXm4fd7vUnh5PR2/7X8d7l4fdvxpl9Lh6WF/Orzarx1/3vHN/fG0/3o6/ni6O//9fLtILr++H38uJ/w+4wLVuIBS+NM/BP734ctZ/PHw9EY8UcpOXHVbnCmVQTxSbtvi2Ysn4rQtXohlEGdicLqQjKdnanFbXCnoIG74sC3eqI7iShWIx0gaRmoicQWATGHU1r4gdaNQaSOgUskA0LpxVvoDNaCDmUdGnY3SggCFmrvBWAZPMlbzeAPH7rDvO1yi5gCFEmCJhXIaAUoC7MBm6Dq6kZkS6JC5q7gCsONloeBuqCQCAEpt9OwSKAFAsRfzCEik4Ekl+9gpFnwgTxRztVGHohQBSxKojInIviCWhHs4rgCGOoiQjpa2Lw2kl2okjjdUTGudnmRfSgEAe8BoB/uCnE8DxTGAqrkj0EEtA7u0lCiDJ6n4G7RQQADt3r8CKmXAUrM8N7KkjQTo0IzEUQc7AuXWVnwutiMUJIFmJI52aJaX0A2NtHhABIXQAC17QAbxsACaB1RAawyhP3lFNIpYCZc27EtGhjCtqwfIFV7FA64YQpIHNAzI05OuADhPTwIhZ/9OPCmN/NtYn2hl7BsxegAKuQUwuSuqigtAPSBj10gTIOInZed8tVfiLUDJEwA7n2s2FgC2g8ZJB8xSSx7AWOk2sSQA8F6M6jWa2uTfqCdeAFMWEKy1TgDUzyznzSGHI6iMvL7hYTNIdboCa/1BQOnZdwUU2D1YBUkulTG0dQtTAo+9jm0VUkeTNhikVphdOrbKi2i10u+cSTO8wZoLHZXWCHPf0r6MMVcVTk11orWWntHf7+KmJ9UEK681eW6EEO3Fe6uxTCNLYv0EAgSfXSXBG6w5diXFjghAaWu/2fXrFU411uA7X7IjKrjBRggZ48EmggQCKK+crEMK7uJy8psGm3NQ4bVBy4WoTVIKfInnuSmQgCHFhkXXbXDt+42tcdRVauZelbYGXhcPbJYGLC0LFjdSC1yZ2NDulLYjGlA6im8e7AgUotHab7d4uPKk2H1zBXBfRWysTlzA2QkRkFSn1gFaTfzipMIZK/t5RvpWamPFVUdlC2yUUu9/L0so9PboiwjDBUvos91lgYYGpdBbiYs4stM0D9soCUpm8MFiiRrUjuDXJBGmh6mTit1N/1c8gShZt6CXPSfahJl4c+Ko55oKRuibzC0zBSceITPZvx1NE8FvanBv9sGF8VVx+3HZTd8fHh/Pq+23//e7bPt03oPz578=);lineShape=1;" vertex="1" parent="38">
                    <mxGeometry x="107.40797807108947" y="36.81665038659668" width="23.486492053376082" height="9.99018993997493" as="geometry"/>
                </mxCell>
                <mxCell id="54" value="" style="group" vertex="1" connectable="0" parent="1">
                    <mxGeometry x="480" y="30" width="160" height="120" as="geometry"/>
                </mxCell>
                <mxCell id="55" value="20" style="text;html=1;align=center;verticalAlign=middle;resizable=0;points=[];autosize=1;strokeColor=none;fillColor=none;" vertex="1" parent="54">
                    <mxGeometry x="50" width="40" height="30" as="geometry"/>
                </mxCell>
                <mxCell id="56" value="20" style="text;html=1;align=center;verticalAlign=middle;resizable=0;points=[];autosize=1;strokeColor=none;fillColor=none;" vertex="1" parent="54">
                    <mxGeometry x="80" y="20" width="40" height="30" as="geometry"/>
                </mxCell>
                <mxCell id="57" value="20" style="text;html=1;align=center;verticalAlign=middle;resizable=0;points=[];autosize=1;strokeColor=none;fillColor=none;" vertex="1" parent="54">
                    <mxGeometry x="20" y="20" width="40" height="30" as="geometry"/>
                </mxCell>
                <mxCell id="58" value="20" style="text;html=1;align=center;verticalAlign=middle;resizable=0;points=[];autosize=1;strokeColor=none;fillColor=none;" vertex="1" parent="54">
                    <mxGeometry x="30" y="50" width="40" height="30" as="geometry"/>
                </mxCell>
                <mxCell id="59" value="20" style="text;html=1;align=center;verticalAlign=middle;resizable=0;points=[];autosize=1;strokeColor=none;fillColor=none;" vertex="1" parent="54">
                    <mxGeometry y="50" width="40" height="30" as="geometry"/>
                </mxCell>
                <mxCell id="60" value="20" style="text;html=1;align=center;verticalAlign=middle;resizable=0;points=[];autosize=1;strokeColor=none;fillColor=none;" vertex="1" parent="54">
                    <mxGeometry x="60" y="90" width="40" height="30" as="geometry"/>
                </mxCell>
                <mxCell id="61" value="20" style="text;html=1;align=center;verticalAlign=middle;resizable=0;points=[];autosize=1;strokeColor=none;fillColor=none;" vertex="1" parent="54">
                    <mxGeometry x="20" y="90" width="40" height="30" as="geometry"/>
                </mxCell>
                <mxCell id="62" value="20" style="text;html=1;align=center;verticalAlign=middle;resizable=0;points=[];autosize=1;strokeColor=none;fillColor=none;" vertex="1" parent="54">
                    <mxGeometry x="120" y="40" width="40" height="30" as="geometry"/>
                </mxCell>
                <mxCell id="63" value="" style="shape=stencil(lVjZbttADPwavRLc5Z7PafofAeLURt04cJwef18KwspaSpogb7I81PIYkiMN8vB+fHo7DJ7fb9fLz8Of0/PtOMi3wfvT6/FwPd30apDHQR5eLtfDj+vl4/V5+v32NCLHq1+X3+MT/k52tVLIo5Xnf9MdIT/d+D7hz6fXJT5RSB0+UnAA7yhxh68kYR9fAoXQ4V0kBwxyoWgMKlXgUXbEfQQ+Ecu+QfJUfJ8iTxUYxECuPyFwu7NpEKJNUsgwS5Ipxr4KAZZNmELpDBJT5H0DHyj1MaRIBaTVcytTM8hMAk5wibL0BoEYBO00rX0MOZNHBp5if0LhVvttA0e+r3TxzcltdjemzfhIUgC7Vw4VcqBsiWofsbYTR8A828xVqKIatN6d8ZUyxDux+Ar8YSprfEV4Q2vFF5D/mWELfAD5VI6aeAtVQAilywqP+nKNz5RgvI4tnqH/3vAhtYzt5dNbPOIbtxaf8RHWy63811HqEV5W/nvgvy4PZ/EJNTDlbPPpoT8lWHyB/tj8FDhFXav+gp8M8xlW+AjqpfNq1V8F8q32eMdKWRAAUwr2ADRQtCGzxSewNbjRcYFH257bhlgWADYArxoMiQO22mAkEG7IFUEzfH4Qi/dgYXwVH1aEYDjQI+W+IUuGBFJZYhZkhAOl2IbUhQobhq10Glc26khtsX5lqCgIyEAo9iXLAc8UHZl9zNnBJa/6MxqtpXINJFWrZqRTEhj0qDv6tMYMdYrqRTZ6cR41e4rUTPYQmnbZJpJYvahnCohBVbX0VJV5G25Tj9sonHW7QO7pm4EJ2mW4nYqKJfMq4Vt/773cmCylNv+28fM2nUNo/bSNLxavzQCYNw7PbPEgpYqXaPHIn2r1KzdBuIdP1n/B+GKfj7bHuIwsHsm5u/qcCwzl3GI73g0yIHVdNaYn9wmeDT7iAmRLoAICGAvQM1pgj335a8CneL24f3p4OZ3P05eL5f/2U4Xemj5zyON/);lineShape=1;" vertex="1" parent="54">
                    <mxGeometry x="47.14001140740129" y="18.6355871967082" width="15.321573877729975" height="7.011024764995781" as="geometry"/>
                </mxCell>
                <mxCell id="64" value="" style="shape=stencil(lZfJctswDIafxlcMwJ3nNH2PzMSpPXXtjONub1+oHkoiZP2a3GSaHxZiIbjzTx+Hl/f9zvHH7Xr5vv99fL0ddv7Lzrnj+bC/Hm/6tfPPO//0drnuv10vP8+v99/vL8PO4evH5dcg4c+dEwplgBz/vS8w+fh/4et9++l4nm0P5Gq3PZAP69sLBddtr23h4XYRqr014ikKABKF3h4plOo6oP5W3wHqQSoAKMTSAV6gD17l5R7QU0BHKlR6DSG2lcdAJQ4dED0JAGIi34chMQVeB5In1/uQMjE41lSp9kBWk9I6kBNJH4dcKAINRU+pd7p4mKlFLe416EoCJlVNjdQnq1ACyV0rxdgDmTzwQYGcLLChofapUTUdQeAGoFog+E8CJWOAe6C2nrDqdLDA1rE6CxSswWSrMG8dkynqOibwY6BQLgubkAbN5gUQMRCiBQT0mQEwgSiwk02ZMAMcCoT6YCKXWxGunpK3QMQ+2JLLrVWthlos4EAXUCDkhQZcEJkXPmANZaFhq4LKIg4gcLNsnhF5o6oXNYfa8ZTN83TFRZoWQMGR88kCFaWrWtxr2Kxq7VyLEoKR+DQgLVAjEEjQ/JNaso0Ak6BbS+y9WHQYAKHO0bYBFcHAJL2qXd9eVURCw4CzI6KKQENZjK3TjYCjDBp4KNakScRjgO24oSIEaPC+JecIMDxWl1vzHac4366AtcHSDGUqgkHJibrY+zCIAMmnwzH32aoiKii5bIdvlYBKVCc2E2d4n7BNbQ0yMJ+tdAdDzO0spu0CpZsLXeAIvWioOtODmmEbWxwpbj1helOhbs12fOENY8ygwO1OXNme7HaUlmxvM9xz9SDs85GBq2Kfj7gbfvJxurldP6Z38NvxdLo/o+f/23ezLt3f3P75Hw==);lineShape=1;" vertex="1" parent="54">
                    <mxGeometry x="78.42619803330786" y="19.035315794238073" width="12.999815115975178" height="7.566244821039969" as="geometry"/>
                </mxCell>
                <mxCell id="65" value="" style="shape=stencil(lVdJchsxDHyNriiA4Hp2nH+4ynKkiiO5ZDnL74PJ1IyHYNSJb7N0g9gB7vTu9fDwst8Ffr1ezl/3P46P18NOP+1COJ4O+8vxak87vd/p3dP5sv9yOb+dHuf3l4cJOT19O3+fJPycea1RCxMr8K/5i5DEPx8+z/jn42mLz9RSh09UK8AHUu7l25d2m1ArsfaEQiUAgsnrNQqRUrpNKIk4dgQNlPJtQs4Ueh9Focy3CSlTqr2ThEK5TYgDIQsxOEEz5d5LhWHcQqHU21AqKVBJGqXSEWqCNogs8haCxV4UqETF4RtlQfg44CvwUSAe8A24SJbT18RjhkGQxbztAaAWmHIbDIB4HeSjSjBtB/kJ6L9at8EHUAeGzx7PIGC85MuKr1RA6bMPgOFRQojvFIZH9gqlQX4E9soSza18mKDaBv1xAQz6VCi/yeB/VPO+VU/xBf4PVKPHJ6i/a1pTfkJ9wqB/g/EqQ741oL8s1v1vATPVsYCBwUxxcFCBBSyDAQnieXCQAocaPng8wwKTIUErLPiP4e2vK3ibCaBh2WR3FVwjReAgm+wupUuBk1gjcU/I5lJwQlRqfcwyw7GXdEmZddYzXD+yLr/XbcLyEEStWF/p00IFE5o/Ieiy5f09bomkr2SLjIBOVNe8XAmmEjihqU+NRAoyydbM0pvAMM7TWhocPgIDmtlXHD6AoBk+NocXZG+h6vVHrdoKKwx4ZK9NlgGP7G2+0gyP1va1Sjb2gpSbVrfs8KhzTZuPxyfkz+ZnMcNVaNP53wmotX/4HvRPvD28X7qejs/P851t+99f0uzTfMHT+98=);lineShape=1;" vertex="1" parent="54">
                    <mxGeometry x="26.989098505834136" y="42.035366839093285" width="7.0722992688250015" height="13.55274204121462" as="geometry"/>
                </mxCell>
                <mxCell id="66" value="" style="shape=stencil(lZfbbtswDIafxrcEdbKo6657jwJNl2BZUqTptr596RlKLMr+h94lMj9JPFNDeHjbP73uBs9v18v55+7P4fm6H8K3wfvDab+7HK76awiPQ3h4OV92Py7n99Pz/P/1aZKcfv06/552+DtznthPkOePeYEp5H8L32fx4+G0EI80ukY8kE/b4plKu3smBuKOSaSR1xVfABCplBbQG/ptQNWL3AKFSgDASLk9QVcCOCFE4vaEECghkzqS2AC6ktw2kNQm7QlRdQBmTULSAroy8jYwZvKt33SFgdI5kRtbR0doVvHk20ASR0UAUIhzCwiVcRsoibi9UonVDOtAodz6oQhloLQCJroVKABwzDY2dA+HlCjVKAsggtjQzzJaYIwQGJMFBGsdsgVQ9Oln44iFHdYJ6TyhR4AUUiD2SiC7ig3wyQ6g0CjAvSPwlThYwIOMWDlBYEZMOvTxipWO2QKoDNz3WwAJp1CvA7SSBlPpTkBWUjf1OuAMkg4QHK59yjHww3pWB6xEcRZALWIqTV0wZQxYVxdYmu51aAnghJA+RzGQegCVMqmtf6k08tyXgVD77A1IEJBcw//WhDS8gNLCtfjeAA/9kPVKrQ7aWgV4eky2fmurRn0x5VqGbsNAqZ5Zn080wQzAUOnIdSa8zSe+1uf1kUk/t9VYh6iEprhkJyAdLD3KUY3W1tM6CKLgc4FC6ziXcIqSM4Oog+V+JNdWmQw7nO9mxNrAVsW7CdFRADHBdrZy9XZb4u3uDBvVijiqXWzHBYaGZ2tIfcDAywS7OzZksrs70AA1MYIRZxAErm62EAe7Ozt5MRzKXX0JLcTRW8qGGNcRfSMiv/Rw/K+4/ri/UV8Ox+P8xF1+t29aXZrfw+HxEw==);lineShape=1;" vertex="1" parent="54">
                    <mxGeometry x="44.02655592652604" y="42.43521681762641" width="10.552008871051157" height="13.623085970905725" as="geometry"/>
                </mxCell>
                <mxCell id="67" value="" style="shape=stencil(lVnJctRADP2auarU6v0c4D9SRSBThIQKYft7ZKbasdT2C3ObTCRby9PTMqd48/3+9tvdSfj7y/PTl7tf548v96f47iRyfry/ez6/6KdTfH+KN5+enu8+Pz/9ePx4+fvb7SK5fPr69HN5wu+LXu/U06Il/OfyDVON/774cJF/OD9u5RtFMfJCjYF8IS5GvlAuQF4odyMfApVwrNA6lWwVMlbI1KL1gKFJLVCyIVIfGPhcCxUbo6g+JKCwurgqVOJ2rFAKVfuGJBSAD0WIq1UoMM+5UrdRyjwys6+QKNjE5UgNmKTPa9aHrHEDYU2N2EYpN2rApJSHASv2eMRtXyER20xr3GIGChp1tgqROnoDU7BhLXmga1chtkmhQvDFMixeFRol4ENM1JpV6CMz+wqRsnVa8RtAHhT93Wa6apUDeEeFmlNQLNVjBemUnEmZGJgkSmO2HrRoBaBVqi/RWimCPChHFFsPVfMAeEkUCDYPtY8w7CtMFdcwkUmkYOGt1JYBCSi3B5uHJiP3+wphUlCwAHgr9XqFRAVkOvSR11UhQ5oJyhq2HlodPLKvUEksNJrWICigoMhxJnVY09qg2NZ0Vy5EJkUqFhraJgOKktKWRWuPlJAC+zGgJzwHTC/I1EEa0qD2Vb5DYCSPC5Wv4Pmrext5RMRC1dofmCGvThy2vABwmFZC8/INyPNgxK3DwB4eANjII5pfvdvIB2gPO3tws+VBbht5NPPwgMtGPgHABT/mqbwghh9P28qjNkgi1zxf+/zkL7I/UZr8LVC+9mviP3XxJb+g4pMvgDfwk6aC76PBHcSnTnhD+BfqcwFDeVdfbxdwmgsYMAQPvtkWJAgok0wJQAzHUxPoo/H8p3yjDgvS29Pg8HutfBpw3HQANAXqXOqen+CIVv2Koz2vgXjqYODkA1xYtOWJYxSGI6AuonEaDGALEB9SHT0Qp2ufDxZzrcCiDMlXgU5DEU0SmcSWsc5bAZlUJh8Elo2OTy7POmSivOmAlp1JjBW0Du2sUvHCoqXv1jodxRsIq5KLawY67Hc0907dQ9cJ5MM8u+vCUpFJeVpYEtyhlv3DrRMRLyxt8kFGSR0tXc2FlXFLCB4apUO06qbpj0c4D7rLdveGAufe5c5iw1rSaOz7Cn3sApuNH/b9QOJOBAGfCKKHRmEYpZT98pvbWCWPDinOpFwgdecwOtnmtoPCmrPn1swDXfsK3UMjrf1iv5skP89qoBEJlDYuCOuNrcCNYjk5WB8W/IJMK6m4EVWLtqJLZPQHrdcmvK9Q/FCofB4BzSzHUTclBXjQ0jXR1wP0WXt+tGmQweZH52B3fGVYPSrvxkKGJNarhzbDLUfls5dHQ4nKO1CsY9nRuVy8v2hIXZYCuUa++zLg0euO5KM/9weUrz7bI9ieKb8RVOUygxcnDwcenvZYfJa++veNN+X1w+uPKZ/ODw+X32K2//c/vuhXlx9u4vu/);lineShape=1;" vertex="1" parent="54">
                    <mxGeometry x="42.75982184779218" y="74.2357555204988" width="7.301821586149799" height="20.3161322219745" as="geometry"/>
                </mxCell>
                <mxCell id="68" value="" style="shape=stencil(lVnbbhw3DP2afSUoURSl5zT9jwBx6kVdO3DcNvn7crrQeEXNnCBva1lnJN4PqYt8+Pb46evDJfO3t9eXPx/+vX5+e7zIb5ecr8+PD6/XN/91kY8X+fDl5fXhj9eXv58/3/7++mnbuf366+Wf7Qvfb7hELBso84/bAlNJ/y/8ftv+dH2etuu8PVPS8+3+3zRtFxJB2ztP28tYONxeiOftlRrYrlTKtL1R7+fbjdL89ZRIgGr8a23eL9QyUCVTrzOgklYAEOJZgNSpIIBSmk9wDReg/2QkOgOUsgFAJ80zoA2jHFs4Ue2zR/BYOQa4EmehxX0ICO037uEEpQZk8Bvn2dDiK+Uc4DcucxAUXwEySKY6u0bJZEBL4n4/C10KtQYARnm2dDFioCVxw4UTOjE4oaQRWwOgPBz+GCDUZ1/STA04X9EYQFpIgVpdxOAaWmGEuoh19la1oejjjJEoBxk84oAvuYg226GmEbTHgEJ5zpB1d5ZjgFKdr1QLjGkXMeTgWofDHwMaaTgBx7TrJCSy2snAlVwnMgMswZh2nZjNABl16xhQRlnaAa4loNaqsbCZkiFApT77klXoS67EHAANhqgrUeeIsw4BxjEeGkMtWY71oSVoade6tgjooP67Enm2QxN8QqU6e2sr45LHgCV7N6/zoOy6EoPhWiVDdT3FmG5uOHCCixhCtPVRV48BGtXavSiCNNMsUpnudgCW9gvk2b27QLX6BdosQy/jE8eATHkuu13xCa6lWa29QrX6BVqPgIZOWApKt+Fdx4AlpnvDMrRYp33FgKV7j8nYARUJ3UdFuwMocI2+MLINAKqoA2y9Esh8Dmg1AhrIfH2pD76CimJijszeEYiHbkdYBCjIM5sQLQJQFuh7SbsDIFrZF4b1fslTUwd6/66HU29a7oTS8eavugiBTNdGC3MHqDgibJG64CvZckJGEdEiF+i4j9tk6BGA+sTNOzUCoNB99Av3MYdDqCwn/CSq63olnGii4RrkM5vnLDIgdz0O0oQzTejMNj2gmuKAFAEVZxpbohr14L8O8A5jcVc00vAiJEu2hM5UlhNs1OKzQpqWQgoTTVp8o0Ji6WRA1toOIsgJUqBMLhWkTHXJ3xnGaNM4nXGpFLiGk7IUTmCYZ5z25YX2oWmUE8sSmKjBymsWGZCrQTA55lkGVwNq2r3p0cCmZdTiM4IfRkwtw67GGzedXWPrCHCTkkMLwdBbvW+KjVaHJ1RXa2jl9gpw1spJ6C4NsjjvLkMZdcsoAshBd5kB26jL4NQtY8BbK0cW580dimlv2iV0l3jyqxYZk1sGNSlaY5FzRaMhlpbI170rT+hKSzvqihZgac1xLFDTYBPHgL0P2wEMZ4Nl4Q7aoOGKDWJ7N5NiNPXSOH1ULzF4EBfykuutokHckvk0Qe4gy+i7YG4sdRmIGpwNSomDaVcDYgKShxJ3gMBZee7jAjsgQUtnG4ztbmyMElnWyO9dDYj05aVkuRpQ37Q95oTnljRS2zGHa3FilHHvl2osWdu4HbVyJU4qXCpGV8qR/mSGSSBxHG0kg5OKFme6aa+Sx6l1acsy7MrKcMydaMA06UYO5Q32S/ucZ49NePkUaZJADsPLcw78Og9SN7YzzKZLw8AwD3H0ZvzKwpG6MBy6caywDL2G45iRR+99sl3i1xlepsRXWIZ61xq3Q6uGbMuQjHN86WFIMjk+2vJIW2fb42Uyyji/+j79k+3+4/0p/Mv16en2kn7///h07ku3Z3f5+B8=);lineShape=1;" vertex="1" parent="54">
                    <mxGeometry x="55.02122655357971" y="72.0305194011342" width="23.19375996982501" height="20.73920913424329" as="geometry"/>
                </mxCell>
                <mxCell id="69" value="" style="shape=stencil(lVjbUhsxDP2avGpsy5blZ9r+BzOEkiklTKC3v6+2GW+wzJ6Ut7Do2NbRXTu+eXm4fd7vUnh5PR2/7X8d7l4fdvxpl9Lh6WF/Orzarx1/3vHN/fG0/3o6/ni6O//9fLtILr++H38uJ/w+4wLVuIBS+NM/BP734ctZ/PHw9EY8UcpOXHVbnCmVQTxSbtvi2Ysn4rQtXohlEGdicLqQjKdnanFbXCnoIG74sC3eqI7iShWIx0gaRmoicQWATGHU1r4gdaNQaSOgUskA0LpxVvoDNaCDmUdGnY3SggCFmrvBWAZPMlbzeAPH7rDvO1yi5gCFEmCJhXIaAUoC7MBm6Dq6kZkS6JC5q7gCsONloeBuqCQCAEpt9OwSKAFAsRfzCEik4Ekl+9gpFnwgTxRztVGHohQBSxKojInIviCWhHs4rgCGOoiQjpa2Lw2kl2okjjdUTGudnmRfSgEAe8BoB/uCnE8DxTGAqrkj0EEtA7u0lCiDJ6n4G7RQQADt3r8CKmXAUrM8N7KkjQTo0IzEUQc7AuXWVnwutiMUJIFmJI52aJaX0A2NtHhABIXQAC17QAbxsACaB1RAawyhP3lFNIpYCZc27EtGhjCtqwfIFV7FA64YQpIHNAzI05OuADhPTwIhZ/9OPCmN/NtYn2hl7BsxegAKuQUwuSuqigtAPSBj10gTIOInZed8tVfiLUDJEwA7n2s2FgC2g8ZJB8xSSx7AWOk2sSQA8F6M6jWa2uTfqCdeAFMWEKy1TgDUzyznzSGHI6iMvL7hYTNIdboCa/1BQOnZdwUU2D1YBUkulTG0dQtTAo+9jm0VUkeTNhikVphdOrbKi2i10u+cSTO8wZoLHZXWCHPf0r6MMVcVTk11orWWntHf7+KmJ9UEK681eW6EEO3Fe6uxTCNLYv0EAgSfXSXBG6w5diXFjghAaWu/2fXrFU411uA7X7IjKrjBRggZ48EmggQCKK+crEMK7uJy8psGm3NQ4bVBy4WoTVIKfInnuSmQgCHFhkXXbXDt+42tcdRVauZelbYGXhcPbJYGLC0LFjdSC1yZ2NDulLYjGlA6im8e7AgUotHab7d4uPKk2H1zBXBfRWysTlzA2QkRkFSn1gFaTfzipMIZK/t5RvpWamPFVUdlC2yUUu9/L0so9PboiwjDBUvos91lgYYGpdBbiYs4stM0D9soCUpm8MFiiRrUjuDXJBGmh6mTit1N/1c8gShZt6CXPSfahJl4c+Ko55oKRuibzC0zBSceITPZvx1NE8FvanBv9sGF8VVx+3HZTd8fHh/Pq+23//e7bPt03oPz578=);lineShape=1;" vertex="1" parent="54">
                    <mxGeometry x="107.40797807108947" y="36.81665038659668" width="23.486492053376082" height="9.99018993997493" as="geometry"/>
                </mxCell>
                <mxCell id="70" value="" style="shape=stencil(rZ3bjh3HDUW/Rq+Nul+eHec/DFiOhCiSIcu5/H1YEarPnM0+q20gb7KH7KkrublJ1rzLP/z24adf379L4bdvX7/8/f2/Pv787cO7/Jd3KX38/OH914/f7F/v8o/v8g+/fPn6/m9fv/z++efv//3rT0ty/esfX/65vvDv73ptHmUsrRT+8/3/1KOn//2Pv36X//Tx81v5fgyVrxXk2zGjyJcO8vUYTeQzjaccQ78fC8jnoz9/vxyTxp/2cjzkO8nHo3WRx/UJR9Pvl/havs4jDZFPJN+PHp7k896Qa/l6zC7ytYF8OWIS+ThBPu3t2fLpGLBfZR6ziXyB81DcfNMRAsifx3HLR5xvyUcJIk/zLXFv/5YPxxyv5fM8Rld5uC95HKnKeAKMJzddn7gP1LW8XT/9Pq1PLnu5H/IT9ivb/dLzkGm+9uuHyOP3g+5X3gbvUj7NIz7P1yaUQb7rfSm4Pqlt8/HGXoF9WOY1iHyn75dtLrd8OzLNN+3juOX7EWA9bTtbFPkG99eOr5zPgfY8zr3cW37ieKL5oyryHcYT3fpHOyGwwbHu+Z0KduNhRaMdgKkKdOVj1iWNCX2M/Vh8jH2igpGzAYznRbVBJlolMzpTFSYrJBmSrRsMaW6recq3Y4DdslMjZsUMH2ybOxaRz1F3Zn2iX7JbImYrHB38ajuamC27SDDfptfYLip/X8eTUb7un57yhmvIbx/leT1v7FA90vP+rhUAu16PIOtjdgXuQFGYaCcE/fbRnm+AncBCuGOjsNNthH0Cr/2MwhRzVJP88FHl+7ZfcJ7zkeX7ZVuNF/JJYJk5EvKT+3ac8o392D4tp3zH8aT9tVN+HA2/r2573siLmykBbWhS2FpOG/lCXmBNSWivooZJBhwpznAWupR9ol7Jy3jMAuD3Zb8MKBNuNXkZv1lgcpNHFxg02a2qfA3swnQ8lXGol0870PqD8vlGXtbfAiG6Xyb/fN5q2yf2lfyzPa8D45greXTYTn7eyT+fn8ZxTFRYbIF0hPG7+2iBegJ/kdQeNrPYaB/as31odQdCf8weLiID7WeR9bH9gvGX/dNTfmIcX9Rf94BxW91R8ikfmUc50vN57ml7/BfyGjZkPP9d71cvO5B7gfckzOsV7/tUf9Eb4s8FWEWhHxU2LAY90X0gs2OgWyLtPrfTfwXr8/NvGAHPhKF+AU2mgE4mq5cZEb2qj2VGQhhkqD8PVZjkB5oGAiPzsnY36YIRtAUKoalCJ9M19W6OipycQf/4vNPjhOOvgmivQNHAgh8SRXe8zst+FVUg+74M0rOBGWPv/SuF+WxhxsSIbAUMQxU6mfim1Os0DE5D6htCv1EgEG5WRu70jIyqg7Ll0+4DLGs2v/a8rDOjH7QwYAZVGEzQKQFSkJExoC5GYDIlvyhJ+Q2MXYoDd6ZAdqm4aGh2NAKl6p2eA8N7Q8elqALxjAaPhWMxBQKEho91WQdGyIvZjk4BNs4Qsty4NSQ4S9WBsDVpCtqTRrE3y1rPoObtxhGNUNWQmQLx1QaTozt8lVapH0nmUPeVulYYCt1MIZHCdPtQkFNuUcmcmfFoGFYeToFWaYFfOXwJwylDs0qzRlyl1pU3NYVMANEhMjPGgxBicIcvbBLpWiHtiPStQ4EhGUSVO71cFuyDYVTFSwOjBgOpEvaPE31cKzS1reanCWv07hBZ40kPZeJuwImhVKE6RsWdNgXx06Mg92igU7D34KSMYUgFJwmzmPZjxRoJ6QsbgLD8N8jYplgdWCesMTwyDjwkZ/lW/AD7MJoaY9t74lyHu9N2uij5P4ayeJ1ZXbtfQtuvMI5W6WQh3sSJBRTMRlRRyHinzWyl5zttkTFFKMswym8I6IGW6XWxfYRlnVljoNZxWZf7EIWGkaI5KDl85jEIa5iC8jcZA45ZNc/dOPE7myKBFjjCb5qCWLUQ/BuUc+s7a3CtcEKRNyQdcQKmIKxzrZhtNYUi1S2Fj0bXvJFhtEF5NYfuDQWSbZ0ugW04M9J9GLpKD+j7SkHMfWF0v1Dqs7k3+E5koCkI27UCBFqloftgIQjFoktB+O2E/NWFQkSC8mJIgW+cU7BALZIR8Ap9F5u8VJAkVUOSb23c832w6JSwhj8aFv/isnb1cRZhE886XRxnMTzOoWuBVZpYATIdhFupS3JZbVMGp0JDEsFsq/Aaj3TpKwVhr1PmK1rUkCWOH8wDyVladUR0+JIWOaTAyxq1UC8OvqJBUxSx404vrOFqEKi2zBSilFHUHeS8wkvZ1V3gb+iuFCQjITWam3RCHzcc0W8KFOKPM298KkRk4YZjEuMN0E2O/WHoHRzTgpx0vygpItzQu8KxG/mq95mJUEO0f04+O/qA5YNuAKeWDJ12lY9UojsViE008iuzpSVgVFrzQMsPeaK5TF4ACaeqmyvx4xjd5AWOdDSmJl8lwsBSFpMf+n2CR7a/0clTQO9KILlUw+QlFu7IVvWgOLtjarg7HnNgMdqVPOXR/HiYiPXzHXfjV2YLAbPfr9v7ONx9JPLPnbfJZKE7zwPJlKv70ojuvLiP5PSu7jsl9Lw96UxdOnvVkcRrjs/qiEm9ve17Q/4/8s7+dz7/zr/cyDv/dSPfXeqcxz8128mZdvPvcn7YXo2o/pr31/CGk6fzM/IRJYGM+YGVjxZqkMfv0PrEFhaTH4ofqHRwNFcuHJBjHo6liAzuF8ktNdLcdTGGVv0v2Eq/YbohZQ6ygiswLsypRTcH7oRavKAMiUuYZ9KaVYtoIlEC5xRPhYnQexbXHBEwF2yBYpYy3YiZWotd5WyvSlMOdsV5Jy5cXQlEiSwrVkIuPsqVDlOW0xQkorkBCHMoA3xTDDyn5lxyZKZlalYnZyy/MgWtv+V60emSlrkhHxVD0DzQDV10pcGM1IVG4VhxTUPqUiMWL0zXP1YSNya4hSoZ85bTdWyVyjzcVONXuEfHFLRHsGOEbArFUbRU/WMKUk5ZA5Z4zKlZlBqxPMIUpGKj5juKVonscseHNinJ5dbUxVYKt97QCc2hhWF1oKe+YO8nQiWfUFhltkw+ClZtnOhcBvz58K2OWFrWqva4VU5ZFKXVGpdizqLsfRsYwKyKKJnD5DxNvsj5UbW8T+Gtcli6oj5JmPksRaUGOzcuG6ARFNcb02quvqgzrh8epw9ED4bipOmr3zB3XauwDOvT0TDoKllFA/s4h7oHcCokJBcetaBvFKjezqIBYVxXwSqFM9nVbhbk10bUGze4IMkWUe60rRshINsmSezYzpAx7s62rtoB4myc5bPDQhdoFRK4Yh4yM3Zd9CxNzIxaWCyrtMpJYR+6r8IKeKd7VDS9bjkznfobGCeaYYyu/pTabFrT8ojJbrcVV4WV0Qg0lwlaySQakqtlXh6DhuQsn/kkIlTNyYptXSk3KjIcjqHrCOGqi2pW3p1qBqtivoU+aEhFM0ELEFHDR9aE8wJ1tEpJa3MWzqQhRQ205kTisEyXnHoA/muNoUh3cluSAeHsZk1wZrXJTbdM9IBD0SB8hYP8QoRWrA5uNY2KQ9dhogru6ao9OxIJ2a8SZzpzdRQ3XzkLV9X08bsq6x2HoApUt5U8K565QcHVFpitxBaIpj19k5tdUtUOn8lFg6tr2SlQ6mml7V1NLPECq+9DPDv3safkml04O5GigzMD8U9y6Y+bVpQ4Hd/KzS6LRnu2GjftNBc9RDfds831EHFLUHQNCgtoUh+Uq8BYeXR+NULxT8ZihJjUthrSpTxOdD2ig2vE18MYDq1TZmzx0DKkG2LNdUGyjxsaihqQxYINZTd7R3lnVzszOS6cWbkXfEVBCn8MxCb4vuvJ6vwak3u8qXM1VXaZIm44TBqNPXKbL+TFejVuQouKeVq/6VIXjv/RB3EpH9TAr7JZ2K+gXrBlZCddksLAcQJLF9RutYhGwtGrN13eXp55wyt5wndBM103XfBB9+umyz5ckIzESnp5fiUgOAKQXyHw8vzKgZO/eUXBy3Ppi5fvSEV4+YbFYu58GnqmlJgjLkrGV2jcY1IloVcNap8LAzTX3lkCYpugQVq+2y8hm/JAgsA9w7SQPL4CIfYkc+F01PVZz73h9/XVmnJjb5tLa5G/PjsxTnmmN/wrMQFpqaTtWatUhqIUha43qX/nHxP7o6x4wBAC4Y2sDTvrdUx+ZeLZ3q7n4fCVJCFO1oxg/P5VpYTcT9HsXeK31KqmpRL3JlSNr+JNKZR7tWxgENq0sdkiCTqf3b1a1rgURPGwxRHY+KCAO7J/dN1V60UIfvRCJ5z5SYqovK+FHZhmdg+zrHczYAqr7kOqKG4evShuDgGZZVtzWaXJRq67WI8f1RjaYdD5iYzpuu4Q1CfXSNv4yUtHBFamDLIWK1QErck90VuYuGmKIjI+gbpumZRn8JOXQzlxLplfUac+OYpvPgS1chELCMzHJZUnI5RdGzOnJXJVLxb4vYemyc+AKbTsoubAT9A6WviGFHY2JaDTLu58BlzPUv33yUgbZpbEasTxr346fWKYzuci5vXJXXzKsaiX5PdGHzHX4zyT065dUWjC87NqHPR+Yb1wcKhsd1RdyyeNCk/S81rePZOUOUF18aQ1PoVVNYrJaP+ba+zOaH/aUBTH+eM2FZUVBBE+C1l2gfgreTkPBTMo3Ud5GAR3H+VhBrIHrY8unAgOer/KXb2/oGJ+srm7t3D5Cfu1PvrkPUGm7lkUrE9v7v2eipWw6/zo+PFPAvzZPyFwK2//ePy9gl8+fvr0/c8dvP25/n0D+1/f/zZC/vG/);lineShape=1;" vertex="1" parent="1">
                    <mxGeometry x="58.497490850461645" y="121.43040277881065" width="21.124500060568607" height="23.222594017447868" as="geometry"/>
                </mxCell>
                <mxCell id="71" value="" style="shape=stencil(lZzbshvHDUW/5rxO9f3y7Dj/4SrLkSqK5JLlXP4+6JzqIWeDXIzepENg2N2Dy8YGmm/5pz8+/vL7h7cU/vj+7evfP/zr06/fP77lv7yl9OnLxw/fPn23f73ln9/yT799/fbhb9++/vnl1/f///7Lklz/+sfXf64n/Ptdr/djpqWVwn/e/xLj0ef//vLXd4XPn77cK7SjzKtCOEoGhXqkelGYRw4gn49ylR9HGCAf9fntmO25fJv745t8hg23cbTrhus+ssfy/ShB5Cusv9njVD7S+suRruspR6f1pKMUkcfnB5XPRwX5OvR95SMUkG9H7Rf5dDR6ftHzT0cGe6vpGEnkA8mHY4pB7wc8lC9T7c0cBvZb+tGzPj+CvJmjWz+tp+7jvjufCvL56Hr+neTtcUPebwR7LkEjSj4ayOd51Ov5nAb+WL6rvxT099z0fdWjw/lns7fr+ts28Mfy6ZjxIt/xfHLc5nuTp/VbuBzX8x/HgPXYx+W6non2aV8frvZgAb2Bwa34d12QpYzSQaHoCcV0JDgisxgJ0dFsjvZsH19tIhZMGsunxOkrRi1z2ih5sh0B0lgKO8udCnbQ8J7jVLuIAx3BPs4SiObRwLJtAaKwdkUKTZe0YgXEUjvEdN20vfsCx7pekwQvc1ewJbOcIdFr7O98rHDCmTMchf3uHyuEHQ5PhXhMWNLc6feUz9veH8qPo1/PKFdMON1toB8NXkJTb7MIWyjhb9c646khKkqYR70+3zIKJqid7k55Dthlh89Tvu0M/TigHu1qEZahA7yvvA3szAe2X3J9xROVE1rap33Ktx2dnsjHq5MZoqrkM8e4uowhtkFOeTSRzwiILJhfz98QaqIoseH/Kd/ZhY8i+dUiHz6/Xf3FED+dp3mr5NeE/pg2/D/lCwK0pPjDSqJBCf+o1/32sRPoE/tPV/sZAddfd6Y75ROuvyreHWUj8mfxRNbT8H2NHQ1O+Y4F09TMOuZGMM8CdL468AyclaJG3BnZY/JOi6dCwldmaUyK4sk5wBKlgLp5ljnPcrdUfbNi2W3ooF3dYBpgAQxl4EHs2hQqfIM5WmiqMAgH5m03p4IhEoq8dVeedwoITbvm7qVAuSCosS4FqiaSVmdLgcoDV05MTt9Wr0yvAJu29C7g1xQKJeToHMhKFiphz4R396aJJLpl+DsFKhEsxSf3DYTHfVVt/tAgK6yyPakCgd8atE42F62w6Zq2Md8pIBOSNRJb1CCfrieTdBeXOhxr7Q8CGb3pBT3kGyKCEcMeanyGRohOi/sQ7xQSwVMXjC0/0JtuZde7pwJXzK2paZgCvTgDOF2WxJDHEI5gTsuhFYyvB7eHyrSsK2hNgcrNbsFY0nrBotxQkfA0I2Nd0asSfQZMKJAZjtJNW54mqrg7hYClQnfmbQqRyOt51GtCsb8QE2HP82iP0KptUY7VdkXGZ4dYr5u2cwuEx7LbQ8FTMkNoopA3NnisULUoN3PspNA17faIKcscMgppb3CFTmlqMG4DaX6LQvUayCws0B4sMEpStMBDYcZC75A9JAbG+UGlRzDU8k2X0nMiSbVypnCjTFKtNH59cZaTMu2hb9B5Xz2zgph3PQu6ZwpD+jOcUObQgqMMDMamIFSewRUC66YgaKawx60liULGYGwKwZE21KVZp3QNM3kiC7MwpNBOA110vWlRMCRL/tAUCeS6qYpnCrJpA9fU6jDzFlvKGUOlKQThziL7dFHyIAfspphPSy1q9S8aX1KQuAhPOqW02bs7ShWNL2rD8kWHZIXK6yktlhdsyYKxJMVbKfgs3EuYWYQ9hfu+z+RUCIiMDX8FYdsnontLikIDrgqblpT1lGJH07DE7lsMVE8b1hAY+qInYdhF6PnV9SD40zXHxcJ4qR1R+ioZrbW7lBUTVooGRcS8Y8T3YHlf+EB2uNXvl9oVSQqTL1InIuBbOERgMdJ1S16A+kYqT9ej8xPUIGmOKOoYtk1eqKuOnmZALao80ecmL4mnY7I1+e7WQzWAo3w61wxB1z92Q/mZvPK3G38/lZe6auPEp+vR/i5VJM3zeruh/0xeiUOkAZvrW3IgNXml3PB8zN6U00N62OSrrifyfI+k8IHUbXNt18F0hOvHD5x/WutX+6EYvc5H/YXaiev8nb/QeqbOfzCluuzHPZ/t84fke9F+2cT2bK8az2N4xSpIQ3RlGCJrXARdOYywRNgNtbssWZgk0BmigkNQBj6kXo7cxFs1v0CDtuHI/wugOvbVDaKJHcWBg2gGAhV8TD6lkxK4B4FcwksHYzUPuYQXeJMY3systmRQmaYBF2XswDjxqdPhUvOfBC9uFUVSHzCgsLJLrHWNPDBJIHSQVVEUwlatKWVXesUqDKkEM7rodEHeak1kRoayClbNFnpxU2v+zCTyPId17ipyamOagrxpq/lpuMYUBPkuVoE65yGo9b0iLqZWp6UhejEFyVZl4HjadLVj5fE0UxAeoiYEDPaq9RsKIoZlfdc3V+srLkWOtTKmnU1LwTp501VbGC1iH9PChqDOlnGMeLo2TKtsrlFNo73YdFCnNmhAgWm4yavO82xjOOo8YSQbXVnkXnC4c7hhKoMfZHyrSyPUOXeGLFFLzjK8UilRZ/cNAwH9SA4gMkI3dCK8nAEcMj77WPYwuIbvrmZYrSRScEPCq1nF1xrEp0fBKbjuqHN7lVT3m+Vo3c9Rozvmb3DXvbvW6mDT6K55O7i2bUNR4uBZpnYOFpwKPI3cXNPQwgKWV9mVt9xKaknrt4XqqOALCgVW1x2+obre0+rr06hBV8B0g4GPFZqb4Cg4VFJdT9wyBlHn1UWNF+NDNWr/zBTIRcvcUPtU6OhxxZHCk5me4rqMk827uH6BKXQa1SuOi2EypiQNM5NrmuLakgs30kTT0Ay0MBpYqwFhmXO5g4GPNbJjPCdP6Fpa9go0KTa0VTq53Zuaku0LLdOtikdvjmirlNxYFvNoyfWHl23QXGlwx8rQOE6tRidTS9E1AWfHTk9syiXPjrPesSrSvVWPjxXcdOzkhnJMCjYWlKVx4+D4zIxEhWuSvJgWdbWoZSwKrU1Rq+VQHOLSAcLRMRK76Q3DGdQPz26Yicmo5O4jRbwg5SaT+ov5Xp0nNzBH63fp2aBZhPMMmkZ6Rh4qaC22bpyChboauk3s5Qc16MYETtAA3xh4BuXnW8JpnqDjQo3RvCvb6sDAGBUSVr5QG919isx3ijTIVR4KS0pvLUYC5//Ff0vDEcmsaNBQA015uitRBhqIeSrKDRdGzFXfr0EG4sNdDlhzHVR7PaDaqGfsqbmMKWPquEJmf4zO4VcHjBScxaXOFp20ZWOHjApZY3R6YdPFjY3wrWNLxII+Vpyh+wJNr1lHHpiLfjagI2xc8xLSV6nY6VnXGaWJUbCIty3qkjKSKQujuc4NTfOvu+o/NH2wsqtsOvDtseIwGo6/mXvqLQy+yNr9eABlv+TGJ3jUObvhoIaYNCetDSrOf1hwkPMpSENa8HE/Z0ClR3aMBV89zq49nRANWXBOYqMYfUt0c0eIJhbFf5UPeDvNkpG0IQKSrpbsBM4FJMuLCxOBb4s68oSL0Rp1PCMgGqrZr5+SQS16253bD7UpHA2YLQ0sCfcTeTzA/bxC5PZ62uZ+s0/qWDZ3XTchGmpNk2VmNq3r1aCMHOUaB3L+S9XY2dy/xQfyx57Ufl7em5D1VOwx96KkLP/cTG/uPgD6b+/umhL6V/c/X8IOcKvW7hQoQnTXsYsBTWgpuF+goDb8A4WIQahPN4vJJLEpCCiNEQnWdawOGNBY32ppOAWE1UMdM/IPw6w2T3cKdKxDQ+/rb4juWNE5f/jXpl4r2D9uP27126fPn99/G+v+c/0xLPvT+w9p5Z//Cw==);lineShape=1;" vertex="1" parent="1">
                    <mxGeometry x="0.4360022857670174" y="86.62579827983885" width="17.039647825378815" height="16.966353784695624" as="geometry"/>
                </mxCell>
                <mxCell id="72" value="assume karlo ki indono&lt;br&gt;ke beech maximum sum&lt;br&gt;ayega" style="text;html=1;align=center;verticalAlign=middle;resizable=0;points=[];autosize=1;strokeColor=none;fillColor=none;" vertex="1" parent="1">
                    <mxGeometry x="-160" y="60" width="150" height="60" as="geometry"/>
                </mxCell>
                <mxCell id="73" value="" style="shape=stencil(lVfZctswDPwavWLAm3xO0//ITJzaU9fOOO719wWroWJA0XryJstYEediOYWHt/3T627y/Ha9nL/vfh+er/spfJm8P5z2u8vhKk9TeJzCw8v5svt2Of88Pc+/X5+6ZX/6cf7Vv/BnxjFl7iDPf+cXxRO3/2++zvbHw+nGPlD1yj5HCm7bvlJoyj4lysDe+fG5BcDkgUOuUNQnxEi5bAMkhKIBoVJjELIjHzUgEGcAaBQ0QNJQQQyxUAkaUMjFbUDK4+8FkCmCGKRKLlmAA4DixvcWQKJWAUBiMC5F8gF0RiCnK+0dFVC4WmwvuUbstwFNmlun1WWY1hZG7y+AQB50a4vUsgI0mNXWbCsxMbaPxdhnkFOxzzoATwUUTeyr9j/Dmol90/64hUA+nk5eAlwQiWLCR2iXJGYP2qLHsGq8hKosSTInlPGJzSqYE+TMO2XWrR0Y57XavMoJjIKuY1RuCQBwkgCyJm5pjYwBSQft6j2Xkpk2mXAMMLunUkTNWi3DxEH9m0k1DsHVI1Vzui8Ys0WzFClFxp1tSuCoYX+qM/E2VDGZHJ0f3EMfzWYYR26eUG1PFDwI1fDRHUJtq02YqeLpT6avGxQkfTbN+pey4bR+EpCGOlgAwqpoTwXbeKJIGNGFkK6uQ2S4nGV1Rp3WKJVGgGAFRsyUQXP39a9jiDJOIIYuMFZCr4EsdQmjT0gO9ncXSckCIjghriRM8rBwXehpFk4RutSlpC5cEoEMeqnrbR1D19toqAslnaXCFEClRXAbFiv5jqI3A1flxgA6I1jOaA5+n+1m66wDaJ4Hqb9LEiyqeOiPmwM8tA86Qa1QBnuBx9Zb7BPU5uKtSZCHe4qH6F0K0KCiWrF8zfCKt/6+iEgwBSv/i3Ay9MfkRxquQHvDvwXvfbZqTa60aM9+9gp8314e3u/bL4fjcb6u3/5v7+fyar7bh8d/);lineShape=1;" vertex="1" parent="1">
                    <mxGeometry x="139.882487319039" y="73.68797641020069" width="16.835449660279757" height="0.8216536607747512" as="geometry"/>
                </mxCell>
                <mxCell id="74" value="" style="shape=stencil(lVfbUlsxDPyavGpky9dnSv+DGULJlBIG6O3vqzR1OJLxMn07GG+sy2ol7eTq5f7mab+L/PL6fPy6/3m4fb3fyaddjIfH+/3z4VW/dnK9k6u74/P+y/Px++Pt+e+nm9PN09e344/TL/w64xLVcAJF/n0+YKry9+Dz+frD4XFzPQjVaO534r6+H4W6/f1QqOU1QAIVC4iBelsDUqDQLaBSBybl4E2SRJLWgBIp2RcSU+Y1oEbKzQIyNfBCC8OAAchMHQEa5WIBmVJcA3qiWC2gUwV56I2C9aFoKgtgBjMxW0SDXusTzTpRBaa6q482TLVRBKnuTM1mrkUKKK6Zsn1BTxrwunYS60PrI9IrbvgCiiQgc7l5MvVOGfG7DiZsAB2YlAtFngCAG8o1zpNJyIc0ROICaFRBHrJMPlQqgBoKCA5QKIHEKSBaFVB2/TtZAYrLQxphWDntZKOrkUA2NKzZhVWVBzldRglvABGot1KjFw8QxCVV9wmAhEkBXbzTDVCj8HBxE1ZEPgUU5/SFv8sXnEl1nKx8aFYElK0ZAdqIyaYeBCWujphsAA3loVCxJbqR2xWZUvBPVMTvNEzeABh5Lb5Ta5gYl5xrKZq59kFRu7hmKkhnZCq5NMKwcjpMNQoLIk8+RCqoIN4FIH6rlNqwtgTlu2ZfENrkGIS1TROTdjEGL7TixVXfrKjvykjTZRToMNPaqN0YWtJorKtGXad5Bk19Oil0a5JmRlBYmcTKhs5kiBqqM2zZqlMfKtHUKdmilgajJBcZugDimFfen76bbxCxYIAOTNYknb4jYGtgCm6+1wICFcdeKrU+gMjwNHoPIVxcD5YVeKCcJlaB4+R0/TLnr4yxvVMXD2i7a4QBDpLsGy3DiSqMjeXtOtp5oldexmue72e4OclsDBKsNBsjgDP/udJ+eF0/3rbnu8PDw3n53v7fb9t6dN7U5foP);lineShape=1;" vertex="1" parent="1">
                    <mxGeometry x="155.94436992480973" y="71.72817745895057" width="4.212221793743305" height="4.085630092151743" as="geometry"/>
                </mxCell>
                <mxCell id="75" value="" style="shape=stencil(lZ3ZsnXHcZyfBrcneh6uZfs9GEFQZIgmGCBkW2+vLlN7+DP3+Vq4w9B59hp6VdeQlfVT/Zd//PkPf//5p5L+8duvv/zbz//3L3/87c8/1f/xUyl/+duff/71L7+df/qp/s+f6r/86Zdff/7XX3/597/98Z///vc/xMr4p//9y/+Jv/D//okr9WvuQJX0H//8L+0rz///H/7XP9f/9S9/+3F9r7J+JFxfuqzfG9en8cP6/lUWrC9fq8h6vJ7y1fXv74bry4/PZ3zVjOtTkfWDrj9/zR+f5/xKHde3JetbwfXy/OfX5OtJP17P+sr0fNLXSrK+0/Wkr95l/ab3lR6v/7F+fxXan+krZVk/4Prz/prth/X5+Re+A7SugAo7+gDyUMAcAFhf68dbzvkrwzM9gFEV0OAhHUBLCph0D2cT/PgV5PKV4bUdQEoKwKc09Ts+gMGA0RVAluUA/uuZPAEVP+UDKAYY9B7Op7sVQMYlj6/942bN7fG5fgeYBuj0poeaiwPYdA/jq8huPQaY70EMxgF0AnQ9cc5/WQwQk3F+M9NT6o/3+gZo/AtpKeC/zPJnQPta8pQmW41mu3V+VfqA2uOK3wB0sL12zhuALOsBJNne66sQoH6trYBON11ttx7TRo/VnIuX8fwOUJsCOt9DXgpY9D1U3d7nhMHNV9R6H0Aju1TUA4gzlS7puDDyC5mfUvlqWQH44o7TUxWw+BdkL4XfRO8hP6zQG6DTL5wDqitg0z2cW/xxt4YrSpsv6xcXvi7Z1qyu4QFcLinLLzS2rVmdmXIx92fnTAXgJR1XRN5D5xMoPS7gDYB2KT380zfA5l+QY/fich9ALgoY8Av7a9sPkOew1TU5PnTFvz+mrp/wQT9N1nP9cbfghvdXLbqejN5+/LW39Ru+hKdH/ly/H2b2m/V6v/sRFHyzXnZETXgWLnWgz/oFz2fqOVXzV4X7nQ+v7m39gvf7fPvP9ezbTvUuznp6/uNxd8/1Fd35oSHtWb8hxhuPp/Fcf5wNsL1D909lo9LVttf+2LHfrJcDsHb0vrrd78Dv5fz60vUNnk9/HF1v6+n06xry14knTVMjfdaTVW9qo896Ciua+st14fNvX3Xqegq9mgaDdT92+Dfr5RQ76+n514eT+LZ+wfXUR4T/TDElPDCqHvSNA/Kq3lDL6NyYy3jWUw7CUliNg+sTGGddTxHX0zq9rd9wv0V95FYfX9A36yXWP+spx5TVvjXOOWZNb7SLF6QZmrOe7KH5ca0/vohv1st5dNZjQkdTmm1gPiepf3LWk/1PGnG0gedjsv02vzLYq+fX8baeco5nfdL1lANNGhuf9XS+pIfD+VzPOcr0+Dre1tP7TZozOespIEu239geJrM/G/3JT39/4PvS69/obySNunvCHGvS+POsp7xYUvt81tP3mDQl2zP6n0mTMWf9xP2z5fqf4et333vW9Y0CEs3E9MLZJPWHe+Vkku7/s76wvbX1Ha6n6Hl91k+qSej5eNbz+SL7uTe0P89E8Nv6QjWkh3f0tp782/o4fd7WU0hbNXveG8Z3Vc+vs57SYE3P087nV9PzvfdHIvo7/7PoekppdU1rx3r0n/X5dPSXun3vZz3s//Hwjt7Xw/O3HPh1vfjnsR7jx+LXj+u7PU9eL1WCy/ql8ct1/Yfng+slFXd5ntvsCe+HrQmgy37ber7Hejgv9qPc8P69kP1MHwwElprSI736/sUzQLdcQ5MbucelAEzDZXXKLkYxCnxmtSiKzF5Zv7j1Rf3cA6Dad2T7BVDRsYkCxFAAptab3XTlKuTzIf43z9aoHNlhTM5N7h8uiU7LA9BLumTKu8ZjBzBoawxNuIZDRJtv2Ilf+B7GI4B8c+kW7SUrvR7A4OKu7qWMQa7Xmw8AC0GWhgy3l2562WNN6FccQDXHncgXr3rdGwBT68tcr4SptijwWayCN721JnIAnR7rtmj9RE+0W/dXqwrAF7c/xJdYSd1fcyqAArQD2F0BdA9Rc6wKoCPrAKRGcGLqybyZbkE7JR0+Rvn0WCPskrTPQGMccVdVAFVSS9ZqcCRa6B6yZkpbx8xJsLWWAohZELFUVQDFmhFMyV5qeAJF3dSyaRgdFXW3W2UK1rNa8QbA+LFqwHwAVKCODKvcdOGtYSHYAeDWcNpiYV6bBW0t89ao9j1kzHKXansp3y5JnMTIW/Mv7KEASlwUo4QcQKKt0axUsrGMH7GqASgXegDypuuz3PgdoBcFZNoazcp/8/EqvwNovWpivFqaFTQGJ1Samsp6YZ02TWnVjjSv0vVNHwB+088UwRsAv+muWaHa+Js21tYBEEvlQ12vYRxazDOuF8vnlcbK27trKfwALpckZLhasPb8obha2MyMr9QUgNWlYeV2TqdGPTkpgEKaSMjI1khMCh8a4R8AGoGhKeegGDBAchoHQDm0SBIJ+YeJZMECqArAvTQ16xA0DHoP03gh+1F5+g7Q5B4Wn3HTmB7rkcv6DqBkuIVUifO/k10S5aKKhTTxJ+hNLzWVwS8hgPG34x7oE7X8VVwkvYethJJ4D/SJWkgTb5ovSSlGTOkJgG0+4lS9/vcbYPNjnf6J0ubbGlrWxGV143ldzMzrk383ZLD5DkDdn4xP6UV0egNQqSQAxh0qDJBUS2VyQE3mL7HvHQB5ShW/uJetfgMgPyNpgrZWJmgkrfgcTyDRPVhJPlwHuof88PDenRN609lINQ1Z7geg74Gz2LHVzIWjWLRaHTB4VnzT+lgHHopn5yjTbWBisFrpMDxjenHFHiv3S8XuLwqgPF995j7fwwG+JInjTsBxuaRtIQ05J7UagWphgrZaAH4AxBgLgFG66NgNt3YogOKHakz9yv5S/cTSopzxyzV/j3b5KWnEzrzSAxC7FBE7v7htIT5ajWbZ0IxxXLV4uhU2ZM3IJAUT5WHnnD3G9yB0xVZvlyT8jcgvkZnp+j00rgPVboy2hozjIKwahYwoTLUbx4jzfNWK3gdApLYI6J1FRi9u6Dd9ABQ0ha2WFzfZ1xhqKg+AiLLVgqa2MMlcp6WA2dGtVtZp3P9ZvRjP/T0HoAW8xB/QsvJ35ntY6mscABoya+fs3K5zAMrgKmzuveRfmCKzjLNQkMMSFGJ5D1wXjQOqK4DSdkE6tgo4hcfVYqAomdNTspAmyv60NbZm1i/Ml2Z1oAMg6l0woeWSnv2a3wGUTDFw8zVjh/aB5eZzoim9idtpgm1dFUDdyi1rp29f2GfVzJU+AIrjohYgHxCnWs6Zqdv72Uf+HUAO9r4xfmhWBxqJ91LRc3okPHab8epGwhC/Vd2tgxODwTM3APne4Sj8aAQGJzebyV0MTp+2ZnoOBW1ra5r9Gez+NCtYHAD5GgcgX9xg3kwzf2mwIWtd2UWDc/eta3ltdCy6BGN+KYA842Zt5gdAuftmWekx0Js5APEEDgBt69BU/OA+wmaCAmNi4Be8+aYAYhIHK0AuiVsJm7kOB4Dm3jyBA6Ai5IsL/wRs9IyDzmEAtBqWejwA8siCklIUgA1eRgCcXB3oSTuuD6AwQMrNM2HxqxvpfTJZKNhKSQEUWnZjU8yMAXi3jusDwL6/rBndA6BcZTdO4gFQBit4aUUB9Il2I0fMgqdoUPW3AigL16s6JwdA5j4oi10B2H75rII+ARUzid0aBif73t06GA8AX1zXGsoBYItn1+zPZCmVA5BkzmxMUu/KwToA6mo6bm2xXyBmTjfW42Qe/wHo5utsNZ65zzcAHVl9qm09ALykqeZ+DkyfdiMxHgA5690KeHNiyfwAJIlwAMS2O46z5ConJ2j71gbLyWmKbny+AyC6arjmckkbW3iGhWUHQCngkdTBOgCyfMO0JhYfWcPCssXxw7C+zAMgVvwBSH5pZfQqD0C2xgGQMkJEC1kBFLEfgCQGFzOZD0DYRYuZagewDbBoa5jC3uLy2jBq2+L+rld48QQ0btBp2lFyAEQhOQBJbq5Li063vdTR/Rldg9c1+BeGesaLS1MHICyvNfEEOr68HChrovU+AImyFhuyAxBm/wGQczKWvWlmhByAhDRr800ve3EbOesHoB8QJ0IiHvnRCOyETLUDEJ7ATpibGcZZPwDyZsZWatvOWJ8+AGHm7Mzng2nObK40RcRjAHqsEfEIgBm00864zZ7xNOrCAZB3P62xeDMTYVrQtCsG4CdaEO9+cz/QtKBpN+zlnRY0bS5NTQuaDqDD1jjRQjYARbsRwMib7njGHYBYvgMgnvE0FbYDoHzrtNru5uzPK1p4AgbfQ1Py3AFQVnpamfMAqIA3rZFrD8ycTEuqHQDlW6dxQze3ZIQv3xRAgd/Ll38DUJpiTnUS98Qi5Jz2WCc2S0/rdj0ACmnm0nTRXpgznltDmgMg1yFccwPQXjp+sORm9sKs9DIV3QOgetyyossBkEd2AHoCsXbjsk6XzZyTZW39mxODy5o+Nvsax+mUrMPmKOv4kHoPG8+HA9h2D+Q6rGnyxBszJ8uEdDcnN5d7Mxu/uHCn7KZpa+xk2/tZ+PwM8ENx48F+ANueEgJM4igAsFu3kbY2x9Pn3FcjsPHY3cZf2hsDvwOYBiCudHgW9uKo0rSbtk7GB0RPqdmxu9C2but0CatBW6ObK70wG7ot8NssQrutwyKMMakPWP/DZkb569x/P7Lopqd90xMzJ3tqGjvOabrpaU7ixIBjLzunWQF5L9saA2uKr+Pj3SMjFc2tseh5ldQaE7u/KIBs695ml1jrOr5g8+6phhI2IiuArPfe9li5mzMAFqEQPW9vzf5sZtvt/SHKIrLQtnrc5pL5y/S+R4q/F0D0i/0pPEaJ2E+Ay9ZQAKs4fwTgB/QJgN+0ARbrhn0EkBiwv+m1MFe5zTNeF+la294HgEfWtvkSE3sH9rZcJRflt/HI1uBD0bI/B0C5mTBk9guX7a1p7M7OydYTaLEEzraiy+L+hwgvZC9VFlm2sCz8fT6yhDezuHVyL+WGrsK21YiYJyrCvWRUz8VKoXuqG7qYTPoKtx+AS1lnWwA+mU2xjdUyueH6AEQu48Tw1NN0ADqShvun49yXit/grdG13W2ySHm4oVbbpZLIbhq8TtZ+30YLm5W/aev2n4VVsKp2N0/uXotkqbyHhGXOc8iK6zAuB0pRZbTBjY07602PhQIEkeWWS+Lq8c7Kih/Mb93WjDZYnXqbkspgtbBtpN7B5bVzKisHq2K+dZmjOwqeD8sk4EdGcvWrrvQEcC/NOWTFzHTmYC1TXe8cWr7KdU8Aj76KQ1ZYwAOT/csECDr3cCyTmghNNbqkalKNTOVZRQupl1aAVUxMMeHBvqzs3zjrcE60al0imKC1oKlx5fUcUNrI1THV8jqgnoDGEwKMudlY1+EcUK7RTdZ7WibxRXv/DiAUwxfX/zPARUU25+5tBFG0gdAvWLvbq/flO4DqOlzqD5aFq/yJnjNTRhBFCyuVRIrWgaIXjCt++lgbPyWb4BfNyrQ1bCRfZXM/vUO7YEZ32gSVWvDYHZZEiAZpIjxtPeMqm5lhM+0u+hpjqSG7aCIEm8JUFyjEf7G7n4CJEfswnZMy0Ls/noVOmmFfY3SNUApLC49ms6MqBk3Hs/BBTUi/sM7g0J+mF2cMqRD0pnvIamYyuw7D6g95obM+kio8ZXZDD0DHinHltVuqJV94lZbcjDl6xAJe2qeYO5Y5uw+FZP2lbs0GmXW/u8nH5Iq+dzdFmxjHRvcwlIgZqrT0HobNFiw8S2ZoK0DOWDjqPu4wM7/V5LNzwqAp1IsNQBmsl1TwM5P4OwnlXOQMxrqkZ/mtVXX4FrrRvWqFZvHHVjSEmxjc92JkW3QBonlWZ/LSgR7jBiRYwlipm3DHwOgtGjGkgwZVOKLTQxrKuOchq7sw0M3rFkJ3DMR6Uu5BxyTxWS8tRpcu2q3Ph9W5o4VJevW5V804jtyK0Gz2LatUNyOO8nywZhm6it9L9NqJk4Bs9hNtSbDDkhLNvRb8vppVlbkn56xXXbPHC/xuvdp0bi201FzmFjhjr2XMqEZsKQYd65jNBkhlbu8smrfImAdvWbNBrHx91gsbg9muzdTvuS8gAt0q68meVxvgmDBtWS1dlljbxoojiYWYlu7PxJJES4MnjvTr1NpLwj68OjVOucxPM7H1y9+3vqaEdLgQO7W/z8IlSa8fVaesV4z53pEBsP3Akjlbrx/FMswfS+ja16b2M7G0WNU2AJ6/VI1ox42ftVhAhvakmn+V+flb2ydr+9esDfJsn896SaVlVsvKNu0YI6tqEhkFy+rVBoTxeIXqA3DRP/ww0JbliK0bobC48DY1MdZSXaqmUfH5FJOv4Upx5HX0ei6qpVvX4/OxuLby83GRIlbkNXvLYoXFpmew3EOEE5LSx/grwgO9fspSlW4yaHi+h4qy+vOoY9ttABZrxhrNt/Pz8bINhvzxOqVUhfJkrjXP8VexLPhlLoJl2AbSGIqJ1UyW1LWSEDcFxHGi8TK1gBWbm35db9d/uR4thLOktiXkJ55fL/f3bf3lenQ9ildnjU8nVrOKnV+TJ0bYAMTJ9ifr/mcduZKts/7294veb+H3pdwLVhrOKh3DAlUf11/mlOh6HCLy4fpxNMuH50P5k0/P//Y96vvF2QEf9s/t+7X75edp+5/Syh+/x8v12Pf4O+0Dim1/sD/EUP9k3y77//euV6EvrK+UohVN5jcWG/zGykzFJFM6S4tXGyyHPQUv9+i1Hr9fy0dxf2T8b/WXLsM52u/0r3RA881/S5qfxPNo2DApfl+mpNWwpuIDNyu/32kTKlguf1rFHePHMm0oB5/vNrSA5/G+ZiC85WNpP9gUtsv8dmP3FpRgKUZQLpgfK1b9Z7p+lJc0nsX8QNJ6CtfkatL881VUf2s+AaWo7fzNLAac1d/OnC+ygcuZ82OmapWxvvAaKfOWj2Wd62L5WLqeqvFa4ufTPH+I+VXL5ye0z7V5PhYFqLvfL8p6d6Wq81DEyE9qfg+1oYfW4xLWL6oxHbkxpE6t7/CUrzq1nnVdv+x+6XqWno+X57M0f5jQfoYYsV4/sfJdKZiVkKK+oM8T61nJ/z7Zh2bjLXjwievfJoz3W/Z8NXXxNPP3Mu6HZpJGnE92GdiM+cBW9XzkUa6tub2l+KiZNkTm59/0fGRRqWbqRyxS2KweUa5iq5ZPpusZXp/FeqXVd3hCQJv6fi8KudMG+XB9eXm9G3WKrd+K2cDNdL4bPp+ePF9K19OTklY7+tuhJ6/5UjpPX5OOX+tRRTPr87yIBmatNw2WYjTpiHHl22j8SM2cvaj/MDAf24uJHqL9CQ1QzT/Q/gxle+UvIX+m6n5YmK9+6dq/1qO8bbP2csyPdZthzuoMvWs9KKcbBU423AHgG7YKQ85MwRpagskZc1KuzZk5yOhTk2SZrW6f2s+YmXbTbbhevsi2WpN/rlg4DhV8OSgbf5nbTtaL5KlNsssda3PRJSR7iZNHw5ytPHECQojadwWgAKNNkc4L4+1RjN/DAirDBLYKiz0Py5gV7t8aTUvspfAvmA0orOgbio0/bu/IatElGaujdGbP29DPqIv9LgHGS2FgTCvkL4w8xrLMysLU31hKlYxkC+0l4ypVlhEYPkaR2VzTRojUjN/DTDZnruA3PbM2BEcGggHi8Fdmnkfr7I+brzaU2jwAKYnXjjm9aUPSKxd9pwU59aIfV3XzVW51nT6ce7JoXrPRd4ufkknavULn7wA6VZ09gWmi2y3jFzdNhTVGr7DgnASzrWI2Z64Pw8TwHmwWUgRwdEnbJqgNVndLqkB0GcQV6m4SwWw0AquoIevMcVxVczonKqAzbpmaVbjVJDjXjFXOZYllXmXvLNY2lDfUmXi/hs1zYrXDNW3EFLdYhvqJ3PTG3M5a+k0PJhcu69QbzLZbJll0GalzAOKsH3eF+KPbOojDXWGA9G9FCz7LCEjF+bgrlOI5APFmxmDVGOMkjslCNtaYfQCoMGGyrYMlHl+qTE8AaxFuqwtMJi5vS8xNbmrezXQ4ClIHQ6HOACg+0kzepGJybnc9p1/H5HcA2Xwh5Eq/MIweMVi4Y+iRdQ4x/B7sUDwACi23Ba9zsaDQNPGRjcZ4+2CJzZ+odRuuxLt1mS4+p5330ntYGX3v7dLkhUXCXBSpsB6KuQ6h7X8RdjJtf+Iy761verWbIpcqvnc8p7fNc1qcntxGN17cX7ZtXsdiQuQ2B2txRvAAJKRZk48sKwktnty1bSbV4sld22aOLNYMDsBUABqBrWWhuxycAy6Ccyqfe5W0c8BFNM8B1Fz+AXAV/nMA5SpzSib/yeqFnxHEAPyMoIjgE6Jeb3wp4KJtKTt2XyThtskAN9Yus9zG5rHNe6tXdk7vm6aiSYYSVyP0CJMCUE5tm0jvYAks607dF/fBRvhtlqXYpgzwEon7b57VLxm677wB7UhnSmk4KK65yy6Q3vRiz9JIGKEfyMJ5LrGOwqpGI9k8bMVd0fAP+Bf0PXCYv5s9JVZMPwCdFbFZmu+TJjulvXbVMD++QQ46ut00tX+FtLfJYqOQpPXbbhZQ2EUbzAJA3rGJCr3Z5+8Qypm4IYw19/IQvovblwM4WaEGn338Ne1I4Vk/yyR5LkLxIdhv24920zJxjQDQPbRPQvGUP6kqbBefEAGKnUEb+eInjPGRAERwW1mrcpvHWy9jVO6FFJADkBD2Nl4ifRgvgZpWJgS8OYSdrje+MD04rQ0xTggeVSKB/kth9rvctGp1L3wPkQewgS6Y8h9K3dysjTKHacFMfqyuv8/dMdO6+TbLw05rt96TZeeaCfYPDMOnH1qcCI5ajf1CpRdXNUiOrBCco7OaXepclTPx1t0xOJtF8ycXV9eV8DaLSk/jFYX/cZmuVRVAyYqQznM5fQIk260Vg+TQ2rORYtT8Mk284hJnTZOH3dx+PYxuv1mPZXgUVDC7Mdy2lts8O3Wm821ink4IY42AYcyTzaR4r7RvZr2OZabyMu/UJtvuy0TVpZX2xW5iaB7+roRLqClXBeAlTRtquTBTNiySW89JId8BhFy71m1spmrXs8J/8EKqAuicHsZ/XYPH+XYNmxar+Y2uIomLrfdo+okuriGHhLSNYEWRRIuzDgB/oWoJbLEE+qgfctPUNzSKfnGrYiNETOe1/DpOSS7KnI1CN5GSsn0PGQluw3qBFos/DRNPWtwNNKybfmV+SkmjrONcI/0sWdniwjGyQ3ElnpJsh2JwIMguJT3YJwdN3TjbczPpdmvMPhezerdd0kJfo1tb35y3UenaN86NyH2qR3bc9wtpVWhPB0DW21muc2Bo2YdWUmbHxF33YudFDdAUOmfH9oggD8tTaqyHafokl5Jw8EyaAihLdgDakd/4HqyFZHJuvTe7h8qbr6ltnayiEyz0pgDcrVVldGbFwc29mu5mwYRULypkN1kYO5RAiwKosngAuvkK9ra85PnfAFRO9WaMyd1F3YKmV9z1HUDlF7ifyvU9DwCNQLJ7SGyXkm0+nrjdk0bsEajBF9csaIpAjZrCtlnvhLmZZlT3wWdcsxho8Kj0ZjqEgwu2zTJYg9N2bWn2ZzBDtFn88JoY/x1Aek0jBKGnNI26xeoizbplx8SZGm1obuYECJRkbjZIZLAAb+vWMDVYsbRrAD5Y4iIYp0kBFOK3rt5MUOhoazTNnIyGrsMB6Oiei0yujS8dfGQ1O4GCaEiAqsJpJ0DATkwbYBExC0vHCo82mkHoPVSNUF4hyGdAUebJ4MxJsznMI2Nl1Nt/I0Dg/l/t12PB0Bdl+wHomzefnaJ98+bLWns9API1mjGm+8JEeTMRps7142Yjujvn7pvJSnbWPWpJvZnOifKWPhGg+Re0E3WgbY3WeXnTPPGi2ujPzoYsOhIEwOo71QgYB0BEw2rz4XvDvVRtRHdnAZu69Hzo9aYwLCXCINOzpIJKrhf8pqvlKg+Akmoh8mCTqeibrlYMDl17eqw2TLFn3nzOvmdDVn0GWcLcfZ2au28b2+rqUBcuvEDW/hBDFk4diyvr3KjJ78Hi6cZyeK/GpyeA/aXQU9kKoIrfAcg33ZhUFc1bXQEUTx+ASmQ1/kSbGrLGIX61CZKtYfxwAGK9W73JRIvf2jgAr02z0o1nVFbrGj0nN1pvmxDWWPq/2gC8xlr+oUUkL47ns4TYtQ9e40sSy/fSZ/kOIFWaOIhZf1t873YxM0WJNpUJSbWY4tpmSe2iJ1CI5NP2LppvrTyO6wDkxdXFVqNoDFSZAB2yWVUBqPNUNGgKZSN+D2IqK8eitShBL04M2nw2ILWyNmNooRcFoDeT9VA8AOJuVmuFigOATGU2OW6ezltN/7d2zM1Uq3CEPWcFOUlTVJZcDMm5oQD0yMz3rhcnMdljrZgIqVZDednC7wDedk01lNCZt7Zr/ICSEp5q4a2R9NitBfNLxdj38dGylr30WVQm34dYvjxWHgJerLmkcgBebMZ9zayXuTVHVlngK/RcqgJQ8XZrBbyyJFuxCfRl32YKqLrDZhHkpRWOsjFdVJaaysLUhWLdWWWxDuZSbv/rv3wHkIxuWawkv0zJk2mSZX7QjyBmjs8uiHdP78Fkal7jIb4DVPsFlLO1kfWFicmhByvnNKsKhP7TUgAqartCbULnpJhcUOWkWrGBwZWHOBWri9bMKrjW0FB5JHGoMpsxvugKqxwE1+NCiNjOOFRmt1JtnHE8GkK1SC7awt2sd2NxfJO0eI3z+Q6gQ4+v4zB0DnPn7d01TXEAOBDGwuN6UdjupsA8+NjtmhgM0VLW2NaD/TJEoNkQGWYyh/yQAHj+b7GSeUQo9B6aHeyXI8u62SMs41+oFlriOW01lJZ41oXNmmosBlys/yHiafqmTfijZZaPr1qqjfQ/7aX6QRMG33S1gfKsYFSqxqKt3Ea+eG6m0HvwJEJFhYpSbKB8Y0+gqPvTLrLwppEUOTL+BYmn28WQWR2osTpcsTpQ6yyVbnWgxs2TxZVzBp9AVgdqA2uKPs2ica/5S537DYBbI6khu6SAQ59YXhxX8V8DAd+z0gzIlsamVEu27uO2MWjK1r3WNrZkHIBuDe78yqZb0JjgkS0saxvJpHmbqBIrlWebBNB59GL2SlNCY5xNa7dzLHoA1e6BPtHskkcZMyd5Wk2R+UsHIOd0Z8mjPNWQBY2Ldqv1KXbWtcnDypyc14jx8VaPI9chD22YiDHZdEndLonpebmrEehMv3hphb4B8D00DZo6i/kcgBblK39xNsq88yyT7LNqWB0uG8Gjs8hBNlZ86PfSeyha1umNH6uR3HvDDups/aJRY4dTNNuEpBhiT1sjGV+jI7UtO3Whs3KOOpVB2sX1uvU6yxGZgB67MpYf66x+aqIOsR723dL0wXW9MJIv12PU8+t6tcG39folX9RhPxBNeP3vez5Dc1CX9aYS1rkds5tm+2198ucD12PKD5f9aTNZekdHwS0v0/itHalzw1NVWkOojlM1UOOpfhkyavbhMsRLy/u9cY5ec/q9caijqeQ4Bcg7/XD91J2SbX9eTkrbD6wHbUXAzs1gNsPu4n0krfP0gnmLZOShgqXbpGm/F/X/m/XSDNqZtm+M956xZJPskM9Yb0+2fxJSaKyU15nDaQ1al9gmqTvaNlYvTa6qbXSbPv19IpJYJbIxHSHZjOaFsh/J8mrr8r6KxexUCTLV7jYxek0faGEUcCQLdifaT5coHth0mLQu1ZhDb99vG5fnuS0XRQx6z8qwIHi298tZfmv7jOwb/n19ng0zv6Y/2+rlfretxwSlVgQaT6+wVt1WuEqurSqtIKWjaDvCLats6dKMQ9k/kbqQgvghU1/AflZtoa2cTKof+FZI9rNK2uIhSTbjkuV0jEtYWevGZrBeuFZeW7mQ3z+o55PASlN/qfLQdJfCZwmArvFgZZHTbqUhVqg2Tu2laNitfNbQP7F4p17kAj6wk1DxQL/3KA3j39exFgX3z7SJEDyUdNrM1sxCSUZnZOnrabyki067+m+VhxouG7+yketuHQQXXogPLlksyKil/7LwfN9qb+OJYf5EauDxRvB6lMszWf5U329hjRBTEI4dTgqXSuktg+O1pB9kfNKURzT6X+GMV076CVzmXuekTIfCJPpshak4FjjLJ/TwwpMBDkBab0q9pTbFTlyGQR+AOOrhKtBNW0UxfBe+JCm5FHadsvl+hWeixGgzuWmWa8pFvYPLCM5s4mIlY9t7DE+Tm+ZenWz08JK43ld0yt5lbG22+QmZZzVlE8DJlxJk1SAis2hJNi8zr9slSRgR9Tm+JMkT5sUvztgamZXQc9N63wFQ5iNm0tnANjQCpv+XB55V2YadZSbRZ8u+xpQ6BojVyExcyF3zSa/63HcAfXGd33RXU5lZzu/coo555JRnHjaaj3um8rC5kI1t69CsQOaW8SjUTgVgWtKEqPOlKmo9hJkd1ahONwXg5ps2qpLpTgegnyi3ZmYb2J15InI2BfGckWaTbWxRTpx+XnYPievf24ZhJq4obtOVRocvb917m8nhlnHc6F3FcaZTYZGS7KJcWI0vJoW5mD+WNcM6MYHrxKjJRNusFm9gL0m4LKJrgJ9N+ESiqYEfcvGRaOi2lWLdxtzwYC13HU+142ZKRNWYqGnqSZxwLKar3jCBXkwbo3HCzlwRVrCKIeA25ZuvXyLaCxPc5Kiu68V/vF6PZuxu96v8zNvz1Azo7X2Jk8MJ5VKNUMddSx/+PnW2f7p+KrDd159/+PsffvvzP//lT3/561//8duvv/zbz+///0+//Przv/76y7//7Y/P//SPP//h7z+ff/tP);lineShape=1;" vertex="1" parent="1">
                    <mxGeometry x="161.40322766651866" y="52.716391824276116" width="81.78786358698261" height="88.96081373102825" as="geometry"/>
                </mxCell>
                <mxCell id="76" value="" style="shape=stencil(lZ3ZsiTHjUS/hq/XYl+eZ/kPmqkl0qRh05rULH8/geHUzWr3qpPGN4kduJVLJAJwOBw/1H/57acff/3yQ0m//f7t69+//NfPf/n9px/qv/5Qys+//PTl28+/n//1Q/23H+q//PXrty9/+/b1n7/85Y///+uPsTL+1398/c/4C//9h10tHyWFVUn/88d/SR89/99/+Pc/1v/j51+e1+ePOWX9WLi+6t9fE9anj92+W58/El1P+mhT1me4nrI/tq6vHdc3vZ5O69fH2rJ+8vqq1/P/D+D1+vmxxnfry0euuL4lWV8LrB8fe8n6zutHlfUT3tdZX/V6Nq9P5bv19SPT+v4xt6yv9Hz6Rx+yvtP+6Y/tcq1ffD35+/XtI9H7bbo/20eh62l6v43fV/sYRdZP+B7PP7fvn0//SAnXly3rCz3/9pGLrG90PfVjd1k/6e9X9VcD/cn1+q/1le636vd7Pghen7es3/S+in6P86OQPzmfn64f9HyK7v/1+ODerZf9vz4ar89N1i+6/uP+vvcnm5//ca9F1qO/zY/j7dPfpscJ+M5ANnTmEy8OrO+fUM4PH/Da4JyIRQ0G7dGkezSXx2++M5CXdgzaRoOc1WDDL+T9seSS6keDezgGcm4cAwoMjkGVX2gfFTzpMchVDchV5/W4gE+D/nj37wxGUgNypsegypse+DUfA91LA4/XPPXzP/+FNt/5517UoNNNf/qfTwP2GMcgJTUglxG3ONRgsUGXN73x0DkGNavBoKc0PrJELekj0ZvuGgbGRwtu5hgMM9h0D+eclECNI9lrMz8Z4G7t6gTCmYPnO9+XxO5xurCB7NZy42bawzF+GnB4dwwkfI+AgD6gE7987wQiQqEXd+K5rQbkW8PPmQG+6fox5JL6I+h4Z9CKGixylVWD1Ih6yKA8DvEnA/TeRT/RSEzomy4aJx2DTY812yWtR2jzzkA/oP2IVd4ZSKgasQbtpaSO7GSrhZ5SepyZTwaLtsbxQvILxwnAU9rqZc76DV/oVp9RC4YmdoTWiuHb0p1az+cENzw1+j/rF/z9s8lkfcfT7QTj8jzHI+x4s75/fy5UPm7HI/l7Wr/h+s+pIOsXhvPHx8v178dR93J902j7rCdf1PR6Wnp82G/WS9DWMnrTptnCWT/gm6wadrbjNwheehzzT+sRvtLst1X0EVVPj7Oe9lvVw6M1Tk8fyeLTegqzi3qgxjFw0ai8dc6ONJs66zul74pGnfWY/up+bgNDcss2z3pM1h5P+3P9fLyR1w5Xz+6znvb/J/j3uX7h+82P3fK0nuCcrP6z7ceJ8GZ9abp+4N+X86Vztpz0+fTPM/DN+vn9fusZz4ukz+esn/C+0iMU+1xfHk/g3fqs68nfJkV/esHz1BLxzudjeoRhT+spqHn19/n56PU3TOaSfr9nfcHrkfO3c3CcNBs96ydej+QDZz0lEEnRot4fcea7/dx1PYatmuue9QO/xzx0/aKMyfbD4DzUnufA/Z/1fDnrqRxUNHE468mfFPu+BsO3HzPpespkqj3/geWUz+zxc/3E+LPa9UyMBxzdnpgBtEdx6Wk9ne9N0eGznspT3b7f+bijN+uXrScoZmjWdtZTPDkUfe4LyyND472znspf8xENPq+H733qeXrWE5I0X1wP+cNl3+/C73E9dvvz9cPf3xr/xHrYP9vOx4Xxw7bz/SaeOQeMvOD5KHC9M9A75h2U3SVyShVAwZ8zKC9+AZ10UUA/DBh/KeaGJv1CtThoPjL7t6CTOwoyaHYyTSzMOdJ2DG6gOY39JuZuuZtzn7z5uka7cXowRNrt+KD0IfD+oQYI8w5NODrXF6NAYL9AX/Qx0JCLU6w8tCJ8DCjmOgarqgEmKZ9n6pMBkRCixpDVILNBle+h8U3PR5r6HGjSbp3m+drDtb02WI/A7MkAt/cyJ1Axl4hq0lID9BpL64aRTfAlTTPAGsNS/KxXLj9tczOF3f1+kXEhCLvtTZcH8PvOQG+6cMk92fYuXENPWkI7WSyhmJFGDTVAlkFSnLczLnwVm54Mbsri+uIS4vMl2yeacLceA/VLCXPfAGeqGhD4GeiP3QNFPwFHCTyzMb1+gY9tLrwXTVCPAQWspeiLa58MtNcG1SCyhZFA5EhFDfCxVj1FA/Rijs4QFPeEP0SSqkqCOwaNXlzTT/QY4GNtegK1wTw1R7oHkzhOqmdQZblhehnWenNJ28BWAiuD2rXUgLJbLze0xuy/bnh6w/wnCiAGqOPW6FqBapUJaFbabwXDn2LkgWNQmMIoIEzLmHSXoZFxVE1otw4tvLcbjtJUbky7YUFNKwRuBHY9k64bi9bHQL6HY4ClkKm1nKiN8U1PK6bhoTj1QKmcTRcLEutktttUtmedXD+xqLJOLogs5XfXwee0cZSOAe7WpYnfMWhsIBHZMUj04paibrVz6GCwSb1hlS7F0Y4B4SzFyGVRiGYeeVlqgETy/aI0jmHoVkygVqaSb6MnVAZvt1XHuXpRkwaJlcsj1eoRwTeA91CNCnkMyM1U52QU3HzRkGAUC4r5zj8L5lgzpsdB2VhqQCBxtSrh+S9UBahZYdy4K7qkYjyFxLh7UVr/DXOlFntxCSs3x0CdceZSf7V7yOgEjkEpakDF8tj9xo4hglyt1mxQMKU5BhIJxAdE76FqzBcXSQbNDpSKQEh4IfN8BMFXi4wr1wDDMbpvpRfXNH+oHVH4+Ht2PlCZtxr0WAem+HF8LDWgwmH1vpKbSle3p8SlpWpYZeUsqxpWWblYcQyE/XIMKEisRtyNIJGe0rDuno3Z7rlFSfFPoNvoHqZlu4mPrKmO7ATruL3nw6k8GVBJpC5LXssD431noCyPwk9pKWYcSRMbDONFIY9qaSE9iE50D1u99w3T6RiI976hOh2DZvk05XHHYJgB0Ztjbzrbib6HrWFoY/phswDrGNBNNyOItImusiU9sgKbIcZf0oartvCxXt/XkwHFfFcy/IyRgdeID9JQOHpxQTo0JJFy0WMgqENnNxM0xaQGVFNsFmAFokuXZNBjZ9ShFcWXAsYGJ9CMjHiDrLeqDQW9YNLUqt30Z4z2zkA43TcVjnBbVrCgyLgZ9Ng5LQs/ZwaE3bdmFb+GGXvzFs2OuEazeKl3rD+09oIWhO+hG+9iPIC8dwZatZwYVR6DaQaEtx7HKK1UN9SIcL3GTbn5BX2sN35pWjF4Yxh6DISJMBLTj6bWgY4B/sLSQHdkfkpLgcFjgF+cFSFHwY7iZqHDMaBQ+joNngxwe1tNcVREQ5s1Lx4D3BrWHjm4z+GcBkKsGw0rHHHeVDXAzgKjQo6OfI1zfEgYOjoCIXFAyWPlCke3Xt5jQB1qvWjBYkz+haJY5TGgrRHFZdnei5+StVKNhclrt2rZ2Li9j4F+Dxvzh+AdfH8Pk3sRj4Fc0mQRjt400J2cAwWdwwwI/blOtE+DgpFx8G6XGuCb7tZoXzFuvZi0TwbkBI6BkO0mEzyCG/v99zAb0i+C7FrVAOmdU3fr7Mi/7HYCHQN8D1NT/MmCDRch9dOAqwPBrZtqgB+QNVXPGzdj+fTk4KRbPn0M8HtYWuacnzov7wwE55uMzXQ7FCdHM8dA3/TiT9SINpOlG46BACHHgJq9hhFtjgFd0jEQrHIlPB+OgRRdVuJ+waQSAIvzuGMgrnIxjD0+aTVPBkTJH1mhx5URih/GzFkMY4+sXYDHoNOLyw+iwpMBZVnDVKkWV5qOQTcD8nwREsolNcx2h/FmVsMU/xiIMtVqWLUcVYlnq2OzZMSQZkCV12FQ/OqYlh0DyR8Wk0lHs906sJAaQWdSA8L5joHQwo4BaTeMrgW8Y0CR8Qk6BQJe3OQxhh5Za2ICfoLObL9A8OkwuuribvixFHVYHLeOpeDmMSAqzwk6BaZYnO1GlLrVgHzriVLlE92Jmz1cCyihEzghoWzvnRH3nlUxsp0RWZ9N0dBdMPY+0ZGUOTcLns2htazNnu9EFpLSbEawIlDoakAaS3Huyy9wF/Gyg/0YEEYWp/JUA0LWzxEoMnKblXeWYcabmf3HQMprm1vbliWveyD1+RhIir8nng/L+lA2lwjPmSnE5M28ymX16T3RGS8DNze3xiyTiNlMJl1dW/o2t3AtYwxu1ic6x0c1AxTFGJqxHwNCTuL4SGpAZf9jIGjo3pg0raX81r0R0V2WoeyNxIJlCcfeGC/FaWD3QIHusgNlb4Qet0X3m7vftymzhQH9gnF/jgE542Mg2P3e2Mi1/YzbWC07Bi+eEv1CUaZaGNA9FM2B9mYRmqIRWWw+8BrbRBZje9MvVDvjFsZ81xH4/Imygb6Hhbt1W0lkM43+GOj3cNPL2RUT2NzYuK1bd3MYegz0YOfzIc7MqQYEqu1hARY3cG9rRtvcgb5N4ucmErgO2adYg6qW2xTyjkGDE2gbV3o3RHTjNSU1wM03LQzl+sM2YvL5pIjEGHvTDAhJ3Na9FpExPVYrHO3CvcrLbjqz51tKo9+s3Hl5oeeEgx7rViTxGFBaFp7UsiwKdOOQNQMKTsK5VzUgjGwbzrcYGIwDKqnBzSVJeS3ClZtfsPSY4NNtOmjHgIKT6xh/BhH4KYkjWwMh4DD43gmsfvsLZoBuxg2YV/niHhqmxy8ea+VoZhuSWDGl2UZyXwV7msJAbjojcrJN8H1lZLVsA8qvZPOtE5DHmtjzbQNzEoc/JsM3N+bT2/h8k/OHSJGs/oBPaSmfb7JigZ9xN1WabaDa7Mg+3db4Pttd+KNVy8qbz8Tlo2pJl2Q845lZ76MpyDw2e41mBA/uF41zX8rN3NO0TdNuDMx2I3+QovzNiyv6AQ0Wsd9ZkcRRsSQSaZlwHbhgcQz0plmSe1sfysh8xlkP+OAq/k5aQ4mCGyfg2ry/WZzGDpSrjvnOQOl5CzHjtV8Io1CKvyyEuxF0Wub5Op/Ty1UX+Jw+BrI1QkOM0R9JXjunAxG7LDVA2M7K/p1bxdbQD6jXO4xM/FLoOhBWOV5wQ4nrcIId6ea8kQIMYNBEFBCVtlEcnYvBx0C50lyfPgY6HIRj71X1pm+a91c1xYKJ7j4w46YGdAItGwjRuP1zmf5SY03eY6AtGVx/WFZjb5VvOlnDRGUZ4m39DwUzxWmZYsv4pk84JWlZS/hY51Scr27M2Oe0vt2F2P008bU68dg9BgLFV668TpObu2mzmqZpX1mxYFo5obIAwWzWt1sxhJtWxa/Mig+ambV/EoJ1YkgB+6OplV6csSnKRpLKCTpVcX7ze8jaDl0Wslqm8WbKRHd/DKRaFrIKVJS3ckLp+JSOgRQhC2uJjqXuPuQeqYq/bKBCxUauYRIHoQ9DVfyp3J/CYegwvDV0eoivYXpkNwPgTiwvoUPhXprRbdDL5kuyczp0q2hrmMrmMUDVdhPDyxMbiIbVH0IDDT6gIAvJmDkuNw/rpck82OriwH8adP6AikaVIcBHZKFiT6mhIxsWCWSWSBsmZ5u5Wdm5cLneEQB1FhPThkeyF1ewLhokRhsPRcFJN3AzZ24FMGZOvqFvm1xGZkCqL60D5YSlqVDYFNwbwZ9La/JaT8SFPoxbhKmuU7EXks6cHM6yp92G8/AUtrNeOoG4K7ObeBSrU3Xr8h/8gqtCY9zv1asJNiKVpbtCKhaxvW+DO9y8MYTDwkgdpUOUn2fWXLLxfrbeGZZA6MkU0bivJSlhpGFpLPLS759/xe8l+mUlV0DPHi1YEtNyy9YycQ9uqlza3Mplg2YqSKxDc3JeeT7cQN88UOM2bNMrLRibNsO2C+63ZnhN4fc1bBYS5o5t6FF/05LX9Xsv3Lzc1f8XbsizKauFuxabXw+FZ61Z4IFV2GZ0knzXVbx1Pe63qmzdzN+vzaVhrCz0Ipau52Zzm5KM/ZDZpzCTP7wkNa71pPLUrGkiY5bfkk0F5c5dm7vFJb+69Tzl4X51KzPnZmr20nwjsfaFzd3iMS3VWqaYWF2t7zjxGKep5ykjrdUUpRPmMtXS3MQaLUPrPzeqMUPPu8RiJV15swnjmdAzsr/Pqk6S7N08H0OuuU08NJ30eaKUULUJnXfaXTbVHaVZqpajM8ar1eZ+3P59TanuhL6K+RN6ntXyVBZ0q8q24gyv2tTpdCcjVtQ/EGBYDcO8kYurypm48VdV2fj36+16+Pl3ux7WZev69ylfqHZe34hKvTjfiUxXbR4EqzZUK+ozzSCep52n5P9tAun996jXc/c96vdCArnVBmwwsc+/l4yEm5ff45/63hMLQ5k/SVhIcX+VkLPxp9fbXKOEEG0o/ul5RD0Z1foOWefkrN96/eg/Lb9gTPrVeU2aJWf91uvHv29aAom/d5s7yoSwiH90v+H+n1quTPw9GoOZB91G4VDfF6pUWuXkJr5a/n6pBlcNAb2Jl4zHmzDfqYbhctEkdN30eVKltZkMLucLLSseyOfRWd8t3+H8UUFu9M+teH5NeFcrni+T/2kv4j3EK2zkNkvHNmPVcY/+WV/1fgmPbTb3nOd/NJvrm+/ktyy+pXywdS3fZoyXQvdQ8QHET4bNqkd/HtJbiu9RfnENc3jCl+h6bCARF3liKqxeD47xs/6MwniI5eOFBQ1t7lxhLUBr+S2MLy0jn7Cm1zZmCPsHn1vO+L+xBW6keYxcyfzQbnNBWc20u2Ql13es0Nnw/OrZBqIgXndNwb3Wo7ZLsXlzrI1kHX6dr78aNw/x8Bh0pfUslC0y0eqB+GFv2u7Bvdzdmvt4jHTv2uEykQgSM9+EPc/7cyg/7UYdyAihPEojtBa1nov1X4vfmJvWbUQEEym7cXcys+WOgSg0Zc74gzttZXsqYQzjFB4DZKUkfaaZix7DNA2OAaq52KCBzNPZhjUbZ/ajw+M+doyjaGdv5sroMMmOfMPSqlpazzzCedi8q2NAxZjQfpSbZtXmY6DViRtFmqbuMbO/iH4IMVjMPzK9+mOA3J1uiBM3C4xhu5Wl24dRyAvPfzsGWrTlqs/wKiyX6cbUYzbqqvQ92DCda+L0OwMNBBuTriwTPQao9rWVPVp49sFMirUV1tdz3Z5gs7Buj6B/ZaHXOAZSnowBPiSSY3PHC4+vmhbAVK5gTZPxrJwCTksZKytaTlPlrEySmD60ojE52sbfxtwLenE+IaIzwXsYj2SgJto0ICpKi/TiXk0Fox696QOyNuZqc1kPBosKXjKInwaMth8DnWFXuIkp2fyGgt/DyvriGo+ODc1BITA1/B6WzdZsPIJrFWueYbXgVTXWCD1tagupNoyT+xeWsTIaN7kuO6eDCEW/YPJgoRTNYkUqrJ74sXYbf5tZGajrTXfGjpbJ5UV2SffgOunlTg5JQofOapDL6ASd8/llorOdlXbXMul27qWPtkH5BRbOXctS7o412GOgI94HgiTLZy8PDH+WJU198vdgAgL9Rrxr2+bj/rZQBJSntLlh2nTSO0cC20YpXyKx7wyEKzyY7LCtv23wQKBjINn9YHhuF5Nu5ymq23XSb1rji0bGg5VFQ9JJWrJ5zOS2vqox+cU55rOQNLCt6Dg4QwlVQ0FxmLaxu95DtGaRgfnWyR1D29QgI2ykFzc19p43L24qdXIO3hpLawtz3opRyGPlOa176djVaLdkFRGBoybjUSHZIf0CifWTzFWum279rRW8Y4BOYOspGjolrCIimMDiIszeupdWYZWpre8hYjSWTpGy0OIxYtskChYT47dN1LrXvFGDW1UdbT251e1xiWSCvHJKmsgtnuH7yoIBoxcXNTHaePEmFruyrSXJkF5gySWJZ9a6U+4Rz7RYojK+iKYGN9tPaLw7scqHCV5sxqW3FcZ2wv6zvU13LWP0vbdGrpvj+/CuctPc676XPaXCb3qZ1m5FumQcKUUNbo4UFRhurKVoSF8o7LFckWQQoeXDKoEChYRaEJ1B055SZ2nEaUKeg78HqwLdSBhvG2C1ue7l4clmpfTQaHKBYRZ1UqnQWxFMgRE2a9KENLVpi6KGn4kUhJQhbQ0bTxtShmygWoo3knzV+jEZqNiGnYSnIldZTTVzI3p/fMS0S6Ia9jFQMVLGTnZR0tPed6JOKul9I65lar5PJ/E7i2x3jYdcMj3szV4g2d5g8QfPwa+D9Z2B7w3UZzE9uxtZ5YgUfDOxgehR3IlPz1fy1gwx6RHEwMMJ2V5IdLMikvRs7XWHDareKUdYx0DVSBdGicsy5Cu5e2cgEFOcxAy5ur/H3VrtTU/EEZbPfJh47i6bvLonK59njXQ3zw9Z2bb3zSSAbFtjYD/oNZToyQC/B4PJ9uDakeV+m6cDTlMp2NzTHYpI8sU19HxzKky2eWLPdPFp1o0KgcmkBkQKmc14M0zEm9Zosgum1NPKKJvlS2e2X0h808lcZcKh7cOoM4ELU+XfRgdEIsdldkVbWO59TBtItdAJDAu+44hh9oLmxyy8Nqw0GmcSXZJxwqLsQVQBOx/W5Ik9XZ1A6ADyLwiutliMPXgqhoXgPVgRPIQD+Rd0Ghqrt4cyqBlQrDGs92p1PBSHNS8tdmTD2O6LR0gPm8iwWOVs2MyHVfkpWQP3upGyMkmxG2zQyWqLXeU1qPjJALk2yeBKloYeVgqKk5vnD0pkHFqGfEnVDAhnvuY/P8HGyFR13I7LWVEem2pAWht9m+gxu/uYNFnUgM7pbmKKk8eBhMCRXBIrhHXjv8/FY04NwpoLo/tgxEop6EYiaOqLmzcaQdZjFQKOLLokjmyyxF63rq9jQIzVPjVuneyMu9F/Lo7SawNr7JgdgY1us/sm8+deTPFtyMDoQ33rMcAPaNiYU1Y563awz4oZygt5Kpa37kYPnTzGLtgQWw0o8evNNh9LiPSmqNpkzY5ebcAzN+2FCFZTA5xEbGK7Y/MHVBSGG1zi6EWD9cEZ+0XF+TSY/KaNWhmhL71pa1UZTGbuWTGBwYLB3TT5YqQnd/PIsRuRLD2lpGDOMUA9ICtcDi6zNxMMHszFbFt9a1A2+JL0sVZMy6JnS36BnUBbptPPY3+j62yqAcrqLG3birCRdbckfxhc/WomlT5Y+aZNxZeisYNbF0V6pTMaGtpbf0p2P8S3jCRF50OzmaKdRyKGILfJ7t/8guv0o4BbM51+HhLRDHrsXMw6Bkr04tHFodmV1eCmiVeK7L2z6pipwkafGT1WSy17wzC0mQ5OKD/eCIPJU2IGRjPWbeeOhpAS80kAtDUMoO03za1FI7J+oxZn2W6cemygcpIZj6xmp2i/bbCXhKOzBGuz+bSdJVibSeE2Lrq0pAlH29j02ZJWOBqXLVtSyKstLLq0pOyIxn2QLSkm0FhmvG7NHxpHM8dAlEEuLcV3BiK9cwxQq8RGwLWOh2K1SOAYEHxal4I5jeVPXW7uEkh8ZyD6Ba2x4NBS733ToFCNEtK4RbwuJZU31gStU9uaGoc/1fLpxjmQq+A1HljoMi3tRjfMpmW2W+E8AXMql8CPgVTLbtpp6tDBYHWx9paRaOti8ZiuGUrlmdOutlcZWY82KTHgqaWhV2SDLvADaupmKuPe1TTua2eJvqZ0imOArrJp9bjymKLzz9rLxTB2NZZKbSwb5bM3GMZ23bRQLrsRQstqcKPUJ36pMoxdq30PDGOff5byWmUYuxaF4itnWbWY2jIr0NeiGUq90XMz/YrKQHm1ckJlBdmatZu4Zsynq9XYK3dlVNNUOo+BcqBqRfnKE3CrVV7j3dNTSprthvAcOQHr9b2UON8Z6DfN53QxGvDlFt4ZCLh5icm9MxD6aW34xRUj6YYj40tS9RoOsIrJ+R4Dgh5j3I55bwpDo//Zzgf64mJAgp9AsJfKss03cPOVZSfQRFZvMVHiOjF0KNZdXyemNGVptnsMiGhTljmyhallsTGnlVtGy7QXt7ApNZRfLMDCD8iobXUjGlqmxUs8OLJ43Mod0cdASOuN9e2KsSlaxm6D0OsxA8KXroEYT8E65aJlqKRWY83/MpTV0higLV0B2sZdrMVUKkNnjl5ctwS88T10RXQD+aO91LW7PpJXNpAPqLG0U2nWLM/yFJc01pMBbj4bttKY5V6ajUScCNsVI6k0LgYXgx7bxIw99MxkLy0+H6z4Fb3vdNM2wardOLJqGmQ8c7pUG6LCHPRSLNvlsUPFeDOddVuLyRddk1jeGSh2zzjfpUjzZEBs7FB6NKySZsGUbF3dLL55aTM/o6H0WK0jumcEmYsNRw6AlvZSUpiiM9RSDEnsN+7ekMTOzZDZkMTOs/uOgWoQFEw4joFw4TqrKOat7KJeMcDKRsTsFf1Stppi58FCeSlmHAUL2N7HQCrgveEJlC3m6zyVLpSyhhrQoZinch16R+7PMVBZBCapxLRBq2URIHUMdHvzjN1sZc7eMY/Lwwp4nXfr0OAkRA3pkoaiDjd6FtlGUx4DKhxlU+m+KUIeAx14Pvimu9V2OQc6BqpnMdEv5WZuZiI2k01KOMQcaXsb0aaz8EI2os0xIO+dTUDvIru9MxCY4kZXJNtU674whIshjkMNCDnJhmB1noCbs4UOzCjPBhd1FvW8JDCfDAimeCW+gj1+dugyGWkrFNoXHqF+mCxsITTSZl+ILxs9pXO/1FSg9Xa9RpMLvzST4rhkUN+s16o0P08bAtAXShs4MYUbXYdigX3x1EgLeBYTI01CaXJR3T6YidWAZkMmJ1OuTAOKPamzOSaSKH2o5g0eZkyLyQCD5rV94vsyLmEcZnRyvOD4oGyFAlVnPb2vbO+Lu+Cy+R8uuplIXh/4PE33MiIceL9Jex1D4Qv8W9ISRu/o35IiVBE1gr9K9n47JuTJYsaGqakNzesNc99ksm+foci79X+K/OTrK4Z/fj0Vi+c26blXBC2TtszfMKWS6bcxUSrpUMqzniKOZOcRK1gn42Gx/m56wXmiQo3xgHviYNpAso37LRsqzWzsbGykxaG3Pp82kSWQtZDVJhbjssG/PHQ+2xCDgf4ka1zfuN2jGODdGb82QLAzrvQCjCZOhA2ZaQ3P92JDmBuX+WwIQ0XGqVX6W8X4zbiaQcakMrxxqArTifR7bNxrXI0rdzPFxnhpPLWwaT2w8dRLA/Zv6lZWaoixThh/an2SpYWNdl0n9z2/oB3R+WWKEnUgNX0aYYcleadxjnjK+dJ4tfL+X9oTcY3Fe5M/KsuKp+R4XZ+nFJneXWUg/CTYKh2dULImJyuJJ6RB5mRzija7aGOtxFOjMyBrEFo4ic/W+VtYoSMXRZ0LpyW56Ll3VXPfGajw/0CeWLbxjoXJcdlcaRQ2/xSkdSPLn6s6i8I0l2zZZ6kcrTS7aR7mkU3N+jqB3hkITH0die8MBAGIuVe0lyylj8FgjNhKzlG49JRtElqkjXQPBvHezL7NXdPcwpqAudsw9n0HtQsQk28C36Gf6FX5eYvNy8iTxZ5vKGM8MxaZpx7OmXXc8lR0KLM4dRRVphrQcZunng/5Jl62qUeZRXTyUg5uZjHebJBn7niE5qUHSmZyXLZmgsxSEnkrQzZX5AFka43MLKKTTWooF8SJHKjIBStJ1zTbT4OMmfg1rv7JgEJ5z2XzbZVeJyslDOaLRQKZG4SKMWQ3M3WMaMDtQcV6org7qFjTFTcHlWLiAih3EEeNrsds02jTE9E9TwcH36911t3wmIw/w2ijp4OduV42g7wj2lW8uxEPzghXdOYfRaqRPko6i017wcIS+AerKdeIxWs9VTvOP8t+aExfMqLaLZtPqdX8wXdjwyJHoNhkEBbdje2iM0Tx+7I25cKkH5tpzdldGfo8bxg8FiAU9oc2k5WHg0X6K2Eao0vGwM5MwN4K53OLRDH9bNbHOKmowGmJe5iSZizM4a02A5UnalVriU2YmNbyYmY5XY/Bk9zY700t9+vtenh9sesh9M3gUqYe1qKZDcv2VeuSTtwP9mr9zfXremwUtPOd0cCr++ZpPe+HovsZO4qKoj+J0dvb9ed//Prj7z/98X/++vM//vHb79++/v3L87//9eu3L3/79vWfv/zl8z/99tOPv345/+9/AQ==);lineShape=1;" vertex="1" parent="1">
                    <mxGeometry x="328.33148383218554" y="53.86871394189566" width="83.33249408011062" height="89.40505439948957" as="geometry"/>
                </mxCell>
                <mxCell id="77" value="" style="shape=stencil(7Z3JkgRHjmS/htcUt93s3DPzHyVSrGZJ1xRLWOxZ/n4MzYmMDFWPZ8xbtwhvXBwZvpgZAIVC8UP5l3/+9Kd//PhDvv756y8//9uP//uvf/71px/Kf/sh57/+/acff/nrr/uffij//YfyL3/5+Zcf//WXn//973/+7d//8ae4Mv7pf/78v+Iv/J/f7Fr6mDWs8vV/f/sv5SOV//gP/+O36//2179/ub6uj3HJ9bPD9fOj5Jfr60cZcH3/mEOuXwmubx+lvFzfPlqG68tHf72f/pHp7+/3U+T6Bc9b1sd6fZ/jY8D7LPPjmi/Xz48G91P27a6X69dHrnB9/aivfz9dH9cFBvmjNzUYEwyuj/n6RlP6aPCJ9x0nMcgfBd7pfoX1dc2lvUgbGLSPsdRgLjDYi1IM6keHz7BX/SW3tBcivKWcPvrruk79I9Fbuj5qVYMFBmkvBPlwe+mRwXzs9E+DvfbgGfbfS/LQ67H77g32I74+w36qBItvv8Q01GCRwf5wrw8dL5puqTzW5qdBfvyJe4Osyzu+PRmkjyEGew/CkbT31/8/UT4N2seC1boNmjz0Xhp0S5d+6X3KXPCW7JDf/6XAIyw95Peh0GElzcftfl6fPxJst/nYjJ/XFzwl50cWJ7W9CNzP3iivX2AfsxVeqB1IZTzc6Jvr5f1vN5Hgfj53+qcTvPB+ujrx7bYGnKj9Y7y+z+0W6TDqH+31eKwVv+++/vV5K3vZ/bbl7+/3ic9bX7/XDkvI6+/rJUhIH5mvf13PLX+sb11fPxq+f72+4/rv6gvaeBwBv+/9tPkx8XvJ++/X4X7a6/rp+31+Zz30/Pgi765/PR96Qc/UH2/78/r6OITfXN/lfhoeoP3hSD+vHx8F3FLXILBPvJ/xOA0+g8YL1+d4nAaf1yfcL3s3vZ5Xo2DENTWUGPURBr+5Xv9+x/Ww1GuP8QjL31y/5O9PvJ/wkGKwMGzfTltO6Jk+LtgB4eWHGuAvZD2DZmaDotHWLBzPFU1VZsVAPGLc188wG8dzTffZ5HMr2UbeBhSI7xBTwrO5VwYFgDs0kFuajwzpXZgsucE2oBDzGYF+GqzH6noX6kt0s65HkndvkB/v5IsBuY8dgQ77hQXxxw4oZcMtDpMjonj1UCt/XJRB7Tw/qQGFLLGnhxpQTFH2jqtqMOAXdkwpUd3KGBXtoHLaM2DqWx9e9asBvKXSNNQ/GYxHnP7FYFL6Ph8b8qsBAQpLT76DQbVk4nBLOxa9/MPBQ9f8ze+wo9Hmv0Co1HZPtvhoLdWp+X4YwI7bBsveEv7CultLYNCuBzD2Ox96x7y+48ihtHL34eA77Kg3fWs/ND+XePE1y0TCAA6yHShP23EUKrX1gJa+GlBudD2An68GFKymu2cgg8+3/nsN6s2HI7fb280zEOzauyIE65AhDQ2JTwbrZi0R0rxD5uqLD54hYmbzcRW+9A6akz3DRQaGTm23S3nqaI8b+OrY6RksM9wGid7SUKRzRzMUqu9Iu0j4MxHB35H29Xou7RCuwuLbBgKN7iCRYr556WvdcSsdZNtgyUMzHrRj+X6pAQGXO5avFqxTzLf/d7Z0gCC5uAF5SxeeS/udiJ+OFw2L7xnLf8myMmWJhgfv5Ugua68cNWhYvdhr83r9cKPwLyx1uyNjOrC3i6C1+xyhc2nvYPnS+6QibCLOCAEnJifHWdG5fXhSyWYVjWb2eU4R2TaQULpzuWNV/XC9fFQ2kHNpOzFCPLdBNwgKv0NVx749N6U0q2kI1+ZjD741eD1mdvRBbjcMXj3Qjm8qbKAweH3oHUHhl276HVp+QGtvDV6Xd7uwthAGAiUvrI8sK9nUwWupKThf28MRvzUQNLkgWhcGrx9uZxR0eoeB4e0JzqUweH2tzzru7/zSpT9itHfLW6L7nWxetJb2BpJCfsbTextI5bxcj8D03akhIdzO4akStg0Ehs7jgTi9O/nk9H4i9+8MJJrJjQ2M7pArn96XvtZcEJoND/S6NHLG17oNxO0GgEROcepq3QaZIoGhXzpfp0hAAqy0+JaMhRHVaAod6sMFfhpw7TniJatuU0qzwymJW6N8TQbJOACdi4yXVkESH2Qe6KaGZJtAucWgYt1nG0iskQqSBnY6oN+hPOKb35lwpENa9snH+WKAv1D11EjpcSy8S8tyVQPiYuyQ8JJbutCx75BQ8NZtQM/Ql9YfDqybCAlfb4mDmYgI9Xoq6ERAKMkxF/iqrryJxYodDsrJPRk/yIpFMQjfk/qew/VGSpp4WkTseOn1hHTZGTxxF+zIUSCciUfFDhyzJNEMpBVlSEwGD7MGw1ygbMZGmoitBPyp7wevH/7+6X7q9lB2PwTHNj0jJiIGtfr7R4y76DnKBcqa1HdMTObLsnIj7q8IR22/EE2wa/mG93sxwHCinylVGQ8L0Y7g9wi+iOnjjnWlMrkQpCpJGQ983u7QuOj1BCDF7UowcSEJLA/9wInz3x0Za7iSEGbbkfFlnpsyimxUuW1AYWPOmuSkghn2DkMF6YgaNvxC8A3F4JO5eW8wHp/piwGyKLtCI1H0hp2TmoUr/ZFz3xtUo792PLtSVt+dBkYfeyF0C64Jp461udSA3MdSmHp/mIp8PyVdXoj7GV9lZziUaQ6t2UQKRfWOR67xJamjrdC1CruzRkIVDcbf/4US36oUg/1EtHGq8i2fjMr740sXRJC28XpFK7jglPV9RmWciv+KGZWOhcWkBeHt3+h9Jq0HVz59k3qzyoWdZHhRwZMxafRRG3OIDcDq6M7SI9n+gsFR+OT3v07PKzjlZzz4O6/nFM6vL4fvJdFWO5zq+rw7HieM0u9n8on7AMO/gNcZv6/yDzPyY5PSRnZ+RohPVp/UO/IVjWrWJ/K9i/H9eD0Y0Wyn4OQvjGc22M13o/t1DBeNvz0GpldT18PgrhvrcAmsCL6XYYYzIZ88WnIkXcoY3ydbobMwgzIrKjnrKUpRXl17QKf3BsVSoI7F8R04yakYhWXaNVbAOXEDmxLxJqcdHi0G1Y/jUclzF9djdiAmtNGVsKHM24ACJOcg/IZoQYlE0gLOE+h/lxfoL3ABJxvYG/VEaseqSoiO8iBxNJtGXM8a0Lv8TBPShmwrzwBXx+/gfXSr4yFQjFG8BoLuxWlBg7Peprz9bUCw2w7jlJM2sZBWjBGwuDgedMWhBgT2RiWvqQH58qArdvuF79EVJ5ZMa1WwbrG73dGiNK2uT7rtO3is+1ti/O3mGb4F8B2eod19BzRID0T769IguqJlIWtieWUHmcqrG+hFm6HisYHolpoSj7YBvdY2NHKIQ4CA3KlA6OLWi7bsLTWMhQNKl6VRmbmX7ZjhbLkXLdVt/0ChQ6/2DBnhuCcf5qtTZH6jRGRBmKdbcn7jxRUT64HcBrQf+tKzdS5cfOMzx/8S/pDbHUlr3REvEfvQe1rGiUEpocOO+ciLjqJvaRsQUrMThSG31DB0cMplBLr0lqwZbIfSxDnYuYV40clE7Sj7ypdO/FqXhj/BDWQG5WVkQqQrGoKxb5JuKRIYSZmY+7HfiaQDzxd9b1DUoexPSdzx6VlrRdRpWlQ5Crc1N2NQZsz7toGQ2PYepFD6mSJ9ybwLMTOstTCI1bQ0hp4anXub9xkhdPbO4EoQjo2uiESLpaSdzh31y6o128UgF+rS7xBOjGhBRhbpzMbdBuJQtiOmimg4KMG4JtOzTKigcXq8LMtqjJqEVxZYrDFd0RKOHXIdSJ1FgDpuvgjWmzx0Yo5m1dO7nXmm0pu+TrckLmvHynRqhIF1v1OmuKySV5n/HgbS71+RxLasILGTHKLkr6pAyM67CPHdBpJPF9YSWVaRL+NEcpZ22BB1YAOJZkplnmk2GYvy6EZ9ZyAtKuXATs/KKC4XAt3LZGaisE3PkDT2zpxlLWuHjW53+nCXhj+5cbO3q5VUbCWdLldSMLoPD/R6auT8CEzf+Tj9hcTxkmnr5Avj1gicjUFJSOI0DYPEFORnj8ynwUDRjx3+iNtNzMadtuNSQ6xyx3ziUFJDVnRwNF8/XNT/qZC8NJROBSGvYVB/4k64HaVKVJl4Tw+jIj3r9e9yIKUkpAf7711apiyJizOUy5JXZLP1pbyNxQn+1LXK7LcdcarOAJY/u+m7DDySot0xy/VUjurWezVwmXZTB+sYunWrb3dETXesKe+zPTbSO8xH9WOQXtBM/4MTpR1oCmRaGdprGqoWDKmaBwvoyVux05dxPRPzyMj52SGjQJMZy4F1agyZ0Ivv+E/Ycokb5psmF4npJtX4OyfRRGkKSrhfqr1Pzmqra93h9cXZdXg/O1Jcdj+kumB6WolFGV1vELuydlzp1xMdp/j1WLdJmlFkFLMpScNMdmHlMl2/R3x0e322FpeC4VY2EQumBcZxrKKh1EySu55XDf1LUCcFscAm62CH6flPRd5nS9HTv1BxPnu3MT+vAbuca2WDQ9KF/KCnrOMXAzqxgi9oTR4kqhOERIkteY3eMD/LqTSvTU+FORWmgZAqixvZsksNsYfUlLWxbxJVqao1qnAJbBtoKwwrPe53ooKbTG1JWbmH+cAFs9aEzL3GydhyufFbMqWIEISDh15aJ4wDitJ2xVzjL6DcmoBYJeHannocFZZZMdJJqXj+Ds1QCvcxW7GsdPQHVp0OBw3vvysOHwEA3o/SLa/D/Qvd9RnA3Md/Ssc7yGdauFu5xNQ0La6MXDVNB3YASf6mmZwng0RN6dtRm6f4WFXfnkpC766X9IS5Zn59Rw6I3w/nh0Y/fCZQ766XGgsXA5ruxxBHwO8lR2hn+dtmmuXsmLqFN0w37kZ3HZzPW0lpIcZoGjWDo4mp9PwoTMP9TH0/o2J4s1RIbjREbJKLigxM6JNp20V5ldUkJSMYvIWjscZKxMgjrDecVAIZknFdJmtTJIvaZ2H5SQNVZ2Ua/bKuvIosjohl5KEZKcmmJzBZeuWJTH8adGSXZUNhZ0dA0sV/J5eTsr9WLtUHOmgGdJ56t13g45Swm/LcnOhxdkCjH25izaA041jME4agcqwHg6maCJP39A5qlCfCz7CjGhXOmnjuVV+tE0PrHdeolteBC2mZ7zzQM5vpkTHWu0Oh5kuD+JxDweo5Mfqt5h62AWWO1en7A/G9dhnPnPsPoqhte5qyrpatX54Vq0N4SI5KxiyaYehRkeIWeG3x7hxFDtMUaEipa0th2W1AoMIzTPtiQA6lGyljsnBWN4rp5Mp7b4/M5otTJIfSLRibBdnHO1aTaHL7aSL49Kn9p09tlfvw7bK1xD0Lw9hl24DkKZ7x3Zdohs7WUTTl2fESpRjD9Mh2RIYjJJp+6cHHzOj6WsfgoRPDKHXcODymBYmd22iXimnvp0Kd+Eu/w+AAK76rVNIK8nWm8aYGw3hRU5ZfYKBwOvh64OBZKD0uLCcEj1DIYosJDSbd2LmjwHmEe5cTQjK7jcHiCQjhPiRHrKwhNZWeGRw8ImVM/dLPsui9wbJn4ENgXUohagtxmxCHFOCD+19WUqm6EH6Bt+R8ndZQ+n1ZX14UR5lHKJFxY7rystBhBxPICCpG2kssVVf05Kt8GD+7vz4NuIcnCG82gAZ5Uw65HaQbu6aWtTANymjjNWNwEs1crx9uh++0p9fQLttyYCqaqHlh1Zo19bg/cfCmkrq3AfmHbaAqhoOXt/m4cmC9TgVvy2CBy6XFznKgZ5pISRmY0qxltMCBeOOyk6/wPKBtINWzbUAI/TYQVlN8aX4GnSM5WRzSQIRtgD3VVoUpnO2m69L1vTPmwz1JzTB0mmjL2WCaysisv6bKyiD+IerxQzjBGU/jpTXDfd7jOWOLabugw5eTsLJ15GduAwXgJ+opxA4yAQYqAS5rI+2Mbi6j8PTCXnGq3+2VmelTu9V7PzkIYfFEExr7LI0SF38HK6TtSBcJzlbZeGotvvPschoPxoBXtVuqLPtctDgTbUK0WrNlHJ07BLKGAjtTQ9640TEGq7Mta8EcC+PQacNEJg9xnTauJNB+Cr6NUjUPNZdugCuTgIKvXNUAUxRTQJ48pXD/PZ1O1RDdnKarEt2InL3q8IRDU9ulfIyDxsUwZvrkxTfGDRaP4xm6JnKhys/QiZTL5sLmkegKtflXNN93GI4dMs1kcJk8YEJeTDeHshI+Q5+a+R1mg0SHsfUwE+m023549p/cG1R76IJYfC8m0sgT5wIOFYPKxOVk7e3c2rETdMFaotOIcGxLIBY38TTzootFmXfs4gaIYzcTJ2n80IYXLeYn7oy+2Wul0mu7+9IUa7Rq+sQMCrRmeikJl8b+Dqq4utDt7qWhE1S4mNWTdXp3bKDvxaoulXkOXXnJs5xkn7UafJCuvpRCOPgtBZYpXIfDKNKsghKhjcXtKVLGHyy07iIAYUA+rmgldQwWASiaUIcB+YeiCXUYHHpybIIpLe9ha2mwxKMrH8ToJna7lz0DFaiHdecOlgO6NcClUTUBH0wUGMVi73n60tMMCNId2UQA1kkUQxUoEoc/yUI4FveLWb92amTy086/qLyBkpF/ykmnQ+kUPDUvmtqsRohvqWviNxPK5u7vqnX/w6SzZRuIxdymzQA+rKVpMqbjUHUptkU750DFiGQNl8ZeCFKgDuVEuqVmt1QQe5yuzcg4dowVkx3HVH+vTQ2etjCNr9wXhnDT9IXPGhfCLDhgM3OqWE9vLLthkso7+kBg0DLFzk1oy0SeO0+9WJdiAqcJWy7LOrGvbJlQdTsg5Ta5Y0fjKOyRTfm1sfJB1rcUQ025RV8S8MZk8Odkza94K304I8O1QyGoKIek8VG5LCKrXG9eRYP1kKyg12pF9sotVMvmI9bKGJmpmVQWEfOpefWwgQymqExLjnT79aELT0Va1lwT5bLDL0gxq5+eQX+hckW7aDpQCo93s2A9dCoPBlIuS4xKm1xcYbVlX3z5+B0Epsg8CXMZT/LZQ/PuEJByQjSt8LmkPUgNQ4eYpi49yvV0LgkamguicHFUShdoRrfrkkaZaV4r2wSKdZQ0kpa8yS6rav6QJp8a1juTeH5u1FCsYQ6XhlVpQp6ePpxJh+zvgFt02Ii6wofAtHkDDVOaKOPLfmBt5zVt4gO3hC0rWOTF0zyXIieFRTGWNy2zBOQNUSDzYEsbNV54WptXLQvzVZd1IpaOc3eWddYXlrrYBrLjznV/NVgstWavdbtdPCpNmrayvEFwSKSfj7PdZblo5YbKZdWBKPszl2dZgIVVfNOn3iEcToa17pvGI+qCwCRxa8Jq2bJRgS2zEFo3fh53YC/TvQhWOvPC5FxqPGrcB722gd03q2rltbHe4qrqdndahsd9NWJlQhRuFeWFda68evgTpSTOgbQBsqGAUORxJjKJkUAykcnJPIFkPY1chIz02Fi92HRo0lKDhzZMO4wHixs++4W+YDPkFKOLRBAsFmicVoQcHb9DgDkGxSOrt2nCMZjmNesNUx+n25rq2LzwEJhFI4F5aLe3UbKB6BK+lKyTqyC4GXK9znVgAV/ts6roUG4kghvifDfEgs7IukWVQflgXWT9Dgf16H7TXIbVgWbI+sTq8TChr8lzBIeRhQKX4+qA1nYvTPG7V8ATnnzdiPcrsRJ512rZMxW8N6i6NMJjHKa9FjXAtqk7ngCxKbz1a1WM+bYblwLeU4b13sDyuKjic8lcdfPbaYarck4YE2hZce9tgF2Bl40jYBi7mczxYhQuIryiBoTz3XAdCvqH/R1UN5/F1PbS0MV38TApU4+bLOC7N5AyETqPI7BWlziMqZCabJJRRchrGHIyC1ePjSY5WdNrFOsw5VMjisHdDPgw1uOep4ZFqcuE9pHaZqPGJ3OwtoG+Vh6JOqqicPFaucau8wsOlVdn22U8yIYpYM/CU+hN23ky9Tke2ick8JduVgEnGv0wAcNZMEMZxR6aJ+iNbCXzhsjJMM3D2U5D5aXlaB5Uk5bN+ObemD4t5uOkqQ/bQDwXshtBPLSY6Wy1kWzPvOvdYSxo6OJRsN1Ovmfu+C7WcOYmBevBScxqQIdAm+ZFC66l1m240kHw1Hj3T63+d25XxwYV7q23muLJsWdtwVsHUVgTRQhuKOk0LG39CgOWYdVxZjxWso6bOXSoNWFKX/GWyODuO9CpUbNRn7nMWZNqRR7WUjHezCr4DNGGZcRkWnxPSPmLAQ6ua5ZwcGtwqXZLXEMpVtBePBaimErhulgO5jLHzsSz0Oi0YZSoFGSygJNltrMhupPbrEIm1TwQgWq5GMuLe2micmVqR5QO5GS3xKG0S5XOyrpWy7SICst8TpUTnEflUQ90CaBN3YROuJ0hGe4d7Di6Je/L4onw20B5xgzmpKKtk6PzDOqie3pwip+sKP8kf94b5BviGSrAGruocy0r2VSsPvhLG1zUmQCYTMq5sxxMaNUJUy1hDrQNZMe1xU3gRiPjqXIW5raOh/3SoPUkoaDpfeNpUtYw3viN2vS2xnI50yQgEgPemiztyIm859QCU+WuT2tcrTwKdFrlkaWmpi7p2rmEYH+fM7GpBNVaDuq74phrZrqpAh+VMxIbNlMOI3m0uFwOpS7dX6VjKP8cBvJpwBsmJfWApfK4elM1KZmFrg3JLDwTJWVV7ipc9EnGaM+Tb8mmjefBcpbNdKuZ4phM1jW0Hsmga7KQGfVINscgZ+S8JNMcOUxiSFMLJjmxWPdQnDFnPN2T6S4ehoXsh5YQ8inf/84gC+GKhelC6VQeeiAAEGOQhA61WKHcBm+Xi7UuTEZxbyB8SzaFqPAQ922gVKLKx0wzdhNzwMJADsp52kCyNMrCCnxsUdf3OBiYL6F0JBm+Vbn99MaAZwXd3BLrzN0YcLyWbNrFQe7bX2tjRcH4cCb4Tel5skJuTNYm/9BM9eq4RQXvbTzTKhn02S++Jcu2A6o8pIUmuUYV+G0wjYaDXtQ1SgbKdSSXTZlYokzWqhaSI4QYWJdKDLhlBWYdA5yw4ynbsK2Rsec2fKZpFiIQYwXEUdEpZpvvE1Op6aEN3xodYfTsk4kHxnzbQBtcJ0M9xvYbTLjKw5ROLwywYiiOoR4EMfhcjZnxINteWWVFmQJfLo2XJjN4Y3ynFXLpECi2+GZDl1WKKbl03A/FGItzYH4Vft/kv6lgUsyhRMcePbSL4A4e2NVMPID1zW4NUMLcopkQuKTvYI79LGG+DI2l+njxUjE3O5R6IzCOb6maxvPE6nWpeszELdGHKzcPTcygYsMwTzLs1gczJw9zS6YKNHl5+yEwcE/nqV29J0l/155nmma2wVGTGzZyudFOIsceQ5zklgr2SebLNhCPWE9TaWnz4lDaBZUXj7ho1izNsqLpTgCB2H7JqnUxOYRCuGRu9wC1WFlpcFRpAoTjMFFay7h9oUucphPMaODQvrYdsyIJVDdb5/pn173WOTE2MKDz6DtTXm488KBZf3E/zIJKlvkQ2mtjW1pB/lDV99OYlWWiUoFW0wgJDaliWgLVqxXj2untwL8vpbDKoULVU6Uy2FMVaKxMtLYp26ELjLPZZL1V1hgamirE8FdEw2W/1MFDvG9mg6HOpRbZWuJ+SJvdxVSvfcAJKtRYv/E5efLLjqQdE2i1HBEslpiyNaMURueK4uGd2/CSrbrObanb92lvScJSfrKZgKOgLlSy/smo1x4yeZfF5FK+ACTbfxOjNKbOmiTMYfiSasjwYOVsaqMzY4gdx1FSA5LQCwMLi5AhYQfeLDyb1VmxhUO7qkfSLIyoeNdEYQ5GtdyoIHE9my7UNsDv4HzPgsd2NgWwyfor2TTGwuAw+cteK518MRXYDCg83fuh2ENTZTJbYW8m5iRdtlrZ+8c0WRs7hxGzUeMDRmID18ZF4sm0WXvs4dK8OZeo7ejmFybGYDfPMHman78lzoLTUoh+MBoRqgbf6ttL1mA2eEhuWtqWejbQuSt8S9kkkg4PHTnq+M5rjXmBpjFG6Fy+boSZKVzNriCceDZ4Mlo5F4mzTRSZLE8abvf1ta7DdPCsGygmsTDirl1EFyO92dRGL/YPWZ3i4nGYOWvJ6jkc5i1AYkx3GnKSrYHgIGocX9qeAR1K0vAnOqEoEkg6vmNdCIVlx84WI1smhT4Zs8lJo/ttgMs7mVD54rdkqn6hzcYbSB374RCwkTyTGUGxH+y1Emnifot+1wABQxuzFVuUDZrth8aHgHZNXIhW53zD4Sbi1za4vmeQjN7PzbvZiFDr4rJbMs1ubla836IHA3uGA3ArDz0be6DLkqbKbBebQDJZMiwtrYwf5gX+EVX+EVX+l4oqs82exPT4Uh8XYSgflYLqz4sdSrHqTTrBFH8gJ38gJ/91kBMVO8mnhEMHYzNRNqAW+QWecRJO0TpwkH9sswRGZ3KjTeQZXPNNTb/DSFibSSZJf+qPMXX23rGlM5mCcC+I6Cabmd65dcqaTEPTGOsbApO3fqiXSntm1OtIgkCXRUusQGDSvhz5dN0JlecJ+RzMzmIZdj3XM5t2TFVe1c26OXg0YtP1UDlI8kGhnIo1Wz/pVE+W65mz1k0R+1QP1wm1h5Hnyj9rzOLuuoPb5FlOplW9DvVP6Q7rPJjJmjE7C6FME8trLFSt77Nz9826qewhScUOrMGNxskywsGjGJKBZ4P9cbIy2kFmLplg1HZNROqNDguJgHk0SRrGPp0ooJasbj15TGa27zATLuycjYOVOdGuxnosSDHcZ4VK8FQsKz/bVL4YUKX7qZP9FRsmxuBlajTt2EcvwSDzMcptSzlxdP+gq/6HwR901TuD/3R01aJ1hsmCs9EoKR+uI+Fob1FVNuqc6yzbcQ2Bp2y61rMxXdVIg8E+paPS1I5PCV7XPGFmTCwirrIED3POptDWPFRjqgKxATHSLRUNHcbErqlsMzQGczGzEZtCcvNbRa7RvinXMVg5O9yuQIw8XiVfxtFlOadkoz5Dbe8AxJrqA1Fo09Q93VmYJdny7uOYyhvBDAVBTM2yV8SRUrO4OKMHSuYUQ2iLXqvJzDUuo6Wqp0Yb3EpclUbfOiobJdM4PEhFpGLq34dOyGLp3qHX0mRTTt2c5rJO/aJucOhIdYNDz6s/w6Gr1t7SqW/XjspTZ7DJzBVOW1NRL1pYSvXGoLIAgT10OSi5FE2admyAqaWFP4VHkyTDt/Mhea16kOXBVbGqcElmJfk4ZqQXv3J63EwegLMsp9aG1zuIKNjEF9zTpgCTmRTkrTGBR7PLuuyhsdF32C+w4KyDyblxt3+3GUssF56aIqX5UNmz1oZ8dCiqJ3Bh7J2KLu+dzpJUTjK58HJQ8LAJ29GuyYC49NMUHlGfkg34Gsg4SJfODCiclqVL0Z9yiJdsFEPlnoJ0GaicGcGyZrTKXTLbQGDEgwjRjQGrHN0YMOqQLoUpwrF/z+BAUbhM1yFxvGSV7sYTwdKlR+VheGIyAnI71Kwuw68bct6SJRyNRdXTZR1Xg4VRknrRCHQPDSoWSuMzWHm/s0B/si7zEOplzFgeujMKl2zwYORAHJFpJ+TFlJ1q2S6n+OEfLBfFo9J68UY7SULp+N5+0i7S0eiTv0PXXDSGHNNaMqD8OUrkbfLquDdnuy4Mj9UB01MO5gcz0pyicGDVabMyaxHnol96cpUs2xiD2bCdKsJawZc6gznDbomHDORpWvUMInhpak7ULd3pRc5qgIhuNr39xai0ja6ai/HWanLhzE2P6MhYphS37uhI9ZS5gbpMmzTCc9OqzfZZCVuEqw3HWhmDk1pMm5tH31bDKhcLydWmQeLimZShGdnUgLi41RpVF0Mt1VimMYmZRNWN+Pqc2npvkHQDLZ7dsKMj1Xnn6RA72NHVmpGNEsGOSW0TiBDz8OwtIV/BUstYrfRaTdd68fitfikwuLjNs2cNdBfjGt1GQc+FO65bV/tc6BS7CfpNpnTucEpLtQOF4fswUZGBkcAz/vrqgegXTGg0pIgOU2vEx3G5OYgK1rtEofSwg2wWBJn/mFrzMPhjas3NQ/9nm1pTjRxRkFwX+8FlfOiWjCwUpVoaEbOsVHs4Nbr1I3JBuxdVJpgHxqLpGa/E01IM3FwFs6zmU2tY0C8UwiV0aGyQdAOtjkhi8/bChlTzVhTsXw3BnGZKL4sHJbRuIzEqxxrjZvYbzuBbNhawYAK+l4ZGZNwR363TLgIs8qJWhIx4Cc7W7gkHKyaHY/9Wl1psUYuXcHSVvaXJIp0jWy7K4pDDGfx8CIRTNFFCdOzN+qQ7JhzDJtluA1oaoxv3p3EkMLQ/d3LFL+gcXQ0obo2OsW91g4QgmoU/FJFFd7qDOUSfTVotmwkB2ugjMkAKxwdkdShj4ckXbtw6vJACXBXXOPBmAhyy1gscyWCs8ODNkCpTN8pt5UHNJh48CjZhxoYUAz7Insy3T4PEv2CDEAZjM9N6L6J9BG5pWeNcHzwa3bSi9vFMIdxK6tg7ty+spFlWr1iqXVlP786DOJf3zLAA8ipWpeF63CoaJDbukVhGvwhXT7dk3YKt436I6b5WB8JnqPodGre17ehI/HTL/FpNTbLxfljeqsJSBstK5nVy75I1b9SODVurK0ZWGx6Va2jMVwuKfG2D9K1S7TJgsCY8jJdF9/XCo3ING7jCXWo3BpMnwAxdrYV1Q9fQ2LuwYFwYCOGJCxbL5nAEt/nw0DbThVL8m4dOWBJZQ4+ZcmEIt4YiiU8B73cGcsxknjARy1uoPB25P7GBhCHVEElcXfOHzILgyxrEcsEy52rqsjJ3lC1DTvLBoRiPLLOuzDIY+0Cpil9Y+gzYZVU1EsiH5V1tLTU+va3iF5Rxfq0CF+WB4U+k28LBmnyQVT29MxeDwyka4YlYXqsauyghTLEM5yss7eHPEDXAg4EcxhXLOjcGPGLy5pYGAiHLsMqyOEi071AvrICvqqWpygW8MDDCE4FqywqpQeo9GFiscVp8YjB4zpnfEst137wlzhT9S7cLwc3YosIoT+yBbEzmQW7ZT77GkFdAaBYZEybwnBT9adCwir8NNNDtqGwWmJu8pcFbNGtwsjMUopAs0+zqF0fGpjV7SppsSnjn+vSy8e6dB2aHDJOwvPg7BCz+urxjeg+BOSbX0yeGDtNGL3ZuNpjDhromviWbOD8yD7/spndfsHo8DW8dPMN7Gs948OyEaYWjwc0305oNBkcC09h2QQujX0jqUA7iUtGrZigccX+CZma6lETlGRbdRzs01bKcIVW4llWtGFz5F4xcPbmP/QYoZ5L73i5a/GqIOnQjC02e99unVY8rIidPIfEvr5Xc7n4G7T1mXmWgerY06BfGZcj6xWvJp2Qsxu6tF3+wJvwoSiEZA5sN4hS6zIBWa7GTb+AWHSabNAY/tAkzDfYPwym3g7/D3UFGi29YcBLIOlMXVGxtnNgUPqKFvOitAZJUqi7vwb34wyS44vTmLz3NgNhFXvY/DGt7KoJ82UDIOXH1iwvBnD6NcpuxDtStgWjynNdoWLV6HJFUugu78tIIWFxqWQth7DaNV5nQi0ZrgRExsYpvyesqGHs3Y5QvFshqVjharAbznHfzxYD8Q3Q7mAE59m5VmpUR7O/G915cQ+mWoRy+Q8TyWQ0odOhOxEwnAqAujYRE/Sh1GesRSYzzRqGawJxxmTbFYpZXsurxwnx62LysnYLQIRBsu6kGlA4Ma/+cA0sio9vExoNTnDdEfaRJmgBB5CyUDlxGPOOZWTMZN7TiITCtpjgrkoWmVfyi6s5JkxMxaYvObtF9QgrJHMbcPDAR5o0kFI5KmkqIPagKR0Hb9HJpeUcvgvcDETCYFEQYzAJeSQf0RvJKYE62Ab0NO+W93Dx4RqpXjwezT5crqSScYLCsaTyONsKXmkZkkajRa7VpuJ0loaLSJIDUAT61Mmevp0KqBOuduXDLOr96wmx3TX3oxur/yygkjbUp1jSssvO0MRPNbkypWlPxpWhhpe9gOt6NheSWdfvXwYfAVB5ZbUy/sM6vWo4fzvU1+Ja0Q5upPG5QFhe0p3ZYlIHQ45pWPR5c4TAgpAzm/kwNQ6MXjA1EOKsMJMSupQFWOZRElsophQF9h6WnRhlcPTaQubCe6lq6gQpr261lRcjDfrARpif6hQ2hLyzxvsxPl8llHRtIUA6VpmnFLx5z7/uhsu7vGhq31owd2uFQxIDFjraPc2leLJl3LcoftHmX9U/XyWV/00lsTCZd1rjSEtMvqvKMQ+GJ3pLp/rTKJMaiTITGLRmRDBt5DnkC1oYbST95UWs2aJOjmWTSXAvF/J+p6pdYAwPdS6P7zl1TkXlKCFewm3Nag2nk8KTkPfRL944PHYmk1BQnggjTo8qF8dINz5iZOc/un6+hNBnYPN3A2smgmK49w0VR/JJf4ApHAI1WwEMmc9Id96w9vU3AX9fSYIm0yAsNM8ZmNAtOBouKDNPFjj9BBoYvjYWhw34n2vN6YWQ8fBoGD3AfxdoZeL7AMHL1zPwMl76lyaz4bs3Khw6LblqPs6L8ZODeWQ2w3a3Z9LCGR2V3ldtD1dLn6jZu2Uumfdq5A8+Y/SFmcQCZTcQZQeZuY984qtxOVkeATISLmndzTmwVi6ZAEw9GPYFsutILC9ot3QC0OIzevOjkkcvVUprD6LrIbbMaUMGidtuiC3XhgqFuEwHptVbv0F7YWl+LAYML11I1UC0MSMzCy2usV7nTC9UT4DEUO4FRrsNCCLgMU0FnTYTSrKV7neS6XUQBxV0s0J0Lcb5i2nbRg8R69yoTvZDUm4fd0mTtIqvHHWTTs0loTmYB56xp2Rz4WoPdbRUOyqfTUqHROO4PisnmgVD8y3LRySBz6vYMFRPw1Ezyo7B+a7XGRpZeScXELBKerclnSl3oRUN5zkI4xO5VnXgMRLGnXc9y4IYwh6YCxQ3qTHbugHGGtm8MlpR2zeqF8glWFugsAmy07RA7gA9mAw0OKnvWBN05+Kw3rYNEWrKBeM9++XfXW1ZPQZj1VDRmylSbhcXaEn595djC7qewTtZNRx+BdPZ+YtbWd/7+YdZW1ULxDpYI3TLXUTm1MDZ7ZV0MA88qg2fVdL95yHAzOHxioGbM3cKez0L+0hEd6cqfjiY7YomYPDBzb6yZsjALxbsEL+RjTAV38mI0yBrBDlC+rs/MRIZ0mQZ05UDCmECZ0deUNMbc0Q5q3pp2WOL0YxsIcpkYG01FQbx0EPo1FaDEIwV9kkJiAMyltZ+a/u/CLYltEkvjhTy43FJig6HoazqOeJYEJx1U15epxLE6uFWRJuZ0MblEAneEy/bClNagwbNjs1KfOhaEcrHaCG4dn01bcU1kG/jBlKF9u8KTKpybDYVPGGjOVnJOPKt9aQsEz3eL5uTX5/1M4t8lo8Jd4Mnu++yXXJSFesO3XHI9ZXHFRi1cWHwoVku48FAptuUvDCaKCZAwj6IsXT8Xsturqcoz52fHMva8BORW0wzmAb+hqWrfl/6+EeD4fKvWf38hSXDHqpfePwWLzc6364hmvu7fxGCmTZlkTkqzOX8Zof1m1ejM5G57n5ysNoueCtYmmslrFgw8etL3WblTKGvlmpOlbv0mjfnHJhrZ8DzszqlD8CIE5vV6BBemtfDgfu82tW5wD8VlfVGnpiWVNGNNzazkBw7Wh/nrxW0pTZk9O2BCKdSh+k2JR2ePqYhwTCehUu+lSzQGE1B9OylClZjTOK13OXH/RBTjXndl4hQlSu5yzDWmHdvE5MRTyYKwLoENt5o5kyFxP9GzavQlCaIUZVnLXzgbeOhlFfR84N2YlnBm5bpl4XQ+0I6TnkeZP5w3neeDeJi1tQdiSg9tfb958S1ZU+GOUr/X/F8SIvOhRyC/UBBjDImE12coFXHz1TTOCe0jJn0J7FB40IHTyiKWZOKaLL56MZ3JpqzXjMFX8MVthh7Sjg1bqo33g/E9KueXq+sWrfP00Eor44j8KXH7BV8lPHB1DXkaz9ta1kPeCiZdsZaMrXdoJZAKemvIAvD90Pqpu0EKT22c+idkeTdmiS2bE9sPsidZU81TZ4AJxobQLh/G3UofKD+TVI+gN/Rx2wNp/wTPpJ/GU46WDnLsplbcWfN/2li/ziyAaeSKwbN5nHE4DgGW7elg69Fbsqh+sPxMFHalyNi4EcyqaKMzW8+Gso6ByNc0pCzatOgXzLE/CX/v4lbtLOYd91RQ+DRgFcT993RyTubmf292ZoGbsUxxmYmcY5jMQ2U1e0s4Jmuc74UgG2hy6DCc9NWxrX0vZuU/sTTwMP2m0MhhEQbtBp14VI58o5ePTbYGRIb0EBkYOylGHlGqvhQKWBzd92kGXLnuVh4IGVxup5ZC0OKZYd2GvS2egNptDPKqmIDfaM03PDW2kxXG4eKZkt3GK66OCuTNZretwYyJYUtj8tyCbsMaJsJczVo6otnmMCPJDCg4aVlhimcP072BtbUv7nNsNm50LTwEgmY5zIAq60MD3XQxnB88y/E9ixvA6GBhhILTYxRbTixNXZNmyGEAH3sbXGaA5E+bmroWRg/R2Gjrj3xKMQ7hYhJu6TYRYmEpoDSNHtbiqXhFl9Pi3K8YFhINa8TlvLRdcxtQOSmqrbKHBg99HHZLDABnI9YvVsvOJjh2GNqSsy3vhrT3nOyWGsbrz8HhX5wQThxd5hcrEyTu5F4Ihw8up01IoYdOXduXDyPokkGuTxmEe4O7KZGHwffOAMdB38XYohOrPwF0GwkXp9cma9LozDuxDDnaQHjmtc4ZYzqndc3Owi2qpujBwnLTKLuH+oO1pnETonUehEgc0s0keRideyH0i+3kgEKfYiKOGV1V1gB0MErpoAyPdbBZYaFRBNvs0iCmc+nEZG06z6q8FD7s1+F6wWMay59eGio0rjheekgcZlJY0aQVBJT8elZN9+uv7z1v5SjhUhG5ylJKNk6+9tP3Mt0LCjcvhQsOsheX0oFrQvrtpShPZbV0UwsNFQFyS5rplMPked0vh8qKURt31EZ/P+t5WC7UXjSfFyOoKY41ffuOJQzr28rc+Gja85lHvjTtIYlBCZTAq//KiRkGSog6MK6G0Ti5TGXasU9O5Bv/K+szsRxDSjdEVAwuTWD3OeD+XdgkCWPiVtVkeFzEdtSVY5W5bYCR3NBCWyrYB5csUUkFQfk4t+SWuLMoiIxyS4lHwVsrUmL02DsHgnnN5E8hxyZm1+3FrdAU1hWyiSBNpLrnZV1wuBeKRccsUb+PTvlozBbaGXVWdhElcqVqcMPKusWmT7HuW7Ha6+F6G/PNeshlqRrlQKiyWnA50LfWouxnxuFrtZoOt/I06zXD0kOEMnY9A3aqCIF4iSOCXHxsNrjxcH02VWPu4C+WLHGnucG4LPzcukkl4vdtlhyywEZzRQ5G9y/TSeSR8sl6G0/VAxW6xvvvhj0Nbl1qfr7Regj1QX3/yLb0QQ48rn7edEfQ8y4rHuIYlOgMFXiE2ZBZ2caHIlrRYI47/IfxRKI9hcp63diW3Nw1hvKZE4/BHtN+gRnT20D6viNQYdkbcQKJyWJetU6FO9qsvytVDBhDHEie4TDdw+RLU2PdqGpfmmGS6UuDff200cWJpynPoUhPmrib59RengMBdFozxhMNuc89DDzIHGEuy6ZzYuVCoxBlVqBf2RqMMlarAsc2iikqFxZFVHNltmVRr78D7cPcOwHbMzcXLu+aYAGLkNgT1IFVCraBTprMzLZsmkDFaEpmKspaKoe31A1pOShIunIhTyhxamPNrDDc1X/WwnKNXZv3K/fzhYGpLyKcb5SJGJ/Gt6TDzS7eQKZn1zIzd92gniQn1aAhhuUP3frxO5g2IpInzbE37jCO5f1q0BMPR7bBwp399DLkqxeMZla1XpzG+8GlLDpr55pMYOcEexnG0Q/a6tnmfLGeXTgUCekTr9bL9FC4gONtFKMyPXNZVs4F5XDsJkSIfM5hgvJcFJi2vOeFXRHTHMpMuB+myX7MwvqORQvKszKQmq3Vm4UeYpSZGPC85pms3NuZk2rKB5PB2unSbpMnJy3LmBiSG1M/XMwPYY1K+YV1GAzWdbWuw8y4qqjfyhhgDWsyjRiNJ4kpHahwYnmpkueqTNpbhoxWhJK684e4zhqytNe3DAxcfMaZb9EJvyVuTh3+C/TQVvw6GVw3z0CCX836QVfFg6yZ/NWqiFG0fvMMtKeb+enF5PpmvSOLS4TNJoktnioRJehhBsyFdJossUSqqZatyqpKNpblbKDTnw4G3WZkHZ6h2jHDb2lnC0rA4+8QvEb7BfrS1arrh7UUPXLfM5jarXUyGManOxg0m2DFD13qzVqiyLgYB+dkYNq5hw9X0s1hjL9wWV84v6VsExkOB1ke2gqyWHE7d63zRvhOt1TtGQo69uAW2KA8yh+yiYCvhJjAUxfqiwFWJJ1czwBt8g10oXxhoHoSSrNAauomwTqZatlMd5ZFDJJ1L06uOyRjdM/OOpumpzV5DHayytWs2LiUkumSsyxbuuyhD73n1kqVkDKwTLz0QndiyiIxQo6yPhPEZ13LYeLzTMwZqtseE7Op2KVKKqPweEZT5sgoxeM9iBfGhs10OblY1GyUxMBw2JSxOmeHVqvrFTsImjWaFo7ybO5ExqPO7z8diLESde7gm/LtpuuznXQehXvROBe2Wv5hQErTk33H0ajsbtdnbrOy++G+92bExkNHk8Lb0R6E31ev71iMtfuvhzREz7eDrmjTMknMOsL3I1yEynR+UwUoLMRvMEQMzULdT7n/0vF5uyaOByKn9cWGBgee55J9FNbhGUZc5UDFCsmHGtLUKu+B/LKUd/hUgn5zvXCJckMyxVKuRj5wAi91GJllJVIyamzGrCCZsFE+6GVaa1HmMyUVpfjl60S1dFEgmsiXbDBDSG7SL1j9KM1TgCzdTicGq628Z8j8LmYXQHE/FVIt0w1dgCiv2YgnITBFeUfR6DIV7NGN47SoAfGOs+Xhe3XR/rlhHidmil9apo4YmwysNs9dm/sAFenohVRxRxIOdNGhOfVg4MFmnh+o7lYfaKfGWQ2JmG5ZbTogerRqYkAFyxXVIITC9ExTHGPcPqb0yemFVal9vdCHM0cgyXoHkCDQ/LxGtY2ATVV8kjx4y+YCOcLJmjKxknizXjCeptcMXsmYsbZsDhAz4mYFNa6ctqwpKFN3mk00LKf1ozNHsfXwfP3+h3/86deffvuXv/z1b3/756+//PxvP379/3/5+Zcf//WXn//973/+/E///OlP//hx/9v/Aw==);lineShape=1;" vertex="1" parent="1">
                    <mxGeometry x="347.72171186757873" y="53.65649578202286" width="22.653288717206586" height="21.508345115200555" as="geometry"/>
                </mxCell>
                <mxCell id="78" value="&lt;font style=&quot;font-size: 8px;&quot;&gt;dhyaan se dekho&lt;br&gt;curveball ek hi he&lt;br&gt;&lt;/font&gt;" style="text;html=1;align=center;verticalAlign=middle;resizable=0;points=[];autosize=1;strokeColor=none;fillColor=none;" vertex="1" parent="1">
                    <mxGeometry x="139.88" y="144.65" width="90" height="40" as="geometry"/>
                </mxCell>
                <mxCell id="79" value="" style="shape=stencil(lVrLchw3DPyavaJIgs+z4/yHqyxHW1Eklywn8d+7mQ1nh+Bsr3WTZ4EZ4tFAA/RJP3x7/PT14RTct7fXlz8f/jl/fns86W+nEM7Pjw+v5zf8ddKPJ/3w5eX14Y/Xl+/Pny///vqpS/a//nr5u7/h34uez1JD1wrux+WJk9j+e/D7Rf7p/LyXT+LrJB/ERSKvksokr1LY+4Nom+TxwULkndT5PDCIyDcJcRKvUvxt8SIlTeL4Xna35bMkneWDJCKfJPpZPkokx4+S5uMjfkrk4ezZ+75KIO5X6x6kg8tM3s3ZE7yUels+SJv9gzfkwORNdOGxTOKF88z29ghSeeNPJEhLzP9+ltcggbw/SpvPr4ggkc/L+7M0Aq8yvLfJN5o/+HX2f/TSGBy9pBmOMYqShADeq1HINMJI4JBnhSqVVZQqeVZIXhyxASlpkiKpRAJKZEU0NQhZx76QRpJtCkWqEgX8PNeVxPMOgSuz0TmIJ25VP+rCphCHo48Vgj1SRmkhUEYmB/OFKpEETuHEWaE4XrxQymejS6DNQKt4oxDFkUgDLWkOXEm0fgEuznyhSGQFI9jUKE0cSQ3g6//c3DqUk0QiDXypUQCmWU2qI3M2BR1N/bhJuYGvTSHSSKdgy1hNo44cKyCX5uSrqBrErWlptBWFnngJ+DKBq5USkYzKZxQaxTTw5eYjNTcgdaywmbgpeK7QxM9xaAAtYy/eeqnpqCPHCjqcuCnEwd+OFZbK19JIx2OFYhsKFFgHAlwMIWyZUrAKjmFsKKPLHysU8TOAGhBC3Nrfl61CIamBn7UuCqxNt4MjVQJRKOQZcXjCeHnb+s1OITAbmqUyeMKKAH4uyxcyVzBMAE9YesMnaTlSYzaUUdz3CiT5kGqGr95X8KsCqUvI/rgaTdIbgGxtcSv7QjwwOjIvxVHn9qnBbfCLDazHtbVqVD615ZFqvwqgYsnJfYj65UiFFOMrIPc28PQ2rBIKjWO6FutWPgu7wXZ2Goxh9U8sGGX1vhuxKLCO0p2yAoLldxW3fIG6qYwJ7DqjO8r63q9R167VKCkDQapLJNig2DmbMbtSulGO0olNZp2oLn2RsoeFr18dd4s9WBtA0wiGQOeDOVLiRjtLjqHgSHJgJAkGpZHWMpAy23l1vOJYQSWbBA+ibMR3SwH39Aup2hUaiGXg5NgSfCQf20LpCNOOHLORGhO3nTkyBWlsi0KihCaWRQF9jNgQwTuNDToS/lhBF4IfRvO+NfuZSGMyo8ulZplo4XHA/GrGIICWrrvyMlInOvthBldzpMj3CNFu+Dpo2Vog2IIP0LIVqHq7kwJoWdVQ1Oq5fAO0bGcdqh2DMKux1UbYlm67bUsgbTEk27SAcubWsAwpQDnrQMGN7N/tpBhl8kvl6ygnRvtk6QZQzoz2OlaN2+aujcjcWia6ZTfIZvBqt9fx3vY0zz6KgQ5y0S7VlLMftaRSy0DHje214ZR9+8tCYAegvl0mSHB2Exo4VXLL3Q1fmix08s723Y2Rc7/dp/JmWOq3B9ReNfY6mnDL3VAHBbHX24VMX06zwrLc9vC6onZIv9523chPg0jvxrR4I/9tCxwt7sblQTM7ZZoNzfLHRJMfZzX9dWNKx/LBsha+DUP5Mdnv6Oap30w4I8/YrF86n6P0oMfeyjtWPuN6furPpcfwmQXyZma+K7/cBNPz5DGM/qK92W467vgT1bye3hGvg5tsmg/ZosvRW6F335Tflccf12v5L+enp8ut/v53e42PR5f/AqAffwI=);lineShape=1;fontSize=8;" vertex="1" parent="1">
                    <mxGeometry x="339.1469202263304" y="22.165893629409425" width="7.085685900747936" height="29.089554904951058" as="geometry"/>
                </mxCell>
                <mxCell id="80" value="" style="shape=stencil(lVjJchoxEP0arl1St9az4/yHq4xjKo5xYWf7+/SEEh614Aluw8x7SL0vG7l7f354227YvX8c9t+3v3ePH88b+bJh3r0+bw+7D33ayP1G7p72h+23w/7n6+Px99vDglyefux/Lf/w58iriapfWOz+Ht94Ku7/i69H/Mvutcfn3OELcYT41ON9IJ4cUHpCIamYkDoCC4WACdwTCqWEZeivJEIVC517pUqhUjAhdIQgsysV6QmFHFarsXNk8kiGTK7XUoztzEsEbwiVxENC6IVOTAnJkKkYQqSMCLX5ZiNkTw64hneuafHESCT4CN/fKeubiX/3JxRPgnyDqfbeV7CaSrWWKwJ9owRriIWQLxPyeAJTBjGapYm4IiCh02Bq1VIFV1LXkYEQASFmit4SEgOCkBcrA3ImjcjiLSGBgAiBklg7BHCl4CgaXwpNqrMESTZGiwY1MJyob/bJtajeQGLiIZOpO0aQZ7Te1NoRqocn+EzcV5Qq0NJeE11vhxpbyTgvNAWDr60mnReBUrX4CvAqsQx4JAAxD/cB93fNj1d4Af/vWkE+4QvM9EOOVDwDr1N8n4Ur9iFHYvSjxQviy4APUJ+hWLwHgcyD/hM5IC83a67xwB9OpX6FFyBvGOyVWqa5gI+D/lHyDbZlU/s6lIYoBotHzUsgb/SvdRr4m9i0qPgE7Kv6DxZfoX3NfVZtwCUHGg4o2EGdxUegUNf6phUeGcC1OrQyAKobYwDn1tVfShDe4lHvqAnI3CfB0uptm6Z45BA340cFccsx5wmRvJlyaitT5wnqAP2VtE6iEWEMmkkl5kphaA4SyiphKN2+NVXnCdVqqagjAhl0RjGJRRtDVAiWGaWPtKyOCgJNZxRTynKGkaZdXYiWEABhGTmKJaBxMxXyyRIS8KU8pPdFBhANixKdJVSgVm36WAYCmkGGjkIJEY3MYRikNOIQQVrFPhEYpjAlmKKfKp5P2XbXKcGhRQmxj2m1PRxo2ab52UDLNqZnI7M6X6/W2VDOw55gMvZzc7VrFwvc4uva1QW3z9cuR9iOdrP1C9vyOVvw8K0rJG6p99ol1WncvXILxjYHTLZsbFdUHnbwy46gV5GDHbNGm68GDzcvYmPH4UgI5MTg4VIktH7oEw/dOtpSNcXHm+4T7VA6kTc181ypz2T9YWKvZGNm4g+3b3UneH34XCE/7V5ejhvo9Xe7ctZXx3W13P8D);lineShape=1;fontSize=8;" vertex="1" parent="1">
                    <mxGeometry x="340.5539142164462" y="45.46267800200556" width="6.269261326226708" height="7.3363205095202195" as="geometry"/>
                </mxCell>
                <mxCell id="81" value="curveball jiska leftsum+rightsum+root-&amp;gt;val hora he&lt;br&gt;baaki sabka root-&amp;gt;val + max(leftsum,rightsum) hora he&amp;nbsp;" style="text;html=1;align=center;verticalAlign=middle;resizable=0;points=[];autosize=1;strokeColor=none;fillColor=none;fontSize=8;" vertex="1" parent="1">
                    <mxGeometry x="220" y="-15" width="220" height="30" as="geometry"/>
                </mxCell>
                <mxCell id="84" value="" style="shape=stencil(lZ3JkgRFkkS/hmtJ+O5+7pn5D0SgG6R7AAF6lr8fs0GyKks160VzY3GtjPBwt93Uvml/+e2Hb3/5/pt6/fb7rz///fv//vG733/4pv3bN7X++NMP3//64+/xT9+0f/+m/eWvP//6/d9+/fmfP333x7//8m2uzH/6z5//K//C//yBq+XtGomq1//+8V/a2zz//x/+44/1//jxp+f119tpn9b3tzJx/Zqyfg5cP+un9ePtqri+6/rOz1OOrD/76/XlvJ3yaf18GwvXy/OvtwrPH+tbk/XnwvXX5+fZb7PB+vjf+9P6+EH4vrG+fT4PJXaMNmg/vs8T4MAXKOttfj4Rpbwt2qLYwc+vUOpbp28w9YyWxu8Q3/QoYNMuzbcq79Aff+I1IE6Z7NJ4awUB+kjz7eoIqE0Bm05Sf9vyDovfob91+Q6bz1J/uwRwHg/5GtD0aMR1vehLt7faFXDoLNW3/fn6hABc9Av18YrvgPq44a8B5e0IoPFpLW/z+gzoD5nwFUBEWMgwPN7X4xXfATdn6XprXQF0H46e7pBiC37gvHV5g/3YhC/WX7L+PMT+y/X7bX3+yu1CKRzn+PPzt/IQsy/Xh4xeup5O0XrI6Pf1LMFC4n1+3xYCDLTm1DMX6+l55kPHv6/vD7H/xfpedP2B/ZkPm+B9/cD3NenY4oDCFRiq1GL9gBsQv/75PLf1VuB8hiy9dD2d564Kp8WJgvd9t4He1x+0crrex1g/4X2bnof+fqO/WC/P0+P8w31s+jyxnqyQ9pDi7+srKoKQ0k3Xb7IC1ejq8YSwP3H7mq4/+DxVnj90IVmxev5jPdlE9XHa39fzfSkPG/FpPVqxb0v+ftwXsj4et+l9/cLzUPR+xfqB65s8/775+7qf++bvi03aD8rzS438WE9//1IrYlz4/NdDejyt7/C9LpXPsf7A/Y318vcLWmaX6qNYv/7U+vqQkP/yepIPvr6h/L/UToz1Hdcv+/sb7uOl8mf0h4Xw1fkZun7j/Sqfz/8YDwnzr92XWL/w/A/Zn/lw879Yv4+ubyivqq2n71s1CBDrN+ovscfGeliAX+m7oetpP/tj957WU9QgnDH7+2SvTvWUBtsP66FNntZveP6t+mu8W6Rf2M9N9n/j/Srv5vIzgJz68nAongHs9YhPkgBSYaGzLwOQE1PVKMtNol9oD5vt+SswQI81f+ZwiIuda7Jb0+W2X6CLmU69/UIhSRGuo7z0fFv0SHEXugI6RzLEuA/hdTi44tJu0Gk1dyYAeDSWBiZCXqM9tNTACQVyE+RaWwH44baaOKEy8Sztx548AQroqADodyhsRB37Dhffh6NuWQAqB2PV7j0Pzf5ltPdSAImZ1Pxiyca+wS6lahbTkaVG2r5TAR0+XH03tZ6McQr5pjcxFEDeZbo38gvjbdMjVQ0FBqDSS1vcLRycRQZAeJhFAZg36A+D+slFo+hk+shbAWTzpxEgL13RiMxMhPxCQSsyww6XAhp96aF2Sb9QGH8kL54A+OGmRonbwShxmjIWeqBQUZ0W69rsW091ptpGcR/Wknh3ASDrMMNpEm5ZnIRaD23wHC/iX5Cz1CZK77pV8gWg0i9YXqYNPnz7bS4FUEyhWmYpAIW+w1F7qXW0WgOgYdnOYaxLhXHjNEsAxPHJX4BdapdFHvvD93sNKCr5cpdAoQRAhHHjDGWGku070LYGYFs0lLzVVi3nO/mlw9+z+0DxtWbGeuMATwCmAfDDVTV028GsSfMY5IX6IQCSmU1hTO/QVPKFuCfLuJnb2tmEi7OpcciKcZs8/aZF8ZEskt0bGutxNt0SIAMrACJbw9bA7zDMhBuPK/UaMF9EU8lYT9Er2zoxvZTZhqoAEsapDcxIxCu6zPxZfEWXZqTD0MUrujSmkaY0He9lRiIb63GD1bW80G5t70HdJw+FYgIB0DhdQWsmZISY0uE0ka0RADmt4930/QqwhwIoI929IKVjhUkA5PCFt0vJwQDoIw38cCG2PCZA6bKUcwYgPd09+rM4AVYf4afniB0DmoXg6GgEQJ3XjR5KAI4F1SiYE5K0VgVQ1C5ltRwNtr17s209mAcOWS2WwLzQ0A1AKwqgcojUBp93aRYMRXeLYM2CdmsIdwmmB4BEZQDkaMyKTlMfmm4IAFkCqW9kWxua0qE+xMAKAAqBqaIyABSm6OZlzf6w0V4D3jPkT4BNH27ZIw30dvtSuzUAmGXfquPmxMKXvtUim1wnkCrQAJR460fLD+fCkFd/d7efAFi6YPohAFSLEwBR7HM/TtdXAC1x3JidzORiVQClu4bln+dBlTUs5BUATNDUx3V5ApC4D4BETtaF4v4jfvsEoBqAAKyqAIqRhd4XD2VxFVImJY8CKj1S15jA4hBwAESQLTawhlXOrIoB2jHUdAgABcoz8zkUgNs6bVsbellj6p0OABmJw2TrYmE8LCC1Oh/vpRcoAGQ6hGWhvzD4S29Vu+umBOtoTVgABh2+o/bSWpilmZdmUQNAruW0NPziqEMYChLBCgC5x9Ps1sWSb5ogW1wCGwBJJwRg0i5VvQ/7wlRtGApSTBkA8qdn0ysaADp8s2k5wS4YWZ9dFUoAKGYcACmo2Ry7n5bmDADlsqbVX++GHnsYCuKxB4Dk0pyqUHZHURkACQwGgETltED55nhrAJr9wqG60GW7NNB/+LBdngBka3zYLk8AvHFbLYE90faexz7cRHGfpshWAN2H0PviZW12XgMgvmgAKIgQWlmyA3vzL1jFYQAoyLyqpqb2wYTFshqeAJDTFABxBw4LsmUZvwBQ1VsAJPN6Lmx2Cp0pSfnDdXgfSvYd8B5L+QogavcUzB6vqW5ZAPAdrBYpAHiWpj1SRWM9tHLZCqDQY6rxpQAqp1pLjfVT0cVPNS7fofFZskjiYXGfanwoYNAvHC1SCQC9QyhZUVmnY5pzW5Xj6XgfQsk2A5DKSq0sjxQ3BIRxKFlRWQEgEy50pl6ggad1d3uHiY1V2yyBAJBc2kOL6Q+XVIU2EMcvABTBSm1QFEBp/23Z48PleduUYgAo5BWyWmodDscEAiCZpgDQth7L7Z6NX/pYZ+g56Mel6G0KoJdOSboUQFo0BaMDqE+qvvgFKjwLGSHBzcOBkJRCRQEUM44rr7vEUenTtVj1vLdbfQVYdvhwW4fpuI1i5lhOMS8QfYdhtsbCYM6xhs/DFckBkJL8M7HL9ZixfjiLHwCVfAOdpmPG+o0wDsA26Y3fYWsJSXx7Mk6OpQgDgFd0ay9walE6rVuDOQGguHcApL71VN7WbV+afdG8Lm6R8SNJkcopmEiNKy/V2CE8qQAwJakBKHafklQc8PNIcX8FUNfyYKzyWM16KLGbXxAtGgBqAkiA+EALs2UJ6ArA0+qA+YjWfAmoCqBw0bEarDBXqBPjxXfgSOI5WjEYAHL8PrTyUyBkstQQAyvMRvKyjhnrAcCzZHmgsGQpP322naXrTgiID7S54zJk6/l8NMJBoLhGACQmsG4u0FIfaN1YZEttjQBQ5ORMFWTp2dEVnXrjwtmkypwzVZAFAK2ZoWbo4lqHAGh2oPOX7vYOHYsjQt9I5GQ1TBGmvrEcCrk0ARC1u7jOONSHvvSNuDdjfR6UrdsUSgbyyLW0/ofJJbchesV0yGQwAaampubgRxrq4k8mZnBfdDa07rcVeEzOZbk/HQCqm9nGRjG5JjFjAvIdLixt29YLGwDcpUt3aRw0TlIwbgVQ3Hsd65q6CW6avRQAkt4hGMWUHguld0pS6zikw+cxsmyxhC+9jAMiE5/0SNPa3QZalSFJtbqoo0vj4dNMcXNEV0vbuI9/vRv/74CKlf0peqWer2A1RYhebXcrGHVYVo092BJYRueSzef0C5exF7zX+r8EhKyWqENfaEpnOYe1KNEVnVsvUJZAUeZ12Ut3tPkyW+aFyZSaGhr3zoI92iUj5egsWzPNaSwYVK6amVdr70Fal6pWZTvIY5PCXSr7NwrjaTHjxp3Q87IukYmx+2FdhFnQDe8wTLbetGSMpfZS45p1L79Ieh0qv/Cepop3elgyuN0U2gxj2OFmg9HVB6oHKXlG18hJvanBalpYUDdGTobVtybvEe2Sldze0EwNi7cm0xCVwRS90/WGiKg8AlzvgM7fwartkoyAqh6PFqkkOw7VVR5NpFbOx3ULSNWCUiM7XOWRLixy7ya9y2HAVF+0bAYMvXGFQy2pPuQXmMIiAOIOFO4y79bCWjoXVzejv2PzJ0vQ5RcaRqWzXUi+A1e1ZMNqVQBWlFt3c7kprrb+6VIwjJ1NVUY4SVxPSWU1FYCdX8ZOd7iVxqJ2nDbK/laJ8mE+pFlymhsNsvFGasgwntaMPW5hXVGb+gUmd3DNP0eh2uwuD4yPx3opUOuoFZq1GHQmO+vaS9LwwLWmrljjv9/0ClR+fksKVky1NmMjqxiAasbuU7CQP00VuZFo4bVLPZ7CLVKXRpS5nNDZIq+73uql6+m+ZC/20PXUEm/mI9d1x3Wy5yH5U6eG6JlQt1qDZMEsXR3Gp8usBN3/Ptmy1XqECsrDan4UF39Wq8SvTCVR9fxXLIvJ6yfmEJ8fa6euzLZRzJtAtzGvk/gGGA6ul+4nl6+H7aaNnZjajvWiLzqmCcpRe5QD5rFemG06E9uYvuY62mI5s87kg2aAN/S0Xq0n/VKOUTugPCmWJGyY4ijWw9pQvuX30vVIUnUshnC3fut6ul/F7Lfb95Vqwcb6wkMaLJ8vc+6Zc9oaHzoGZnN/1P5BZrRjhEJ390Xc7vv7qPfl5r53u18sT5q9L//9pueHQocv7yORIR5j28VoqT9/wyp735/GjOJ/cn2SZKl9e8ORJfqiMrNM0VooJvdMfSdhHowjpToXQnQM8sT/Nnv1xn6Q6smCIZ5qJXXckOzsy4XJjrvat9z2l2zTZk8yq5SkMC6Uz0kOr38fv9fUnPsN65ux73EUvC7177gvwLmVmOilbs0UMJlv3cqRcmEfWzV5crF9frS5icnrnSXpwphOkiSpf4F8KpfqowtzbE6RxMVnzdhqmSGgFZulwfGZasM6sEqleRiOyWqb2g9cjRTru8pbSt81a6djMoHk8v8z+uKDtetfswea09oxi9cwIlY+z8ZtMDDOmlw5UrKA/lFbKq8mx0OsNGWhPIz12qyLmcp21B9ncvNm9h5zYH5QAn6sR8oOywnmCKCbmG9XACV+etEvnDNNOAwtLkNOTeFQumSKSmWqiKpOZ6kYtchsslgdjTMUTd22myFDvWlc+WbIUHKtyDsMju6/mhmE9C9DXZmyUJf1qbqsMC90X1oCUm5O99Zo983MoACIe3ijbz5orp4AmF++NOV9EwEepmFvXNZhef7amaLApxIxOUsSaohS43KiZOyvCkBeBgurp1wl1oRuU4A4iZh0F00ByMtgvWEftthXAAmFpXHFVBHqWxZMXo2pN66xNzSsyyMAeFq3UcI2ZnOxdoQbks1xLOD57pK8BEybP9WYkG/6FENOFzuRQ2p5LsURldUORimm9T+3g2H82W3IycU1VF27MTvnZudQ7qGkj6RdmlYSxaGQaRxQyQtN27o1lh8qhtRu1h0LfeTEw7csWteZcGlZQrpz62Ny6Nj0GKz4q1p6MJh7KABa5sjtCB+ENe8AjnFkDbvkdCuWHgRAgkYhz8l0WFaPN7hza1kYYjCzaACUwW9w873RXQzmllhWaTYmprKzD112aaHUWBZbyEkj9NIWfBwsyD7aTJ4A5H7uy07rwdO6L5UaHwrgNcCKruaFEextZV2THY5d1QWahZsFrFQzSQW5lF+cstQY9A5d25lDY1R6JBtCMznOv6fKpcmzdPfSQPPkyo4kGbEeDLI1tlXmTx5Ec6zWebI7kJ2RzutGrS1VbY3F6fPT1F5azNp8usYjFyd8vWF68bSRY9Wjq3OvpPlxa3Afuk2AXOwpHudEm3f9bWJ7r4WdKsdsjRTP9EjWzpxtHLRLWwPV64ZxwEj6P1g/vgIoWRFXXp6t77BvO3uV6KfwlzZik135S3vPKhchJuWBdPY2ZI47Rp2SLagMWAbApj5Lue7BDaJHbe89kWSzXGaH7slpxReI23ZjbaS9oUGwzHRI9Ju2b6EKTdooBkjt4g1tVH66rQCqnjiWzT7MMp7HzwBUz3GM7+sU5uCwgo7DASPvsT717pIqaUdD1X6OsUs05n6wFqDDTRXJaiAv3ZHJ6mz7Dp3lxta8xuEZ6mfbLg1uv1/q1JwbLWeDYg4PQkwtJ4+0MPh4rDg3+7q5KVt3iVsTj/MbcT1y9lhXBSDrzTDylM1yqVvF9mEjrqttfA7W+CXrjQHIg4jTr/Rd3LWazD1bAZQGOjbE+EkDfIWQNu7DIaZjeZdzsNTj2Hicc5jrx4rzDzczpnS3dyAVtI0X5LBHkBrKTh99uW0xqeSPIN9vGWPext6T1ONFAfgO5sod7uDcVhN8OGm5jek5BRO9dDdmKhZ9u5kUmGjrJqWrSGMeebWt0Ohwt9cuxlfEI6+SKdcIjsg6WceORsfQ9zqazkpGpBvmQqcJ5FZ03VYO6iaJ8p+yHZYl2A+nRl8wSHJPXPiSSilW0Q5d1oCWFha9tLGGHybhWDa7L8Uzc4UqfWnBOoc1NEx22JVb3fi7Cp8lGzebCoAZVZUm8MJakGVNdOemO74Zd+5hsl2TGvvgKI1VjECb45vLZh1vJtZZ1wt2XnIW5zGyXR4s/BEUewKQFp3GchYqhqLxcxtr+GTW8GXvwEOEknzafHBkejZbenMH55xq3u+B9yGnhRhFN+bwrHVnc2p0WiBuc/NaAOQCbZ41kCQ3BqD7MK3dZ/O8hGTFsYgRvnRTq3JzTjsZ6OWRChOZW4nvLnzjqjGEXchSkCODjEWfGJGmkzSx7Z0pamMII2smyR8uBZAWnWb+hKqnys556eELQKVdumz8wUIPPDNFBiDTIQAilzLOzIMudOAIT14dNqYoVT0P65DM/xpcpzI1L38Tvh82IX0xbWbmNWWXuAdiDC3DWg2jOV46k5qbi3Oc5YxcS6/mSVX/58bjVLTuh8mlVdClGU1d9lWQr2g0zUNmsulmTJEIgYuLc4yvKADIPOITSm4GIb0a5oT8LEVPawDwkayhOMdFUc2TTYqZ7OKPyzLOG92yfnSA5w2fXbe8fJgrFGXuNobiZjBY3yqMc/QYj0/TSWJc+NwtYTYnCoG+bBoaFw32paZ0zl2hul6jVZ4DL1A3i+yD5+k1wEaqB4B0XFKVSBK8YVVVjq+tCkCqEuPDnkyQ2rtmXSbnE3q38WkVe/Z6V/Nn8hiKnDRZFYCD8pqaoZMznd1qnnKAFH24ZvyOHG/9IBB7AML6wIJsG5qSpTMMeMFcyI9UqwJIKfZiBUYb9XQARMdlRRJ3A0hBxVhoeydrmrw0Z0azQWErACdNmn64KfTqZrfmYDvqkbI432DeqGZJxdG568lSfsmNyNOUla6RuRGTl8aKBqmxuTmpZXnUir0GLNWig42TtozqkMc6NuMw7sxy1ozDuLMl0CwU37ns5MV08XU7v7wrgIqk2lA93XnMaZZfbwVQzVMA5E6n1uMeMTGw+mCSI1NZnSMnL1h/uC29dRWVnctOvO8uFQDdh2Yj1Ssz4VgpWXZG0TtUrb/o7A40i2t0Lq1s1cgoDtp8zbq120bzpxX90ilH6JGKphMaz4FsFgiJK4UMVUVLXD96EL8CyBVNUqwbjiRp4+AggjfpNi52aDZkrnEuqzqtwMCS73q0QaFxOUXdRkTDYiYbH8ef+Q7VxoHkl6aXtt7wtpgMaFmjyGJ2n6UOeNt37fDaKMLphLpUtraDxvoHq+YTALd1asdb49qF7LgVUXmh1HCOgc6T9aqRT3celJckc6KyKrf1u8qqaN1XG0IaCgWJKro1uzS+QE190c4M9NXSax+8mF8Bqil2FAJVYzOdXfxqjbWd5wRXa93ti/kerDm4LyZwK0q4kaERZuwS2zuDL3Q0LjV0OxM318suEI8D+eCceDKlyfErRgIexvoNzY64+B9suq8B1hc4KqZEion7wX2ySRorDgcPWCjLGqduuI6s/fiG4z77n91TJPYfczjGQHupWOnCmLytU0Mtg0ePFSfoXMwgNSzqwK27xSoRBtcvFZvtOniUd2lavzQ2CuNiszfGRhe/VBXGY6MDHgCJ893EZoo1pQ4elFeKWjN3v+C9XMzpbVRbN++8X3w2rJp50b1GctLaUAZPBhwWT2Nn3ZzKsbAsotkXW8z9q3Ua2a5NCt1CMlzXYVSvg6v4iv39iYrNDxxH3oxKJANvsJ+Xid+BB9oqazKtiOt1/Ee/+fvag8pcf5eJ3oatAtbiMRoqZaMqHBXbQ/15KkboLvu+XJN2Wei2YPmKUVUN7nG/rC2ZY/qX1pgm3T7up1KB8sTX64XlyOdNwy8sby2y3dfN/hwzfenvF63XC2Oc/r5RefXJCkblcx9s0VnEbGACvWgVfueeEXcNOqbarEin33CBvogpkvVnxYmdix4sgdS519QyVJ1LRJvFpq8bfaf+5YW5nWbsJYfzu3p/G98vYzy6CbZ0bQxsnMwaKj/bwj6rofuZxCVUTPEiyodTXNSvbMzwNC3c1Znxw2JRnPyemhxsjSvIVF411nfLzgPPq7DK88Y+67LzeaG82kZMw1yORgVXD7esaaChbqz5OzZ9hukijBq5TtTv5VLns/IB/Rje8QSg6E0pmgNJIcBekpy5yuUTpRozVcXwZ3EC+JvIh/Gz3FCylqaxlcIB1gDI4McA0MEr3eawbI5LOAvtwqOXPr1wwU3mPbaoQeGB5cUYL/JP0LZamWO+FYdK9JEa3werCA8AHu+pGbvCo8NyzpEwF/L4jbJsVNLF/NY27qkwY17xoet3cT2RwpujdNtKQTkiZomodUcwrgVX2EJbjPBv3BH468hHHqhxmRXOhNuXWeGY/6yXvi/PnUqvWwnDMX5+afkAJ9KrlY1z1DbX6/NQdDG9Jv37ZHTleiXIxVTS5QML7tYrYS/mVC69kLfve/Tv435a1Obmezmb3l0+xQYqkbp8+fcpm3K7Pv7hl29//+GPf/nrj//4x2+///rz379//v9//fnX7//268///Om79//02w/f/vJ9/Nv/AQ==);lineShape=1;fontSize=8;" vertex="1" parent="1">
                    <mxGeometry x="496.63427048161293" y="52.70025906718706" width="71.27213738121753" height="87.16640577725973" as="geometry"/>
                </mxCell>
                <mxCell id="85" value="" style="shape=stencil(lVjbchoxDP0aXjWy5etzmv5HZkIaphQyJL39fbVlvMEyPiRvy6KzkqWjmzdy9/r88LLdeH59Ox2/b3/vHt+eN/Jl4/3u8Lw97d70aSP3G7l7Op62307Hn4fH8++Xh0Vyefpx/LV84c8Zx+TrAvL8t73g8P/F17P4fnfoxGsw4inNxR2FaMRLnYt7cr4Td+TcXFyIsxEXIB5IxIhHnosnYmfEi5+LF3KlE/cUwNederK3RkgykA/t7yYfqKLvF0q9LzM5IK/qszkut2hcB1QKPXOcUAUAiVR67qiNUUC8PKUeoEZWBKgUe5PUyBrngJjsGUTfAA1JmhPXKAh0a6qWFmpkASTNgVLPCzVSwBmyxqH3UvItlNeJKhR7k1KhDDSUbPNMjRQQ6ao1pPeSGimgTFTNldQB1MgMsqEGCr1JamQCdatqNvca1MhaACC3WrIC1CR0hkK+D1xVwgO3KqD2GbroRG5V5hgNtemcAuoAQG6ttrzrG0Furc2JF4AAAI4HbigiohZyFZFAF1mMyhaAcm4BDI5FxXX53nDsih1bTGd7P9YMkeOgAp86D26qOHZp0AAJW21LWXTe0OAsIGGGjxpQj14AI2Gxl9KQEvLZOHh86DIc+laWDnT1OA4jXdHgczUhAgBMshREbpKlN04x5BCs+Wsvv+TrDcCYEdikMrDpVs71Z/hIWn8SUYY0zZSRUZmqaXUJ0yO3kX8FBPIoTbWxGce61sBn7dr3eV10XEZJ5AdAaIvK9Rll5c7FyIFWjZJsrHWoQWwqYgfwhLMur3ViBQg8gxpgJjkd/VAFVwPMihIZj6/eVg4dXzMALLNnb5LkNkjNRnCz8YluiIDeOuTHnku62EQwmOkakU0r1RkbLZUaJpNyoe0Js1Uo9SbpKlTwrhV7t+IMdcEu3RH6aFFvdz8GLtLcsqsl2uSiLcQeDmTBDsYeditd0sWII9u9ndMdXnMtPx0cDdlWCQf3Erb3EQw7FNs9iRtVZ+LDXQpwpIpbY1CYhn7MbWX6qDi6jmBbeZg8iCpbEjBMWbYkYHgPxHYpVzx0pLOXUgzD5IevA0Zyy4YLcWj7J+/fbojrw/tV39Nuvz/fFF7+b68G9dX5WlHu/wE=);lineShape=1;fontSize=8;" vertex="1" parent="1">
                    <mxGeometry x="543.2097771979777" y="95.74031851317864" width="78.90504031169796" height="40.18989774426803" as="geometry"/>
                </mxCell>
                <mxCell id="86" value="" style="shape=stencil(lVjZUhwxDPyafVXZli89E/IfVLGErRCWWiDH30eTLQ8jzUyneBuMem0dLbV94JvXx7uX4yGF17fL+fvx1+n+7fHAXw4pnZ4fj5fTm34d+PbANw/ny/Hb5fz+fH/9++Vuspy+fpx/Tr/w+4qTSlkmVAp/riu6kP8tfL3aP52eF/a9kDRj3yiXffvWSZKxF2zPJN3Yx0hR9gG1kQQLYGLgQY3UqgUUquBIpVBhC+gUwA4lULBHSoESAORMzTqdEvSBu89CypQiAPA4wAwo1Ns+QNParNO6khIAJIrOh04R7BAzBesDa5QAQEiitWcKDDZIVCwgR5gGrQOxXMhKhgp8jhSszyWN4tqLarU7FKVDAHkrFIulZ6UEijUn6vZITcMAdtBizZagrY3i2gY0KraUehph2CZcHgeYAQU63QJVt0OHPvTsKS2ZOigNPUC1pSFl9MFtQKVo6aCNkwEdFJBsHqTB4lNAsJmWPnK/50NeAQQBNA8OIFRAtXZe7SCjm28D0qjNJQCFVQkkHoAI1MMGIAFAk9FIF1EqoDSmgeUASlq0Q/d9SUujoR1ktLlF8XU0E8XPRAVExIdAsuJDAZzWxMXoAYx20Bm7BiDGZcrsASisWt5cvdOo800ECj4PaD5sULSSYEB0iWswcVObcdXaqeFG5rq3ljeD3qp56OwBsPOloXVmMRNmubLH0dxWW6BiCqO7LwBI830aoDOwOcA89rYBwU/2LmPGbA85pmbDNAlfJOGqJ/UUN9D6VMI5QKtQVU76x0kBzQNSZHEU5wxgioByqsiilQKlwrm7VjNaSkCFapIspTNTBcUaxlVkVnzKNxCile7mNNrUznmSPb96hObbSgSoiA5I4q56mOZEQECn33MiOkD+q2SO7jIjo6vtCUrPf40piFEOg+wzoEKZPjHBjgatK5SFsqpTVe5IKpU+biIfd0rIfp00TuJSAdRU/ekkgN4AQVkocdlmjWGvmOSqi9BY2L74FD+dAxxsOsYcj3GH1ym2skfKU4dYYGePWp3ad//7AvI1dX934aaKzi9+CCaozRcT7yNhATkg/hGD4QRUe3e9mCtwz95dhQsksQaUfYGiSaAJzrZLVHiX/+yj0P/t9ePjBerh9PR0fcBa/t+/WOnS9bWLb/8C);lineShape=1;fontSize=8;" vertex="1" parent="1">
                    <mxGeometry x="543.3857649376869" y="93.24493263441605" width="5.348725945571549" height="6.926337254969991" as="geometry"/>
                </mxCell>
                <mxCell id="87" value="" style="shape=stencil(rZ3JDhzHEUS/htdG7cvZy38IEGUSlkWBorz8vTNN9CyRM691MKCDRHVyuruqcomIzP5Q//Tbpx9+/fihpN++ff3y94//+vzjt08f6p8/lPL5l08fv37+Zv/2of7lQ/3TT1++fvzb1y+///Lj9//+9Qe/0v/tH1/+6X/Dv7/btXqYif+T/vP9T/Ix1v/+4K/fr//58y+P16ejZrl+wvV1HmU8XV+OMuH6fuQu168E15djPN9PPVp/f33Zx05P17cjD7h+HrXJ9XvD9f1Iz8/bjw3vx243rafr55EaXJ+P/vx+1pELXJ+OvJ+u30eF95nXebu39U1Hz2ggD5BtR8AKZ3uj89mgnmv+2mAcXQwa7tHcjyW3NI5CD92PWp8N5jHpodux5BTsc5+/M2jPv2ALM+mW2pGe180PDhnUY8pBq8egdbCD8ryzbavSVsrBVRRbGXpo29vy0AsPW7azLod/n3/yzmA8G1TbfBUNmhhUXulo0I/Bv9CfH9pc4IXBfF6Huo/B65DFhZnP5q3RxYfV8yb/4OZrdkLA65nBfD4PbR6ZNl/XzdcW+lU/wc+bryfeGlPfUi/noX3ryJ5vqZurB1ecb3d8M5h8gCz2PO+lvk+38M557+fXOjjaWnRYz7c0GocTeyfPvnUMjM/mVNRgHY0CornKZ780E54480JTImLBdTAvNOQX2vmi38V0yRnmOCYZrPN83QwWBkVzW+P5GVY69+/rNCZpQFm2lLA1LO+RI7rMPcMzmJ/TxKGhE4iZ2Oro7s3Pibtf43Q8rw22nrg1jwav1fycnOllAQWewfxc3WpATsD8nETRtdHzmdtKSQ0oYTW3lZ4P0E54RHtY6c17qddjFzWosHC96wEyAzrT5uckKJoBxTjzcykYdHBkI527//EZyOBWJjy+VjgPo6n3toUb8JZGeGgzyHBL5uf0AC38BfdzVQ0y7KXZz0Th8QDBOpjbkmrAjiiloea2umzvfu6u1wblzL8eDOiImheaz+fB/qTAebA7ltTBPF+lW5oasuwmaS/ZukoNZ864QlD0rSavNeEt7awGc+NDm8F+fmhfSrqlEsLuwHXYVbf3rFgpmoHEuJlx85mBxLixz7rrjxpYggXe2wzm8261U97BCfhDi0HGI2qvVTKyvjCKmkGRrLKj97aVbiFvTWSQNMZZTJrwDPeI9pDdD3hL5oXUoJxu4d2JEwML9ZQJ+JkWg3EsOtN2x1I0tROYeutmnndrveXKrw2qnjhL6vChA5JjeSat9Apbw3NluqV8HsgHTICglrsXekAdKDlxLyRAyDrxsncBRRxZ5hrIvJDUQFYKUjlgMU4Ce+a81ZL//uz5HOkggxoe2op+CuxZk8Rsh5YeOunCZUuwKNdY6r33ud/f5SZVItaxYWOMmOZivPIqUoLDMWCnWjYmDmAi8DOS4gcD61xzunI4By6xF+Z6PSVW5qMF5e58P1X9V8f17Vlxq44QaNuKaLYzVXx9/dRT1rCabOMMMQ/Xw/5p7YzD9/unZNvihWIrmFtYuFj693diDUJuzlmq1bZStQ2MHlZti0/h8GTlfFZUn6pI+9+zyPXIGsTaHNMWixNDyim+n1C6mMMqhBhOBZ7MJRZC27rWCe50yaCGOFCvoF7J4u03qV7LodbJAxOprYcgMxQ2T5DpIRp38rrqVC64sH5WNQ+APlEG7QxaDwkL5YEBRq4JT00JKVfFEqScFc1DEkjISNZD44ASgc7KwbSCRVfIxC1Ppmoin5DGQyKOELWyHf22Zd+8n1hK8PucAZ8mXLTq/rewTF7X6vTn5x0M1PbTIzxUZ4swnXP3PmDTFFVn+PsnRsmleZ/Xo1QtajZteR0SNUkPjGWOm/ivrOT0ZGjjntk+QN8UmMwFKvAwEBs0Fyhg4pwYWu8FwwO0gVh5UsbZ6hyq8p0yf74lB53IoAVc7UZw/UFGwerNBp70nj4/Qt8sQ5B4aTUzGVi1qqgXUxA1AEBe9xMa35QENwOi5CyJ2gGYpvNQAxC3GVer4S3twnlyDr9QOPENVf6uGMMtBEhmvdtJe7wlCKYaUC3X0+nUbwYdKbkekut9Wa1IYN4DyzOLMy2rASGoFmj0ofk8WEEn6aAZ0Jm20CTJixtQyRu3xkDWfATCbLOrtKK6hl9I9AvzZOweFo7OtMUnibibESNHZMPmQ3imKqNg5yHTL3SFXB3xhJW28CFZjzsBAoC2ps07YfHoMFnwfMgoFA1ZzrsQINpU1Gbem1baw4e4+36653eAaJeA0piomeEXKu5We8QWwi5lY/YSZS85pw0GTvFJrsEhyzaCrPTkI7oDYWbpD+FS7qslOSkoJds9AF8JSXAz2IIULISN3W1JFjqwNt9T4/RoqD0zA2HYLE8nJ7BX0DBudDM70Ir9JrF4ZyCez1kRWoelCGrnwO4GUiwl9EtuINXbxOrcDUTzxHqhHbDyxpCHL5wUoAndzJ6hguas0jafOAFHxvg8iBKmFiQIdkDja8KibEdZ4kboyeNN4F0oDd1ZcRtHg+ktJfUahd2Mi0zklioSBGsq/m3FOxqM8NAZvYaLfcSAKepVNOdziSulDvukHB7gMIIz5tTiNVsUpUygaUCx6pQqRUt/htxSxwrffLVAJi41ppxvBKCUS0vLKvUXWIDqeWtTAwoolhkr7smZQA+uMlc8cX0EsLci2Nub+iU3YH6khV8gqYBT3jm8JepjmAouOcAM29s58qBCJwVGu2Xaf3Av3Un1h91K69CSptKufCdJ31YE0bX1BCLM8NATMXRHbLMa4C01DSgOohMmUMMzbOTyatb0J29Ue1qAEhyxMFvr5IuErMwi2qklvmPfJHHtyt84CEb4UgBz7E8osEchsMO19ND53DkPURTfUhQjTCZwwm4tFxrxdTr3h1yDQpbtTTlxDrMxGiqap1oQarEDKUGxNlw48xEiMKoDASkzkNdaF3eWVL0ll9XSW6qBfK5nIH5rIL/QGPeuilW2C1S6qudrEwlrNxDuh9U8OWjPLCZd9d88v6VeMZuJt+T9BhcLJwYD+cAcVBv9lt+8M5A4PW4dCG83n1BAlSm7psIT1+HyAZJE11Iu3Euh+cvFNLQ1AtRyUeLn0NI4GfIyv1QCrYNeIzJNHVE4862xo4GiaAmi8nmTILw2qBrjJr/W0pU9vRcI74KiavVZQlC2RiDX9VLqkENXRuX0p6ozXozdm68W3cfqmPOZr9ZbGqy8ecUDkfdugeV3HogzY3mtTusQdp90a7haGW6ph4DiIPMFnSByuMZQfNLUYXeMoqOGNtmBBfjogU7gzHgEyGtz+mNeSA6Qw2xU7RbN+RyiYqWkVCiOyxHYP14YYAvEVDTUQTBC1nOg1yYunItoRzAgGLsEWmeiu19FM4GLhXM6YasBeb6oHL7jo28NphoQzue3FAxQXx20O3vzwhWNomZA3tsXLgcDWrisznhzz7UZKJe1mdbJGoHsLZFgxgNUOHHI0mRNsMyAIOB7CHw8cbRwWWugPVGEZAY9ODLsBgiypT0xiq6iGJkfUToP5SzCHn+BT5yyxxN731cJtP+86gbQCMSt7G4Q9hINplhVkZO9rtyMrsPCVHqFURl+HvgtSRrqJ+7/aTCjOIKZJo9AWw3oiM7Qyp4Tkygz9ltuLIJm7Ojc3Nw4Q/6zEZyxZENpfN5MowTOnAX7fesQgs0t0X2EMNqRdek1ZCcNn+FFoyxLEVqQqt275l4bhBp/81COljQqOinO028k/7FsnYJc7cqJLB6kUIOfWazlqUkJiNVZdbqUOfLWKDIYSoy6q4Kt4UJSUbNnbCcuIdNdFwhtCiMCmMzKoQXUdSsMCsQKHEdmDFWpzMZzc0JPyrwAmJoe0Zn5oavqYMY+q813BkXwoolnOhctdwcTcjmk96NiRMmhgBgZt3cOopPOSZ8ZCKPdx5WBpJW988LloI64WOkchqNcgJVZEakrODQrsNEuzkM0GLzS0eBi/Ep8houpNllBgVZQP+8rHSbzIBafQ8fDwpDlw4KC/uJilE8WOUXDkv3Oat4MWKTvJKUQEBm1POaXlERJ3PozVFngvA75pfmiUQUJiKU1jfcS0G4NU+G8AY7HsCmZVbFXIjZjeBCjXwi8jv0mdnt0JVFKQnDGXqKUWZl1kt7wJNTrwjPtuUZQeNBesr0p29v7D0iDXsNsOGaO7vqmm0FH4LuOFxoSStbtyCtB3RBKNKciSWLmyW0+7isINrD9sgaFR8E43UKbSOZu+TbUzbjzpFQ6yE8zc+ZtK6rmEYPqhxKEM8xz9h72EudLfaouLLOUuS/NyHLGBMtx7HBLtDWs8IvTGElu553d8gs8oHMMrUV9gB28pbGDRIpTuBkbNys+w4xnmpU2M86s7AwwJS2PnTXkYRA6JvUCZY79sNzSu2YQw20cbeXTikQSkllNmrSpunC/5A4NkM4a8jQVEf8U7mj0AS9yS9wmsluQtSx0xrtrN1q9ULmHqWcWxKhXzMkASbAaP0OQF92H6r422JoZW4gh3v+OVz1kxpRVOkoncgpuRHEITXJvhnR3UJO6fptSuBRUur1w++0Li47+e4dI3RlW8/ckcycSykN9JaR85UjtyGGY+HixmyTrG1y+OnIoNTvDxnuoxmNmniQVppFMbsLbN/n1zYAnGO2QJk52xzuMfZ08wcibmEI7DQ63SkrUrIpzntbWFojVOKQsTabXQChkhdk8a+IzrDh/jsWbK6Dx9lRImJWAfPMEI4vUsjV2vppgJNt7F2RrZxhHvStW1LOpmNn2L9W7dznRA7ZOzM4MjmyzimTETlyuqF3uEMgmyr5HDa27TFGPSLuwWG0EPanzXyRbDyWHk+DUiTu0Zr+H4ncVROTlKRfoNTR08sTHnl9Qo+T5HNcrakC/0EIj4WYBagtjR3y30ozVqo5sMwjs+tQg/6GwW8Nklnvj32uDGVqoK6a6PhxXbqlcScn0LWXc3i5bl1tK6JdqPA88AdUyYZmo44MvwS/5gI1ATpEj86lNIlYbWL6WKLjjrWEljKSJi2tFR/okZPEw0By6J1fCjoYcGkUmk+CuHBZp5WQFd9YaZXIDm0+bE+qIdYw7tMmyQG++yPgm4RqBjuNJQqHJfCzMApqWiWMiJB0HjXbEZYpuolEZzFUIxHXVtMIKeHfmEZJCv95Oi9fruLSCpHEYZ+bT+uF9hnykdcyek9bQF8xM+AhNXVh+Jj3DlSdkhGS+8uStosB4YRlLmGBTLlh+rTu9AZVSHc1DCnd8j/D9k40BNkwyy6zS3AHGZFl0TqGXtHLrT5h2czHDMzc9wpmnDuWpHOvmSUtbsS12WXEPTXQRpYXxy/whoBm4eiRK7PFkutoFT1IUXuzcltcU1WqIqNbwPY+GyUoN3QFM0LWgA+AMsIUmp4KqmBYGQxQMkS0MYeBJFT34aJ4N7FODxCdiityDOIRHk1kE0s/acO00taxmlZF/OkXGLyDINLIqSRozKfXFfqY+7aaivs4jcgOveDFdKHRpT+6uTxpjuENuBlkL+6sZNeiItnrzvjAiiWGT0DqZCxKvM4xTypyVzaVpVuYhOzPg5P5ZIpINh7nG+UI2nINMILFB+HpUKay7r5p7l4azk1eArwqPRV1BqFZ4LqcrFsVVZIYRRyBpKgbLFYZOVW7vWUsrmrr5MxZbU0xPYZldk5W2CHHBrgnFbiGCPIaPvhPd2cXHDWLPKwOVcbhLZ3nrDrCJuWWkNwLCbH4W2bUeJoOzn/QZbVKbbZ7KE0YczIvX2pUs8ylrRA0E2MR8IY4iejXVE4fshDM9LxauBsaFpXA7KD0XD4fcMf5kTDidQBE0imXGK0wmXZUnns0XjAuSDz18Iog/buDf7ArqbcLh7Z3oN7YmOgGnN8JHiMiRzXAeFtf69xG1DzAiZar39uoHoBKn8kxdOP9+Dqz0iPMqM26+F+2fBUOWi4rDoFHsZtihx69c5cNKAhWu+cPm81uiX6ha4W3Wd/TwdUF/SzSgZmvI8iDG5IPs1n0hIwtfbt0ZF66VFx8WI9/aUujI4ES3hrHSayPn7zNzxFVyV62PEBGUnL+LVIsKQnz8JN1SmCewOEksW/sUF39ts4TOr6upzyHnm/wl4xK+aTG5M7jEKMofPCxNlZ6T5wl4yRw6MqiIvmuEH5ITfEs5GAxc6RKi6GDtnM+mEKyc9U55hQkeCeu4HDxf5xlSXoRJqd6vPhCtk/R5WlhuGqd7ZoOqXHNjRPUuorwZTJ7VEpSejjBxN4PkfD78mjsy9KMwF+PrUxgOuZFgNwPZrXUiKJbDaK56CSRrv8RFk0j4VFPNSF3kqJK8+Hxz0pLmAunN4VuYZXAfV/i6oGNdbKDPwHxfDrWof4yDP6NdxCDhxLPYKZbXVWeMoj88kzl2u+WO42NyQNydueWOPanj/DWwI9OOjMTbe4YRB/xFk0jsIq1SQqo+0Cl5vArfzWISQz/Jgkmxf3YpgMqcljQF6cm/OIkhS8yai0A0cxNDDUlMQh6yJT02ib/oE0Br7nWPjSEJGw1bmInPobxVVbVzS1ILk4ESj/2s2hSSuFwIE9EuGr6bkjDM27emITOz2CqMdMsIw7T4ESws8VrVuZEZM9oWvieTWV1WdX9mTLyur7d/+fWHb5++/8dPn3/++bdvX7/8/ePj///py9ePf/v65fdffrz90W+ffvj1o/3XfwE=);lineShape=1;fontSize=8;" vertex="1" parent="1">
                    <mxGeometry x="508.38270425495807" y="52.7256284278817" width="20.285299543523344" height="21.41794165277556" as="geometry"/>
                </mxCell>
                <mxCell id="88" value="not a curveball so&amp;nbsp;&lt;br&gt;dekho sirf rightsum ko liya he" style="text;html=1;align=center;verticalAlign=middle;resizable=0;points=[];autosize=1;strokeColor=none;fillColor=none;fontSize=8;" vertex="1" parent="1">
                    <mxGeometry x="580" y="135.93" width="130" height="30" as="geometry"/>
                </mxCell>
                <mxCell id="89" value="CONCEPT:&lt;br&gt;there will be only one curveball jisme ls+rs+root-&amp;gt;val hoga&lt;br&gt;for the rest all non curveballs it will be max(ls,rs)+root-&amp;gt;val" style="text;html=1;align=center;verticalAlign=middle;resizable=0;points=[];autosize=1;strokeColor=none;fillColor=none;fontSize=8;" vertex="1" parent="1">
                    <mxGeometry x="645" y="40" width="230" height="40" as="geometry"/>
                </mxCell>
                <mxCell id="90" value="" style="shape=stencil(lVfbchoxDP2afdX4bvk5Tf8jMyGFKYUMIb38feXuLMFS9xDeFnNk3Y/kKT68bZ9eN1Nwb+fT8fvm1+75vJ3ilymE3WG7Oe3O8jXFxyk+vBxPm2+n4/vhef79+tSR/evH8We/4fcsF6iGLhTcn/mgkqv/Dr7O8P3ucAVnSk7BQ1uH+0TJD3gmlwGeidOAL5TSOj4kCqzwEdgTHfmk3WWAz9R0eBLAJ0+FFb4Cf1MlXxU++3V8DpS1/R7cnyuVoOMZ1/ElUBzzlSmCciiF8uhvgvmtjtpofyQXAF7Uj/YH8iC/tely9jCenMjHAS8GAvtbIQ4K7xzAV+Ko7C/A38ZLuVzsdxSQgkapjAr8EuI1AW5jBgoVUBLeXVy81ISQBgiqqKiqKRlmQQTC6DUHWHYSJuV1CwtxrOUhjz7IFQy8lkSnsTG7V8iHvBDDRUBqF1BFS7o1WbgLpTrpPNS4sOv/BSKV0YfMkO2sgPBZu8sk4ZeMEmec9qITNLQNa8INZPLm4ICyheEXRv5k5QkBl3tK2wsl4/5UzRP9YuJn+1OmSsTtpiigRDg1O8mMTlSGW0KnsZHmWXQikwxPygk0qSz3fRDlDSo21H1Lwg4HCQScbmb69HJB48qMtx4IECc7P8WtBlraDmjpKDTh7AbQexYwpV0xhEYQB9gdppP3XUuSCKCw2i1MBALQYNc8EciAZuweKQINCNhFtZMtyLTdhHtYAdPYVbt5mGmzyjc81s1LobsMCiOQK9oeRPVekwwz3A3dMpqulgYPmNUZ5k6QYtxC7BeWzBSgPXpNynCUWNpOC0N9zp6YqML79WaYYcWZeMqkYlRwOl/eQyoy9cBwSt35ML0Jl4+PN/DLbr+fn9DX/+s3sxzN7+34+Bc=);lineShape=1;fontSize=8;" vertex="1" parent="1">
                    <mxGeometry x="304.73107700390756" y="67.83619810170012" width="20.933344465476623" height="1.335369346479638" as="geometry"/>
                </mxCell>
                <mxCell id="91" value="" style="shape=stencil(hVbZctswDPwave6QAM/nNP2PzMSpPXXtjOP0+PtC1Sg1YXX7RpFY4eAuiEkf3vZPr7tJwtv1cv66+3F4vu4n/TSJHE773eVwtdWkj5M+vJwvuy+X8/vpefl+fZot59W38/f5Dz8XnCp6nVESfi07GSX/2fi82B8Ppxv73lBksG8BKf4bEENACCMioTXioiM5gO2wmApaHwBdURIBCOqYRK8IJIlWoWkEdAgDROiYw00dNhE1Q+5cKHFROlrwSQjxUDKy+jJ1BpD1+OYiKrkIA8SRTC0jdgJQpDs2VRZSQR4BtaCSq64RMY8ARVUCMDI5DxGd0LVZlZIHFAZoaGUEyLqzTdc7jRpZEqmSEaG6kDoCSdqoVseQmkJZSN1XySTSmUbt2JFPoEIACTImbTKnGjVFOg8fvWobYCmO1LCsmB6q6Us8gLHViJCDDykwARmZXSczAbEmoMiuSpE3gU0A8aC+VYrQByIijdSLHYW0gIDYRvtC35O71yQq7asB3d0ZDd+UOJanrPXaNM9eN7rSfJvUa2ofwdOX0FIrY7IBmTS72BC9PavNfJXJ2QuJx4rhGlGkXUIDWnTlYc/B5jDC/v/f4cUWfyefl8PxuAxOt+d+UrKtZcrSx98=);lineShape=1;fontSize=8;" vertex="1" parent="1">
                    <mxGeometry x="320.234809798299" y="63.4986344617289" width="3.0410591317541518" height="4.059251005120446" as="geometry"/>
                </mxCell>
                <mxCell id="92" value="" style="shape=stencil(lVbZbtswEPwavS7I5bnPbvIfBuLUQlzbcJzr77uqQFXL2IP2jRZnyD1mxxzC5nW/Pe8Gdq/Xy+ll9zE+XfdD+DEwj8f97jJedTWEhyFsnk+X3c/L6e34NP8+byfktPp1ep9O+Jx5EiiFicXua/4SEmX/58vjTDiMxxWBPbEzBCnk5D7B67a9QYSSAwTuQ1KCAEIlXy2+Euf7+EiRLT5SCSAgysXgq1AB8TjyYvGBcoX4ZPClUGAUT+rw2pOC8mWLz5k8wBeSDs/txnsNY9uA7KiiDmcqtkLZQw1piaQjBAqIoD3ucigUQc6cW8RLUZkquqFQ9ZYg5EHSSgjZyiJRBLLj1MZk0an2GRG4nbcQEszB11aT1eQIUl7sZ9k7Rw5kraPezaaQAzekb/iMldH3WWuUgH253lu0CQV4xZLdqssxIrzY80sgBvHorvUi1SnyokzZnq+DkED8N/Fo9oU4GgI3nd/2Xm6SbHgdfXD+pPnc4ZF+aqUSOzyD+mv7qxWQ6gHoZ7J+O8aBBNRz+rPrzLd18DZe47cj5j00X52P0iWQYAarCVxa5nBM0vuE2iXya03C2yLpXDvUhdyscKkqU0Eh/e8z5B8Iuvj76nkeD4f50bTe719J+ml+YYWH3w==);lineShape=1;fontSize=8;" vertex="1" parent="1">
                    <mxGeometry x="322.3484235138462" y="69.40949096269583" width="4.200541833178109" height="2.973893873995621" as="geometry"/>
                </mxCell>
                <mxCell id="93" value="" style="shape=stencil(lVfZctswDPwavWJI8H5O0//ITJzaU9fOOO7194WqUWOA5jZ6k2WsAC4WB6fw8LZ/et1N7N6ul/PX3c/D83U/hU8T8+G0310OV3mawuMUHl7Ol92Xy/n76Xn5/fo0W85P384/5i/8WnCeIs8gdr+XF6lRa3/ffF7sj4fTjX2h6pV9dpTz2N5HikkDPPkIAI24dQA3BnAiny0ggpCCp9yFVBgAKqViAc2PATFRMiwxuTQGJL6TBhSS/B30GVKmAGjNiVrUAKYEaC1sPcRMDtBaKgXNkvAWgZRqXDn5B3AUAwA0ytqDiKUAD00C0Id25LF9rcaeAamt0yoTA4rEPut4hFJwYLGv+vver2K/XzzOkXMaUcgDqYqLpjnlQAykOsektc2VGgYkre0QKOOQvGYpZCooDZWKDkmU55CHSmykWtZM3gdI2zOAuDaRESB12g4VAky5cYQ9RgCstepFvaBlzB50n/RMBam12LZXYIuZSdJqDeQRR9VWj8O6kDQHY+9AB5t1ZA6MUyBC1bqTHOPvVy1sacq4mpvJWCJXNlWzHIFRjpttYJIzNG3njqQ5DdLCcHHa0klr2oc91VSC6ATRuhnQsZTiqpTR4AkaINMxAZZktGUNKGEdRaPhmTSt1ePxnO0srIUaXgDMaGt+zf1wxdDSaInipiVGChw1+n5NklQ6EFK/iL035g+uegJIINP9MjmrC6i1X1dnANp67DSUAkGJ7vbtmyIfAFy1DiIQhlt7+k3WCkizrFwmaXHdCAb23OkuAIKcjV+E7UAGumKuDGXa2RcZW0B0XTxSqw3w350317VlfoxP6S1uS77kqsAg/k4PcgFLaIhsvOD9314e3m+TL4fjcbmM3v5vb5/yarm5hsc/);lineShape=1;fontSize=8;" vertex="1" parent="1">
                    <mxGeometry x="462.8967348054721" y="68.23166338103397" width="30.570398951249445" height="2.186544297720642" as="geometry"/>
                </mxCell>
                <mxCell id="94" value="" style="shape=stencil(lVfLctswDPwaXTEkSPBxTtP/yEyc2lPXzjhO2/x9oGooC5S1ndxkGksCCyxADuHhbf/0uhvYvV0v55+7P4fn634I3wbmw2m/uxyu+jWExyE8vJwvux+X8/vpefr9+jRajl+/zr/HHf5OuEo+jCB2H9OCI+f/LXyfzI+H08KcE3lv7JlYtu2jo8zGXoh5214q1WLsC4nbts+OajL2XlfyNqAwuWgBQh54VB0lZyN2xOCEmqhYSjmTq9sA75Rze0SIVAo4olKpBhADPKJmipZW8RQBr5UpWUByJBHwKhRsYaRKAmLImdhmTldiAKWRWiU0gEZVQO1J7FOtvDFwSTnxuQdUAIiFfOkBBdRGVJZs4mqB5XrL6yLokADAk1jBVaw4VWjpWGLKyCVlqQNgQURuHs+azjjo2GpzBqTWpu4DVGBWciVSRYDaHFgAUJ8RbvstAEiiIiS1j8Gh8s6Ucs9SAYqT0rc+zYMHvVt7ayfRUeUIUCh3ihNyIHEaQ68HVTkKWtPUVWvBtDJ5WSkOsKSZ7jS9aLf3Eak1icURAc24QHkVdcUardLzCvvMasrV0KbSJsCWa/VwQKhLpdPonPytoJPtAlrfCcXwVUAKFGzmkg4IUK56F+gak86sDGojC2XL0jgyQOKKNlebOOUtA0DWPmNdCjp3gYJSomhP4EiMNJralJ0B6hIAhLwSRCYBGh0dsBr1uPXldp+a7UOj7X4Iq/1DE/n9CCjazup1wAB/9MbX7e+JgRbcqifBWeJah7vdWAPcvbvrJVhBurstIHxbdat6a2NoixqreobtOrRCmZmEiZJ2Lbi9LRAzq8LEffqLL5f/muvH7ZH0cjgepzfW8v/+UaVL04MsPH4C);lineShape=1;fontSize=8;" vertex="1" parent="1">
                    <mxGeometry x="487.0523072762685" y="64.90662327274845" width="7.975174493446782" height="9.490731592539374" as="geometry"/>
                </mxCell>
            </root>
        </mxGraphModel>
    </diagram>
</mxfile>